<svg xmlns="http://www.w3.org/2000/svg" xmlns:xlink="http://www.w3.org/1999/xlink" width="1366" zoomAndPan="magnify" viewBox="0 0 1024.5 1024.500009" height="1366" preserveAspectRatio="xMidYMid meet" version="1.2"><defs><clipPath id="5a7df024b6"><path d="M 0 128.558594 L 1024 128.558594 L 1024 895.433594 L 0 895.433594 Z M 0 128.558594 "/></clipPath></defs><g id="08f66c45a8"><g clip-rule="nonzero" clip-path="url(#5a7df024b6)"><path style=" stroke:none;fill-rule:nonzero;fill:#000000;fill-opacity:1;" d="M 943.65625 895.289062 L 79.347656 895.289062 C 72.789062 894.4375 68.015625 893.699219 65.023438 893.074219 C 37.332031 887.25 14.355469 865.566406 5.128906 839.675781 C 2.363281 831.933594 1.335938 823.832031 0 815.613281 L 0 206.996094 C 1.441406 203.085938 1.335938 198.6875 2.140625 195.359375 C 3.238281 190.808594 4.355469 185.726562 6.167969 181.507812 C 17.839844 154.199219 38.210938 137.324219 67.28125 130.886719 C 69.957031 130.292969 72.636719 129.933594 75.320312 129.816406 C 78.933594 129.667969 82.453125 128.820312 86.109375 128.820312 C 367.6875 128.691406 652.273438 128.691406 939.867188 128.820312 C 942.066406 128.820312 944.246094 128.980469 946.40625 129.296875 C 948.554688 129.621094 950.71875 129.929688 952.898438 130.21875 C 960.429688 131.207031 967.082031 132.996094 972.859375 135.582031 C 1000.382812 147.859375 1020.699219 173.71875 1022.722656 204.511719 C 1023.050781 209.507812 1023.554688 214.367188 1023.523438 219.316406 C 1022.367188 372.144531 1023.003906 525.089844 1023.019531 688.707031 C 1023.019531 723.75 1023.941406 760.625 1023.449219 797.542969 C 1023.300781 808.914062 1023.039062 816.613281 1022.664062 820.636719 C 1020.382812 844.824219 1008.96875 864.535156 988.421875 879.773438 C 978.632812 887.027344 967.691406 891.632812 955.605469 893.59375 C 951.632812 894.238281 947.648438 894.804688 943.65625 895.289062 Z M 496.542969 589.574219 C 509.546875 594.496094 524.8125 591.300781 534.902344 581.90625 C 624.105469 498.847656 712.796875 416.636719 800.980469 335.269531 C 851.917969 288.277344 902.414062 241.519531 952.46875 195 C 953.242188 194.289062 953.265625 193.542969 952.542969 192.773438 C 951.402344 191.574219 949.710938 190.972656 947.460938 190.972656 C 655.378906 190.875 366.839844 190.824219 81.847656 190.824219 C 76.257812 190.824219 73.0625 192.117188 69.289062 195.730469 C 68.742188 196.253906 68.753906 196.769531 69.316406 197.273438 C 72.367188 199.949219 75.421875 202.679688 78.472656 205.464844 C 112.464844 236.527344 150.59375 271.769531 192.851562 311.191406 C 283.570312 395.828125 371.613281 477.648438 456.980469 556.65625 C 464.558594 563.671875 472.34375 570.859375 480.328125 578.222656 C 486.730469 584.125 492.132812 587.910156 496.542969 589.574219 Z M 959.839844 276.164062 C 959.839844 275.953125 959.738281 275.773438 959.527344 275.613281 C 959.320312 275.441406 959.105469 275.4375 958.890625 275.597656 C 951.859375 281.023438 946.210938 287.398438 939.523438 293.625 C 867.074219 360.933594 792.75 430.269531 716.546875 501.636719 C 715.824219 502.328125 715.054688 502.945312 714.242188 503.480469 C 713.085938 504.261719 713.039062 505.109375 714.109375 506.019531 C 716.648438 508.171875 718.890625 510.164062 720.84375 511.996094 C 762.039062 550.597656 806.382812 592.382812 853.875 637.355469 C 863.058594 646.046875 871.125 653.804688 878.070312 660.632812 C 885.617188 668.046875 893.644531 675.0625 901.179688 682.464844 C 907.074219 688.25 912.839844 693.703125 918.480469 698.828125 C 927.871094 707.328125 936.460938 716.289062 945.898438 724.820312 C 950.367188 728.851562 954.699219 733.050781 958.890625 737.410156 C 959.058594 737.597656 959.265625 737.664062 959.511719 737.617188 C 959.898438 737.546875 960.09375 737.371094 960.09375 737.082031 C 960.101562 583.695312 960.09375 430.367188 960.0625 277.097656 C 960.0625 276.902344 960.019531 276.714844 959.929688 276.535156 C 959.871094 276.425781 959.839844 276.300781 959.839844 276.164062 Z M 64.722656 737.632812 C 71.066406 731.300781 77.933594 724.617188 85.324219 717.582031 C 151.597656 654.546875 217.050781 592.042969 281.683594 530.066406 C 289.035156 523.011719 296.765625 515.710938 304.882812 508.160156 C 306.46875 506.695312 306.457031 505.238281 304.851562 503.792969 C 301.730469 500.957031 298.769531 498.226562 295.964844 495.601562 C 217.878906 422.480469 144.355469 353.984375 75.394531 290.117188 C 71.265625 286.292969 67.3125 282.609375 63.535156 279.0625 C 63.367188 278.902344 63.28125 278.902344 63.28125 279.0625 L 62.984375 736.902344 C 62.984375 738.546875 63.566406 738.792969 64.722656 737.632812 Z M 514.972656 655.859375 C 483.925781 657.273438 458.882812 646.023438 436.171875 624.636719 C 415.503906 605.1875 389.996094 581.292969 359.648438 552.957031 C 358.371094 551.765625 356.992188 550.613281 355.515625 549.492188 C 355.304688 549.335938 355.074219 549.21875 354.824219 549.144531 C 354.570312 549.066406 354.3125 549.035156 354.050781 549.050781 C 353.789062 549.0625 353.539062 549.121094 353.296875 549.222656 C 353.058594 549.324219 352.839844 549.464844 352.648438 549.640625 C 348.828125 553.105469 345.21875 556.996094 341.515625 560.519531 C 262.359375 636.128906 183.957031 711.203125 106.308594 785.742188 C 96.5 795.164062 87.757812 803.382812 80.078125 810.398438 C 75.746094 814.359375 71.664062 818.269531 67.832031 822.125 C 66.800781 823.164062 66.785156 824.21875 67.785156 825.289062 C 73.925781 831.828125 79.335938 831.382812 89.246094 831.382812 C 373.082031 831.382812 656.921875 831.382812 940.757812 831.382812 C 947.757812 831.382812 951.636719 830.683594 955.367188 825.019531 C 956.230469 823.703125 956.089844 822.507812 954.949219 821.441406 C 863.488281 734.914062 772.058594 648.289062 680.65625 561.574219 C 675.5625 556.738281 671.246094 552.378906 667.710938 548.496094 C 667.488281 548.25 667.222656 548.058594 666.921875 547.917969 C 666.621094 547.777344 666.304688 547.699219 665.972656 547.6875 C 665.640625 547.671875 665.320312 547.722656 665.007812 547.839844 C 664.695312 547.953125 664.417969 548.121094 664.171875 548.347656 C 638.402344 572.171875 612.824219 596.335938 587.277344 620.355469 C 577.476562 629.570312 569.894531 635.910156 564.523438 639.378906 C 548.710938 649.582031 532.191406 655.078125 514.972656 655.859375 Z M 514.972656 655.859375 "/></g></g></svg>