<svg xmlns="http://www.w3.org/2000/svg" xmlns:xlink="http://www.w3.org/1999/xlink" width="1366" zoomAndPan="magnify" viewBox="0 0 1024.5 576" height="1366" preserveAspectRatio="xMidYMid meet" version="1.2"><defs><clipPath id="3cb98a3ec0"><path d="M 0 128.699219 L 1024 128.699219 L 1024 575.859375 L 0 575.859375 Z M 0 128.699219 "/></clipPath></defs><g id="8d7860602f"><g clip-rule="nonzero" clip-path="url(#3cb98a3ec0)"><path style=" stroke:none;fill-rule:nonzero;fill:#000000;fill-opacity:1;" d="M 943.65625 895.429688 L 79.347656 895.429688 C 72.789062 894.578125 68.015625 893.839844 65.023438 893.214844 C 37.332031 887.390625 14.355469 865.707031 5.128906 839.816406 C 2.363281 832.074219 1.335938 823.972656 0 815.753906 L 0 207.136719 C 1.441406 203.226562 1.335938 198.828125 2.140625 195.5 C 3.238281 190.949219 4.355469 185.867188 6.167969 181.648438 C 17.839844 154.339844 38.210938 137.46875 67.28125 131.027344 C 69.957031 130.433594 72.636719 130.074219 75.320312 129.957031 C 78.933594 129.808594 82.453125 128.960938 86.109375 128.960938 C 367.6875 128.832031 652.273438 128.832031 939.867188 128.960938 C 942.066406 128.960938 944.246094 129.121094 946.40625 129.4375 C 948.554688 129.761719 950.71875 130.070312 952.898438 130.359375 C 960.429688 131.347656 967.082031 133.136719 972.859375 135.722656 C 1000.382812 148 1020.699219 173.859375 1022.722656 204.652344 C 1023.050781 209.648438 1023.554688 214.507812 1023.523438 219.457031 C 1022.367188 372.285156 1023.003906 525.230469 1023.019531 688.847656 C 1023.019531 723.890625 1023.941406 760.765625 1023.449219 797.683594 C 1023.300781 809.054688 1023.039062 816.753906 1022.664062 820.777344 C 1020.382812 844.964844 1008.96875 864.675781 988.421875 879.914062 C 978.632812 887.167969 967.691406 891.773438 955.605469 893.734375 C 951.632812 894.378906 947.648438 894.945312 943.65625 895.429688 Z M 496.542969 589.714844 C 509.546875 594.636719 524.8125 591.441406 534.902344 582.046875 C 624.105469 498.988281 712.796875 416.777344 800.980469 335.410156 C 851.917969 288.417969 902.414062 241.660156 952.46875 195.140625 C 953.242188 194.429688 953.265625 193.683594 952.542969 192.914062 C 951.402344 191.714844 949.710938 191.113281 947.460938 191.113281 C 655.378906 191.015625 366.839844 190.964844 81.847656 190.964844 C 76.257812 190.964844 73.0625 192.257812 69.289062 195.871094 C 68.742188 196.394531 68.753906 196.910156 69.316406 197.414062 C 72.367188 200.089844 75.421875 202.820312 78.472656 205.605469 C 112.464844 236.667969 150.59375 271.910156 192.851562 311.332031 C 283.570312 395.96875 371.613281 477.789062 456.980469 556.796875 C 464.558594 563.8125 472.34375 571 480.328125 578.363281 C 486.730469 584.265625 492.132812 588.050781 496.542969 589.714844 Z M 959.839844 276.304688 C 959.839844 276.097656 959.738281 275.914062 959.527344 275.753906 C 959.320312 275.582031 959.105469 275.578125 958.890625 275.738281 C 951.859375 281.164062 946.210938 287.539062 939.523438 293.765625 C 867.074219 361.074219 792.75 430.410156 716.546875 501.777344 C 715.824219 502.46875 715.054688 503.085938 714.242188 503.621094 C 713.085938 504.402344 713.039062 505.25 714.109375 506.160156 C 716.648438 508.3125 718.890625 510.304688 720.84375 512.136719 C 762.039062 550.738281 806.382812 592.523438 853.875 637.496094 C 863.058594 646.1875 871.125 653.945312 878.070312 660.773438 C 885.617188 668.1875 893.644531 675.203125 901.179688 682.605469 C 907.074219 688.390625 912.839844 693.84375 918.480469 698.96875 C 927.871094 707.46875 936.460938 716.429688 945.898438 724.960938 C 950.367188 728.992188 954.699219 733.191406 958.890625 737.550781 C 959.058594 737.738281 959.265625 737.804688 959.511719 737.757812 C 959.898438 737.6875 960.09375 737.511719 960.09375 737.222656 C 960.101562 583.835938 960.09375 430.507812 960.0625 277.238281 C 960.0625 277.042969 960.019531 276.855469 959.929688 276.675781 C 959.871094 276.566406 959.839844 276.441406 959.839844 276.304688 Z M 64.722656 737.773438 C 71.066406 731.441406 77.933594 724.757812 85.324219 717.722656 C 151.597656 654.6875 217.050781 592.183594 281.683594 530.207031 C 289.035156 523.152344 296.765625 515.851562 304.882812 508.300781 C 306.46875 506.835938 306.457031 505.378906 304.851562 503.933594 C 301.730469 501.097656 298.769531 498.367188 295.964844 495.742188 C 217.878906 422.621094 144.355469 354.125 75.394531 290.257812 C 71.265625 286.433594 67.3125 282.75 63.535156 279.203125 C 63.367188 279.042969 63.28125 279.042969 63.28125 279.203125 L 62.984375 737.042969 C 62.984375 738.6875 63.566406 738.933594 64.722656 737.773438 Z M 514.972656 656 C 483.925781 657.414062 458.882812 646.164062 436.171875 624.777344 C 415.503906 605.328125 389.996094 581.433594 359.648438 553.097656 C 358.371094 551.90625 356.992188 550.753906 355.515625 549.632812 C 355.304688 549.476562 355.074219 549.359375 354.824219 549.285156 C 354.570312 549.207031 354.3125 549.175781 354.050781 549.191406 C 353.789062 549.203125 353.539062 549.261719 353.296875 549.363281 C 353.058594 549.464844 352.839844 549.605469 352.648438 549.78125 C 348.828125 553.246094 345.21875 557.136719 341.515625 560.660156 C 262.359375 636.269531 183.957031 711.34375 106.308594 785.882812 C 96.5 795.304688 87.757812 803.523438 80.078125 810.539062 C 75.746094 814.5 71.664062 818.410156 67.832031 822.265625 C 66.800781 823.304688 66.785156 824.359375 67.785156 825.429688 C 73.925781 831.96875 79.335938 831.523438 89.246094 831.523438 C 373.082031 831.523438 656.921875 831.523438 940.757812 831.523438 C 947.757812 831.523438 951.636719 830.824219 955.367188 825.160156 C 956.230469 823.84375 956.089844 822.648438 954.949219 821.582031 C 863.488281 735.054688 772.058594 648.429688 680.65625 561.714844 C 675.5625 556.878906 671.246094 552.519531 667.710938 548.636719 C 667.488281 548.390625 667.222656 548.199219 666.921875 548.058594 C 666.621094 547.917969 666.304688 547.839844 665.972656 547.828125 C 665.640625 547.8125 665.320312 547.863281 665.007812 547.980469 C 664.695312 548.09375 664.417969 548.261719 664.171875 548.488281 C 638.402344 572.3125 612.824219 596.476562 587.277344 620.496094 C 577.476562 629.710938 569.894531 636.050781 564.523438 639.519531 C 548.710938 649.722656 532.191406 655.21875 514.972656 656 Z M 514.972656 656 "/></g></g></svg>