<svg xmlns="http://www.w3.org/2000/svg" xmlns:xlink="http://www.w3.org/1999/xlink" width="1366" zoomAndPan="magnify" viewBox="0 0 1024.5 576" height="1366" preserveAspectRatio="xMidYMid meet" version="1.2"><defs><clipPath id="587a8f2d69"><path d="M 46 68 L 984 68 L 984 575.859375 L 46 575.859375 Z M 46 68 "/></clipPath></defs><g id="f73b28c0fe"><g clip-rule="nonzero" clip-path="url(#587a8f2d69)"><path style=" stroke:none;fill-rule:nonzero;fill:#000000;fill-opacity:1;" d="M 982.574219 385.421875 C 981.699219 380.988281 980.398438 376.6875 978.671875 372.515625 C 976.941406 368.34375 974.824219 364.382812 972.308594 360.628906 C 969.796875 356.878906 966.9375 353.410156 963.738281 350.226562 C 960.535156 347.039062 957.054688 344.199219 953.289062 341.707031 L 566.21875 83.554688 C 564.355469 82.308594 562.449219 81.132812 560.496094 80.027344 C 558.546875 78.921875 556.558594 77.886719 554.53125 76.929688 C 552.503906 75.96875 550.445312 75.085938 548.355469 74.277344 C 546.261719 73.472656 544.144531 72.742188 542 72.089844 C 539.855469 71.441406 537.6875 70.867188 535.5 70.375 C 533.3125 69.886719 531.109375 69.476562 528.890625 69.144531 C 526.675781 68.816406 524.449219 68.570312 522.210938 68.40625 C 519.976562 68.238281 517.738281 68.15625 515.496094 68.15625 C 513.253906 68.15625 511.011719 68.238281 508.777344 68.40625 C 506.542969 68.570312 504.316406 68.816406 502.097656 69.144531 C 499.878906 69.476562 497.675781 69.886719 495.488281 70.375 C 493.300781 70.867188 491.136719 71.441406 488.992188 72.089844 C 486.84375 72.742188 484.726562 73.472656 482.632812 74.277344 C 480.542969 75.085938 478.484375 75.96875 476.457031 76.929688 C 474.429688 77.886719 472.441406 78.921875 470.492188 80.027344 C 468.542969 81.132812 466.632812 82.308594 464.769531 83.554688 L 77.457031 341.808594 C 76.523438 342.4375 75.605469 343.085938 74.703125 343.757812 C 73.800781 344.429688 72.917969 345.125 72.050781 345.839844 C 71.183594 346.554688 70.332031 347.289062 69.5 348.046875 C 68.667969 348.804688 67.855469 349.582031 67.0625 350.378906 C 66.265625 351.171875 65.492188 351.988281 64.738281 352.824219 C 63.984375 353.660156 63.253906 354.511719 62.539062 355.382812 C 61.828125 356.253906 61.136719 357.140625 60.46875 358.042969 C 59.800781 358.949219 59.15625 359.871094 58.53125 360.804688 C 57.910156 361.742188 57.308594 362.691406 56.730469 363.65625 C 56.15625 364.625 55.601562 365.601562 55.074219 366.59375 C 54.542969 367.585938 54.039062 368.59375 53.558594 369.609375 C 53.082031 370.628906 52.625 371.65625 52.195312 372.695312 C 51.765625 373.734375 51.363281 374.785156 50.984375 375.84375 C 50.609375 376.902344 50.257812 377.972656 49.929688 379.046875 C 49.605469 380.125 49.304688 381.210938 49.035156 382.300781 C 48.761719 383.390625 48.515625 384.488281 48.296875 385.59375 C 48.078125 386.695312 47.886719 387.804688 47.722656 388.917969 C 47.558594 390.03125 47.421875 391.144531 47.3125 392.265625 C 47.203125 393.382812 47.121094 394.507812 47.066406 395.628906 C 47.011719 396.753906 46.984375 397.878906 46.984375 399.003906 C 46.984375 400.125 47.015625 401.25 47.070312 402.375 C 47.125 403.496094 47.207031 404.621094 47.320312 405.738281 C 47.429688 406.859375 47.566406 407.972656 47.734375 409.085938 C 47.898438 410.199219 48.089844 411.308594 48.308594 412.410156 C 48.53125 413.511719 48.777344 414.609375 49.050781 415.703125 C 49.324219 416.792969 49.621094 417.875 49.949219 418.953125 C 50.273438 420.03125 50.628906 421.097656 51.007812 422.15625 C 51.386719 423.214844 51.789062 424.265625 52.21875 425.304688 C 52.648438 426.34375 53.105469 427.371094 53.585938 428.386719 C 54.066406 429.40625 54.570312 430.410156 55.101562 431.402344 C 55.632812 432.394531 56.183594 433.371094 56.761719 434.335938 C 57.339844 435.300781 57.941406 436.253906 58.566406 437.1875 L 83.925781 475.222656 C 86.421875 478.992188 89.257812 482.484375 92.445312 485.691406 C 95.628906 488.894531 99.101562 491.757812 102.855469 494.277344 C 106.609375 496.792969 110.574219 498.914062 114.75 500.644531 C 118.925781 502.375 123.230469 503.675781 127.664062 504.550781 C 130.734375 505.027344 133.820312 505.304688 136.921875 505.375 L 136.921875 859.902344 C 136.921875 861.59375 136.964844 863.28125 137.046875 864.96875 C 137.128906 866.65625 137.253906 868.34375 137.421875 870.023438 C 137.585938 871.707031 137.792969 873.382812 138.039062 875.054688 C 138.289062 876.726562 138.578125 878.390625 138.90625 880.046875 C 139.234375 881.707031 139.605469 883.355469 140.015625 884.992188 C 140.425781 886.632812 140.878906 888.261719 141.367188 889.878906 C 141.859375 891.496094 142.386719 893.097656 142.957031 894.691406 C 143.527344 896.28125 144.136719 897.859375 144.78125 899.417969 C 145.429688 900.980469 146.113281 902.523438 146.835938 904.054688 C 147.558594 905.582031 148.316406 907.089844 149.113281 908.578125 C 149.910156 910.070312 150.742188 911.539062 151.609375 912.988281 C 152.480469 914.4375 153.382812 915.867188 154.320312 917.273438 C 155.261719 918.675781 156.234375 920.058594 157.238281 921.414062 C 158.246094 922.773438 159.285156 924.105469 160.355469 925.410156 C 161.429688 926.71875 162.53125 927.996094 163.667969 929.25 C 164.800781 930.5 165.964844 931.722656 167.160156 932.917969 C 168.355469 934.113281 169.578125 935.28125 170.832031 936.414062 C 172.082031 937.550781 173.359375 938.652344 174.667969 939.726562 C 175.972656 940.796875 177.304688 941.835938 178.660156 942.84375 C 180.019531 943.851562 181.398438 944.824219 182.804688 945.761719 C 184.210938 946.699219 185.636719 947.605469 187.085938 948.472656 C 188.535156 949.339844 190.003906 950.175781 191.496094 950.972656 C 192.984375 951.765625 194.492188 952.527344 196.019531 953.25 C 197.546875 953.972656 199.09375 954.65625 200.652344 955.304688 C 202.214844 955.949219 203.789062 956.558594 205.378906 957.128906 C 206.972656 957.695312 208.574219 958.226562 210.191406 958.71875 C 211.808594 959.207031 213.4375 959.660156 215.074219 960.070312 C 216.714844 960.480469 218.363281 960.851562 220.019531 961.179688 C 221.675781 961.507812 223.339844 961.796875 225.011719 962.046875 C 226.683594 962.292969 228.359375 962.5 230.042969 962.667969 C 231.722656 962.832031 233.40625 962.957031 235.09375 963.039062 C 236.78125 963.121094 238.472656 963.164062 240.160156 963.164062 L 412.222656 963.164062 C 413.351562 963.164062 414.472656 963.109375 415.597656 963 C 416.71875 962.886719 417.832031 962.722656 418.9375 962.503906 C 420.042969 962.28125 421.132812 962.007812 422.210938 961.683594 C 423.289062 961.355469 424.351562 960.976562 425.390625 960.542969 C 426.433594 960.113281 427.449219 959.632812 428.445312 959.097656 C 429.4375 958.566406 430.402344 957.988281 431.339844 957.363281 C 432.277344 956.738281 433.183594 956.066406 434.054688 955.351562 C 434.925781 954.636719 435.757812 953.878906 436.554688 953.082031 C 437.351562 952.285156 438.109375 951.449219 438.824219 950.578125 C 439.539062 949.707031 440.210938 948.804688 440.835938 947.867188 C 441.460938 946.929688 442.039062 945.964844 442.570312 944.96875 C 443.101562 943.976562 443.585938 942.957031 444.015625 941.914062 C 444.445312 940.875 444.828125 939.8125 445.152344 938.734375 C 445.480469 937.65625 445.753906 936.5625 445.972656 935.457031 C 446.195312 934.351562 446.359375 933.238281 446.46875 932.117188 C 446.578125 930.996094 446.636719 929.871094 446.636719 928.742188 L 446.636719 653.382812 L 584.285156 653.382812 L 584.285156 928.742188 C 584.285156 929.871094 584.339844 930.996094 584.449219 932.117188 C 584.5625 933.238281 584.726562 934.351562 584.945312 935.457031 C 585.167969 936.5625 585.441406 937.65625 585.765625 938.734375 C 586.09375 939.8125 586.472656 940.875 586.90625 941.914062 C 587.335938 942.957031 587.816406 943.976562 588.347656 944.96875 C 588.878906 945.964844 589.457031 946.929688 590.085938 947.867188 C 590.710938 948.804688 591.382812 949.707031 592.097656 950.578125 C 592.8125 951.449219 593.566406 952.285156 594.363281 953.082031 C 595.160156 953.878906 595.996094 954.636719 596.867188 955.351562 C 597.738281 956.066406 598.640625 956.738281 599.578125 957.363281 C 600.515625 957.988281 601.480469 958.566406 602.476562 959.097656 C 603.46875 959.632812 604.488281 960.113281 605.527344 960.542969 C 606.570312 960.976562 607.628906 961.355469 608.707031 961.683594 C 609.785156 962.007812 610.878906 962.28125 611.984375 962.503906 C 613.089844 962.722656 614.203125 962.886719 615.324219 963 C 616.445312 963.109375 617.570312 963.164062 618.699219 963.164062 L 790.761719 963.164062 C 792.449219 963.164062 794.136719 963.121094 795.824219 963.039062 C 797.511719 962.957031 799.199219 962.832031 800.878906 962.667969 C 802.5625 962.5 804.238281 962.292969 805.910156 962.046875 C 807.578125 961.796875 809.242188 961.507812 810.902344 961.179688 C 812.558594 960.851562 814.207031 960.480469 815.84375 960.070312 C 817.484375 959.660156 819.113281 959.207031 820.726562 958.71875 C 822.34375 958.226562 823.949219 957.695312 825.539062 957.128906 C 827.128906 956.558594 828.707031 955.949219 830.265625 955.304688 C 831.828125 954.65625 833.371094 953.972656 834.898438 953.25 C 836.425781 952.527344 837.9375 951.765625 839.425781 950.972656 C 840.914062 950.175781 842.386719 949.339844 843.835938 948.472656 C 845.285156 947.605469 846.710938 946.699219 848.117188 945.761719 C 849.519531 944.824219 850.902344 943.847656 852.257812 942.84375 C 853.617188 941.835938 854.945312 940.796875 856.253906 939.726562 C 857.558594 938.652344 858.839844 937.550781 860.089844 936.414062 C 861.34375 935.28125 862.566406 934.113281 863.761719 932.917969 C 864.953125 931.722656 866.121094 930.5 867.253906 929.25 C 868.390625 927.996094 869.492188 926.71875 870.5625 925.410156 C 871.636719 924.105469 872.675781 922.773438 873.679688 921.414062 C 874.6875 920.058594 875.660156 918.675781 876.597656 917.273438 C 877.539062 915.867188 878.441406 914.4375 879.308594 912.988281 C 880.179688 911.539062 881.011719 910.070312 881.808594 908.578125 C 882.605469 907.089844 883.363281 905.582031 884.085938 904.054688 C 884.808594 902.523438 885.492188 900.980469 886.140625 899.417969 C 886.785156 897.859375 887.394531 896.28125 887.960938 894.691406 C 888.53125 893.097656 889.0625 891.496094 889.550781 889.878906 C 890.042969 888.261719 890.492188 886.632812 890.902344 884.992188 C 891.3125 883.355469 891.683594 881.707031 892.015625 880.046875 C 892.34375 878.390625 892.632812 876.726562 892.878906 875.054688 C 893.128906 873.382812 893.335938 871.707031 893.5 870.023438 C 893.667969 868.34375 893.789062 866.65625 893.875 864.96875 C 893.957031 863.28125 893.996094 861.59375 893.996094 859.902344 L 893.996094 505.375 C 897.105469 505.269531 900.191406 504.960938 903.253906 504.445312 C 907.6875 503.570312 911.996094 502.269531 916.171875 500.542969 C 920.347656 498.8125 924.3125 496.6875 928.066406 494.171875 C 931.820312 491.65625 935.289062 488.792969 938.476562 485.585938 C 941.660156 482.378906 944.5 478.890625 946.992188 475.121094 L 972.355469 437.085938 C 974.871094 433.332031 976.996094 429.367188 978.730469 425.191406 C 980.460938 421.015625 981.765625 416.710938 982.640625 412.277344 C 983.519531 407.84375 983.953125 403.367188 983.941406 398.84375 C 983.929688 394.324219 983.476562 389.851562 982.574219 385.421875 Z M 790.761719 894.324219 L 653.109375 894.324219 L 653.109375 618.960938 C 653.109375 617.835938 653.054688 616.710938 652.945312 615.585938 C 652.835938 614.464844 652.667969 613.351562 652.449219 612.246094 C 652.230469 611.140625 651.957031 610.046875 651.628906 608.96875 C 651.300781 607.890625 650.921875 606.832031 650.492188 605.789062 C 650.058594 604.746094 649.578125 603.730469 649.046875 602.734375 C 648.515625 601.742188 647.9375 600.777344 647.3125 599.839844 C 646.683594 598.902344 646.015625 597.996094 645.300781 597.125 C 644.585938 596.253906 643.828125 595.421875 643.03125 594.621094 C 642.234375 593.824219 641.398438 593.070312 640.527344 592.355469 C 639.65625 591.640625 638.753906 590.96875 637.816406 590.34375 C 636.878906 589.714844 635.914062 589.136719 634.917969 588.605469 C 633.925781 588.074219 632.90625 587.59375 631.867188 587.160156 C 630.824219 586.730469 629.765625 586.351562 628.6875 586.023438 C 627.609375 585.695312 626.515625 585.421875 625.410156 585.203125 C 624.304688 584.984375 623.191406 584.816406 622.070312 584.707031 C 620.949219 584.597656 619.824219 584.542969 618.699219 584.542969 L 412.222656 584.542969 C 411.097656 584.542969 409.972656 584.597656 408.851562 584.707031 C 407.726562 584.816406 406.613281 584.984375 405.507812 585.203125 C 404.402344 585.421875 403.3125 585.695312 402.234375 586.023438 C 401.15625 586.351562 400.09375 586.730469 399.054688 587.160156 C 398.011719 587.59375 396.996094 588.074219 396 588.605469 C 395.007812 589.136719 394.042969 589.714844 393.105469 590.34375 C 392.167969 590.96875 391.261719 591.640625 390.390625 592.355469 C 389.519531 593.070312 388.6875 593.824219 387.890625 594.621094 C 387.09375 595.421875 386.335938 596.253906 385.621094 597.125 C 384.90625 597.996094 384.234375 598.902344 383.609375 599.839844 C 382.984375 600.777344 382.40625 601.742188 381.875 602.734375 C 381.34375 603.730469 380.859375 604.75 380.429688 605.789062 C 380 606.832031 379.621094 607.890625 379.292969 608.96875 C 378.964844 610.046875 378.691406 611.140625 378.472656 612.246094 C 378.25 613.351562 378.085938 614.464844 377.976562 615.589844 C 377.867188 616.710938 377.808594 617.835938 377.808594 618.960938 L 377.808594 894.324219 L 240.160156 894.324219 C 239.035156 894.324219 237.910156 894.269531 236.789062 894.15625 C 235.664062 894.046875 234.550781 893.882812 233.445312 893.660156 C 232.339844 893.441406 231.25 893.167969 230.171875 892.839844 C 229.09375 892.515625 228.03125 892.132812 226.992188 891.703125 C 225.949219 891.273438 224.933594 890.789062 223.9375 890.257812 C 222.945312 889.726562 221.980469 889.148438 221.042969 888.523438 C 220.105469 887.894531 219.199219 887.226562 218.328125 886.511719 C 217.457031 885.796875 216.625 885.039062 215.828125 884.242188 C 215.03125 883.445312 214.273438 882.609375 213.558594 881.738281 C 212.84375 880.867188 212.171875 879.964844 211.546875 879.027344 C 210.921875 878.089844 210.34375 877.121094 209.8125 876.128906 C 209.28125 875.132812 208.796875 874.117188 208.367188 873.074219 C 207.9375 872.035156 207.558594 870.972656 207.230469 869.894531 C 206.902344 868.816406 206.628906 867.722656 206.410156 866.617188 C 206.1875 865.511719 206.023438 864.398438 205.914062 863.277344 C 205.804688 862.15625 205.746094 861.03125 205.746094 859.902344 L 205.746094 476.738281 L 515.460938 270.214844 L 825.171875 476.738281 L 825.171875 859.902344 C 825.171875 861.03125 825.117188 862.15625 825.007812 863.277344 C 824.898438 864.398438 824.730469 865.511719 824.511719 866.617188 C 824.292969 867.722656 824.019531 868.816406 823.691406 869.894531 C 823.363281 870.972656 822.984375 872.035156 822.554688 873.074219 C 822.121094 874.117188 821.640625 875.132812 821.109375 876.128906 C 820.578125 877.121094 820 878.089844 819.375 879.027344 C 818.746094 879.964844 818.078125 880.867188 817.363281 881.738281 C 816.648438 882.609375 815.890625 883.445312 815.09375 884.242188 C 814.296875 885.039062 813.460938 885.796875 812.589844 886.511719 C 811.71875 887.226562 810.816406 887.894531 809.878906 888.523438 C 808.941406 889.148438 807.976562 889.726562 806.980469 890.257812 C 805.988281 890.789062 804.96875 891.273438 803.929688 891.703125 C 802.886719 892.132812 801.828125 892.515625 800.75 892.839844 C 799.671875 893.167969 798.578125 893.441406 797.472656 893.660156 C 796.367188 893.882812 795.253906 894.046875 794.132812 894.15625 C 793.011719 894.269531 791.886719 894.324219 790.761719 894.324219 Z M 889.730469 437.050781 L 534.558594 200.207031 C 533.152344 199.265625 531.6875 198.4375 530.15625 197.714844 C 528.628906 196.992188 527.054688 196.386719 525.4375 195.894531 C 523.820312 195.40625 522.175781 195.035156 520.503906 194.789062 C 518.832031 194.542969 517.152344 194.417969 515.460938 194.417969 C 513.769531 194.417969 512.089844 194.542969 510.417969 194.789062 C 508.746094 195.035156 507.101562 195.40625 505.480469 195.894531 C 503.863281 196.386719 502.292969 196.992188 500.761719 197.714844 C 499.234375 198.4375 497.765625 199.265625 496.363281 200.207031 L 141.191406 437.050781 L 115.65625 399.1875 L 502.96875 141.035156 C 503.894531 140.421875 504.855469 139.878906 505.859375 139.40625 C 506.863281 138.929688 507.898438 138.535156 508.960938 138.214844 C 510.023438 137.890625 511.101562 137.648438 512.199219 137.488281 C 513.296875 137.324219 514.402344 137.246094 515.511719 137.246094 C 516.621094 137.246094 517.726562 137.324219 518.824219 137.488281 C 519.921875 137.648438 521 137.890625 522.0625 138.214844 C 523.125 138.535156 524.160156 138.929688 525.164062 139.40625 C 526.167969 139.878906 527.132812 140.421875 528.054688 141.035156 L 915.09375 399.1875 Z M 889.730469 437.050781 "/></g></g></svg>