<svg xmlns="http://www.w3.org/2000/svg" xmlns:xlink="http://www.w3.org/1999/xlink" width="1366" zoomAndPan="magnify" viewBox="0 0 1024.5 1024.500009" height="1366" preserveAspectRatio="xMidYMid meet" version="1.2"><defs><clipPath id="391fa33210"><path d="M 46 68 L 984 68 L 984 963.023438 L 46 963.023438 Z M 46 68 "/></clipPath></defs><g id="b00bf3de78"><g clip-rule="nonzero" clip-path="url(#391fa33210)"><path style=" stroke:none;fill-rule:nonzero;fill:#000000;fill-opacity:1;" d="M 982.574219 385.28125 C 981.699219 380.851562 980.398438 376.546875 978.671875 372.375 C 976.941406 368.203125 974.824219 364.242188 972.308594 360.488281 C 969.796875 356.738281 966.9375 353.269531 963.738281 350.085938 C 960.535156 346.898438 957.054688 344.0625 953.289062 341.566406 L 566.21875 83.414062 C 564.355469 82.167969 562.449219 80.992188 560.496094 79.886719 C 558.546875 78.78125 556.558594 77.746094 554.53125 76.789062 C 552.503906 75.828125 550.445312 74.945312 548.355469 74.140625 C 546.261719 73.332031 544.144531 72.601562 542 71.949219 C 539.855469 71.300781 537.6875 70.726562 535.5 70.238281 C 533.3125 69.746094 531.109375 69.335938 528.890625 69.003906 C 526.675781 68.675781 524.449219 68.429688 522.210938 68.265625 C 519.976562 68.097656 517.738281 68.015625 515.496094 68.015625 C 513.253906 68.015625 511.011719 68.097656 508.777344 68.265625 C 506.542969 68.429688 504.316406 68.675781 502.097656 69.003906 C 499.878906 69.335938 497.675781 69.746094 495.488281 70.238281 C 493.300781 70.726562 491.136719 71.300781 488.992188 71.949219 C 486.84375 72.601562 484.726562 73.332031 482.632812 74.140625 C 480.542969 74.945312 478.484375 75.828125 476.457031 76.789062 C 474.429688 77.746094 472.441406 78.78125 470.492188 79.886719 C 468.542969 80.992188 466.632812 82.167969 464.769531 83.414062 L 77.457031 341.667969 C 76.523438 342.296875 75.605469 342.945312 74.703125 343.617188 C 73.800781 344.289062 72.917969 344.984375 72.050781 345.699219 C 71.183594 346.414062 70.332031 347.148438 69.5 347.90625 C 68.667969 348.664062 67.855469 349.441406 67.0625 350.238281 C 66.265625 351.03125 65.492188 351.847656 64.738281 352.683594 C 63.984375 353.519531 63.253906 354.371094 62.539062 355.242188 C 61.828125 356.113281 61.136719 357 60.46875 357.902344 C 59.800781 358.808594 59.15625 359.730469 58.53125 360.664062 C 57.910156 361.601562 57.308594 362.550781 56.730469 363.515625 C 56.15625 364.484375 55.601562 365.460938 55.074219 366.453125 C 54.542969 367.449219 54.039062 368.453125 53.558594 369.46875 C 53.082031 370.488281 52.625 371.515625 52.195312 372.554688 C 51.765625 373.59375 51.363281 374.644531 50.984375 375.703125 C 50.609375 376.761719 50.257812 377.832031 49.929688 378.90625 C 49.605469 379.984375 49.304688 381.070312 49.035156 382.160156 C 48.761719 383.25 48.515625 384.347656 48.296875 385.453125 C 48.078125 386.554688 47.886719 387.664062 47.722656 388.777344 C 47.558594 389.890625 47.421875 391.003906 47.3125 392.125 C 47.203125 393.242188 47.121094 394.367188 47.066406 395.488281 C 47.011719 396.613281 46.984375 397.738281 46.984375 398.863281 C 46.984375 399.988281 47.015625 401.109375 47.070312 402.234375 C 47.125 403.355469 47.207031 404.480469 47.320312 405.597656 C 47.429688 406.71875 47.566406 407.832031 47.734375 408.945312 C 47.898438 410.058594 48.089844 411.167969 48.308594 412.269531 C 48.53125 413.371094 48.777344 414.46875 49.050781 415.5625 C 49.324219 416.652344 49.621094 417.734375 49.949219 418.8125 C 50.273438 419.890625 50.628906 420.957031 51.007812 422.015625 C 51.386719 423.074219 51.789062 424.125 52.21875 425.164062 C 52.648438 426.203125 53.105469 427.230469 53.585938 428.246094 C 54.066406 429.265625 54.570312 430.269531 55.101562 431.261719 C 55.632812 432.253906 56.183594 433.230469 56.761719 434.195312 C 57.339844 435.164062 57.941406 436.113281 58.566406 437.046875 L 83.925781 475.082031 C 86.421875 478.851562 89.257812 482.34375 92.445312 485.550781 C 95.628906 488.753906 99.101562 491.617188 102.855469 494.136719 C 106.609375 496.652344 110.574219 498.773438 114.75 500.503906 C 118.925781 502.234375 123.230469 503.535156 127.664062 504.410156 C 130.734375 504.886719 133.820312 505.164062 136.921875 505.234375 L 136.921875 859.761719 C 136.921875 861.453125 136.964844 863.140625 137.046875 864.828125 C 137.128906 866.515625 137.253906 868.203125 137.421875 869.882812 C 137.585938 871.566406 137.792969 873.242188 138.039062 874.914062 C 138.289062 876.585938 138.578125 878.25 138.90625 879.90625 C 139.234375 881.566406 139.605469 883.214844 140.015625 884.851562 C 140.425781 886.492188 140.878906 888.121094 141.367188 889.738281 C 141.859375 891.355469 142.386719 892.960938 142.957031 894.550781 C 143.527344 896.140625 144.136719 897.71875 144.78125 899.277344 C 145.429688 900.839844 146.113281 902.382812 146.835938 903.914062 C 147.558594 905.441406 148.316406 906.949219 149.113281 908.4375 C 149.910156 909.929688 150.742188 911.398438 151.609375 912.847656 C 152.480469 914.296875 153.382812 915.726562 154.320312 917.132812 C 155.261719 918.535156 156.234375 919.917969 157.238281 921.273438 C 158.246094 922.632812 159.285156 923.964844 160.355469 925.269531 C 161.429688 926.578125 162.53125 927.855469 163.667969 929.109375 C 164.800781 930.359375 165.964844 931.582031 167.160156 932.777344 C 168.355469 933.972656 169.578125 935.140625 170.832031 936.273438 C 172.082031 937.410156 173.359375 938.511719 174.667969 939.585938 C 175.972656 940.65625 177.304688 941.695312 178.660156 942.703125 C 180.019531 943.710938 181.398438 944.683594 182.804688 945.621094 C 184.210938 946.558594 185.636719 947.464844 187.085938 948.332031 C 188.535156 949.199219 190.003906 950.035156 191.496094 950.832031 C 192.984375 951.628906 194.492188 952.386719 196.019531 953.109375 C 197.546875 953.832031 199.09375 954.515625 200.652344 955.164062 C 202.214844 955.808594 203.789062 956.417969 205.378906 956.988281 C 206.972656 957.554688 208.574219 958.085938 210.191406 958.578125 C 211.808594 959.066406 213.4375 959.519531 215.074219 959.929688 C 216.714844 960.339844 218.363281 960.710938 220.019531 961.039062 C 221.675781 961.367188 223.339844 961.65625 225.011719 961.90625 C 226.683594 962.152344 228.359375 962.359375 230.042969 962.527344 C 231.722656 962.691406 233.40625 962.816406 235.09375 962.898438 C 236.78125 962.980469 238.472656 963.023438 240.160156 963.023438 L 412.222656 963.023438 C 413.351562 963.023438 414.472656 962.96875 415.597656 962.859375 C 416.71875 962.746094 417.832031 962.582031 418.9375 962.363281 C 420.042969 962.140625 421.132812 961.867188 422.210938 961.542969 C 423.289062 961.214844 424.351562 960.835938 425.390625 960.402344 C 426.433594 959.972656 427.449219 959.492188 428.445312 958.960938 C 429.4375 958.425781 430.402344 957.847656 431.339844 957.222656 C 432.277344 956.597656 433.183594 955.925781 434.054688 955.210938 C 434.925781 954.496094 435.757812 953.738281 436.554688 952.941406 C 437.351562 952.144531 438.109375 951.308594 438.824219 950.4375 C 439.539062 949.566406 440.210938 948.664062 440.835938 947.726562 C 441.460938 946.789062 442.039062 945.824219 442.570312 944.828125 C 443.101562 943.835938 443.585938 942.816406 444.015625 941.773438 C 444.445312 940.734375 444.828125 939.671875 445.152344 938.59375 C 445.480469 937.515625 445.753906 936.421875 445.972656 935.316406 C 446.195312 934.210938 446.359375 933.097656 446.46875 931.976562 C 446.578125 930.855469 446.636719 929.730469 446.636719 928.601562 L 446.636719 653.242188 L 584.285156 653.242188 L 584.285156 928.601562 C 584.285156 929.730469 584.339844 930.855469 584.449219 931.976562 C 584.5625 933.097656 584.726562 934.210938 584.945312 935.316406 C 585.167969 936.425781 585.441406 937.515625 585.765625 938.59375 C 586.09375 939.671875 586.472656 940.734375 586.90625 941.773438 C 587.335938 942.816406 587.816406 943.835938 588.347656 944.828125 C 588.878906 945.824219 589.457031 946.789062 590.085938 947.726562 C 590.710938 948.664062 591.382812 949.566406 592.097656 950.4375 C 592.8125 951.308594 593.566406 952.144531 594.363281 952.941406 C 595.160156 953.738281 595.996094 954.496094 596.867188 955.210938 C 597.738281 955.925781 598.640625 956.597656 599.578125 957.222656 C 600.515625 957.847656 601.480469 958.425781 602.476562 958.960938 C 603.46875 959.492188 604.488281 959.972656 605.527344 960.402344 C 606.570312 960.835938 607.628906 961.214844 608.707031 961.542969 C 609.785156 961.867188 610.878906 962.140625 611.984375 962.363281 C 613.089844 962.582031 614.203125 962.746094 615.324219 962.859375 C 616.445312 962.96875 617.570312 963.023438 618.699219 963.023438 L 790.761719 963.023438 C 792.449219 963.023438 794.136719 962.980469 795.824219 962.898438 C 797.511719 962.816406 799.199219 962.691406 800.878906 962.527344 C 802.5625 962.359375 804.238281 962.152344 805.910156 961.90625 C 807.578125 961.65625 809.242188 961.367188 810.902344 961.039062 C 812.558594 960.710938 814.207031 960.339844 815.84375 959.929688 C 817.484375 959.519531 819.113281 959.066406 820.726562 958.578125 C 822.34375 958.085938 823.949219 957.554688 825.539062 956.988281 C 827.128906 956.417969 828.707031 955.808594 830.265625 955.164062 C 831.828125 954.515625 833.371094 953.832031 834.898438 953.109375 C 836.425781 952.386719 837.9375 951.628906 839.425781 950.832031 C 840.914062 950.035156 842.386719 949.199219 843.835938 948.332031 C 845.285156 947.464844 846.710938 946.558594 848.117188 945.621094 C 849.519531 944.683594 850.902344 943.710938 852.257812 942.703125 C 853.617188 941.695312 854.945312 940.65625 856.253906 939.585938 C 857.558594 938.511719 858.839844 937.410156 860.089844 936.273438 C 861.34375 935.140625 862.566406 933.972656 863.761719 932.777344 C 864.953125 931.582031 866.121094 930.359375 867.253906 929.109375 C 868.390625 927.855469 869.492188 926.578125 870.5625 925.269531 C 871.636719 923.964844 872.675781 922.632812 873.679688 921.273438 C 874.6875 919.917969 875.660156 918.535156 876.597656 917.132812 C 877.539062 915.726562 878.441406 914.296875 879.308594 912.847656 C 880.179688 911.398438 881.011719 909.929688 881.808594 908.4375 C 882.605469 906.949219 883.363281 905.441406 884.085938 903.914062 C 884.808594 902.382812 885.492188 900.839844 886.140625 899.277344 C 886.785156 897.71875 887.394531 896.140625 887.960938 894.550781 C 888.53125 892.960938 889.0625 891.355469 889.550781 889.738281 C 890.042969 888.121094 890.492188 886.492188 890.902344 884.851562 C 891.3125 883.214844 891.683594 881.566406 892.015625 879.90625 C 892.34375 878.25 892.632812 876.585938 892.878906 874.914062 C 893.128906 873.242188 893.335938 871.566406 893.5 869.882812 C 893.667969 868.203125 893.789062 866.515625 893.875 864.828125 C 893.957031 863.140625 893.996094 861.453125 893.996094 859.761719 L 893.996094 505.234375 C 897.105469 505.128906 900.191406 504.820312 903.253906 504.304688 C 907.6875 503.429688 911.996094 502.128906 916.171875 500.402344 C 920.347656 498.671875 924.3125 496.550781 928.066406 494.03125 C 931.820312 491.515625 935.289062 488.652344 938.476562 485.445312 C 941.660156 482.238281 944.5 478.75 946.992188 474.980469 L 972.355469 436.945312 C 974.871094 433.191406 976.996094 429.226562 978.730469 425.050781 C 980.460938 420.875 981.765625 416.570312 982.640625 412.136719 C 983.519531 407.703125 983.953125 403.226562 983.941406 398.707031 C 983.929688 394.183594 983.476562 389.710938 982.574219 385.28125 Z M 790.761719 894.183594 L 653.109375 894.183594 L 653.109375 618.820312 C 653.109375 617.695312 653.054688 616.570312 652.945312 615.449219 C 652.835938 614.324219 652.667969 613.210938 652.449219 612.105469 C 652.230469 611 651.957031 609.910156 651.628906 608.828125 C 651.300781 607.75 650.921875 606.691406 650.492188 605.648438 C 650.058594 604.609375 649.578125 603.589844 649.046875 602.59375 C 648.515625 601.601562 647.9375 600.636719 647.3125 599.699219 C 646.683594 598.761719 646.015625 597.855469 645.300781 596.984375 C 644.585938 596.113281 643.828125 595.28125 643.03125 594.480469 C 642.234375 593.683594 641.398438 592.929688 640.527344 592.214844 C 639.65625 591.5 638.753906 590.828125 637.816406 590.203125 C 636.878906 589.574219 635.914062 588.996094 634.917969 588.464844 C 633.925781 587.933594 632.90625 587.453125 631.867188 587.019531 C 630.824219 586.589844 629.765625 586.210938 628.6875 585.882812 C 627.609375 585.554688 626.515625 585.28125 625.410156 585.0625 C 624.304688 584.84375 623.191406 584.675781 622.070312 584.566406 C 620.949219 584.457031 619.824219 584.402344 618.699219 584.402344 L 412.222656 584.402344 C 411.097656 584.402344 409.972656 584.457031 408.851562 584.566406 C 407.726562 584.675781 406.613281 584.84375 405.507812 585.0625 C 404.402344 585.28125 403.3125 585.554688 402.234375 585.882812 C 401.15625 586.210938 400.09375 586.589844 399.054688 587.019531 C 398.011719 587.453125 396.996094 587.933594 396 588.464844 C 395.007812 588.996094 394.042969 589.574219 393.105469 590.203125 C 392.167969 590.828125 391.261719 591.5 390.390625 592.214844 C 389.519531 592.929688 388.6875 593.683594 387.890625 594.480469 C 387.09375 595.28125 386.335938 596.113281 385.621094 596.984375 C 384.90625 597.855469 384.234375 598.761719 383.609375 599.699219 C 382.984375 600.636719 382.40625 601.601562 381.875 602.59375 C 381.34375 603.589844 380.859375 604.609375 380.429688 605.648438 C 380 606.691406 379.621094 607.75 379.292969 608.828125 C 378.964844 609.910156 378.691406 611 378.472656 612.105469 C 378.25 613.210938 378.085938 614.324219 377.976562 615.449219 C 377.867188 616.570312 377.808594 617.695312 377.808594 618.820312 L 377.808594 894.183594 L 240.160156 894.183594 C 239.035156 894.183594 237.910156 894.128906 236.789062 894.015625 C 235.664062 893.90625 234.550781 893.742188 233.445312 893.523438 C 232.339844 893.300781 231.25 893.027344 230.171875 892.699219 C 229.09375 892.375 228.03125 891.996094 226.992188 891.5625 C 225.949219 891.132812 224.933594 890.648438 223.9375 890.117188 C 222.945312 889.585938 221.980469 889.007812 221.042969 888.382812 C 220.105469 887.753906 219.199219 887.085938 218.328125 886.371094 C 217.457031 885.65625 216.625 884.898438 215.828125 884.101562 C 215.03125 883.304688 214.273438 882.46875 213.558594 881.597656 C 212.84375 880.726562 212.171875 879.824219 211.546875 878.886719 C 210.921875 877.949219 210.34375 876.980469 209.8125 875.988281 C 209.28125 874.992188 208.796875 873.976562 208.367188 872.933594 C 207.9375 871.894531 207.558594 870.832031 207.230469 869.753906 C 206.902344 868.675781 206.628906 867.582031 206.410156 866.476562 C 206.1875 865.371094 206.023438 864.257812 205.914062 863.136719 C 205.804688 862.015625 205.746094 860.890625 205.746094 859.761719 L 205.746094 476.597656 L 515.460938 270.074219 L 825.171875 476.597656 L 825.171875 859.761719 C 825.171875 860.890625 825.117188 862.015625 825.007812 863.136719 C 824.898438 864.257812 824.730469 865.371094 824.511719 866.476562 C 824.292969 867.582031 824.019531 868.675781 823.691406 869.753906 C 823.363281 870.832031 822.984375 871.894531 822.554688 872.933594 C 822.121094 873.976562 821.640625 874.992188 821.109375 875.988281 C 820.578125 876.984375 820 877.949219 819.375 878.886719 C 818.746094 879.824219 818.078125 880.726562 817.363281 881.597656 C 816.648438 882.46875 815.890625 883.304688 815.09375 884.101562 C 814.296875 884.898438 813.460938 885.65625 812.589844 886.371094 C 811.71875 887.085938 810.816406 887.753906 809.878906 888.382812 C 808.941406 889.007812 807.976562 889.585938 806.980469 890.117188 C 805.988281 890.648438 804.96875 891.132812 803.929688 891.5625 C 802.886719 891.996094 801.828125 892.375 800.75 892.699219 C 799.671875 893.027344 798.578125 893.300781 797.472656 893.523438 C 796.367188 893.742188 795.253906 893.90625 794.132812 894.015625 C 793.011719 894.128906 791.886719 894.183594 790.761719 894.183594 Z M 889.730469 436.910156 L 534.558594 200.066406 C 533.152344 199.125 531.6875 198.296875 530.15625 197.574219 C 528.628906 196.851562 527.054688 196.246094 525.4375 195.753906 C 523.820312 195.265625 522.175781 194.894531 520.503906 194.648438 C 518.832031 194.402344 517.152344 194.277344 515.460938 194.277344 C 513.769531 194.277344 512.089844 194.402344 510.417969 194.648438 C 508.746094 194.894531 507.101562 195.265625 505.480469 195.753906 C 503.863281 196.246094 502.292969 196.851562 500.761719 197.574219 C 499.234375 198.296875 497.765625 199.125 496.363281 200.066406 L 141.191406 436.910156 L 115.65625 399.046875 L 502.96875 140.894531 C 503.894531 140.28125 504.855469 139.738281 505.859375 139.265625 C 506.863281 138.792969 507.898438 138.394531 508.960938 138.074219 C 510.023438 137.75 511.101562 137.511719 512.199219 137.347656 C 513.296875 137.183594 514.402344 137.105469 515.511719 137.105469 C 516.621094 137.105469 517.726562 137.183594 518.824219 137.347656 C 519.921875 137.511719 521 137.75 522.0625 138.074219 C 523.125 138.394531 524.160156 138.792969 525.164062 139.265625 C 526.167969 139.738281 527.132812 140.28125 528.054688 140.894531 L 915.09375 399.046875 Z M 889.730469 436.910156 "/></g></g></svg>