<svg xmlns="http://www.w3.org/2000/svg" xmlns:xlink="http://www.w3.org/1999/xlink" width="1366" zoomAndPan="magnify" viewBox="0 0 1024.5 1024.500009" height="1366" preserveAspectRatio="xMidYMid meet" version="1.2"><defs><clipPath id="4403860cee"><path d="M 0 156.585938 L 1024 156.585938 L 1024 921.964844 L 0 921.964844 Z M 0 156.585938 "/></clipPath></defs><g id="f10a1b4873"><g clip-rule="nonzero" clip-path="url(#4403860cee)"><path style=" stroke:none;fill-rule:nonzero;fill:#000000;fill-opacity:1;" d="M 1023.925781 335.863281 L 513.371094 156.601562 L 2.820312 335.863281 L 63.589844 357.203125 L 63.589844 618.6875 C 26.722656 631.253906 0.121094 666.214844 0.121094 707.296875 C 0.121094 748.378906 26.722656 783.339844 63.589844 795.90625 L 63.589844 921.992188 L 123.765625 921.992188 L 123.765625 795.90625 C 160.632812 783.339844 187.238281 748.378906 187.238281 707.296875 C 187.238281 666.214844 160.632812 631.253906 123.765625 618.6875 L 123.765625 378.328125 L 176.34375 396.789062 L 176.34375 589.414062 L 211.71875 608 C 305.332031 657.1875 409.640625 683.183594 513.375 683.183594 C 617.105469 683.183594 721.417969 657.183594 815.03125 608 L 850.40625 589.410156 L 850.40625 396.789062 Z M 93.679688 740.695312 C 75.269531 740.695312 60.292969 725.714844 60.292969 707.296875 C 60.292969 688.878906 75.269531 673.894531 93.679688 673.894531 C 112.085938 673.894531 127.0625 688.878906 127.0625 707.296875 C 127.0625 725.714844 112.085938 740.695312 93.679688 740.695312 Z M 513.371094 220.40625 L 842.210938 335.863281 L 513.371094 451.324219 L 184.535156 335.863281 Z M 790.230469 553.03125 L 787.050781 554.699219 C 613.125 646.085938 413.621094 646.085938 239.695312 554.699219 L 236.515625 553.03125 L 236.515625 417.917969 L 513.371094 515.125 L 790.230469 417.917969 Z M 790.230469 553.03125 "/></g></g></svg>