<svg xmlns="http://www.w3.org/2000/svg" xmlns:xlink="http://www.w3.org/1999/xlink" width="1366" zoomAndPan="magnify" viewBox="0 0 1024.5 576" height="1366" preserveAspectRatio="xMidYMid meet" version="1.2"><defs><clipPath id="13802dd577"><path d="M 0 156.726562 L 1024 156.726562 L 1024 575.859375 L 0 575.859375 Z M 0 156.726562 "/></clipPath></defs><g id="4d8c90b3d1"><g clip-rule="nonzero" clip-path="url(#13802dd577)"><path style=" stroke:none;fill-rule:nonzero;fill:#000000;fill-opacity:1;" d="M 1023.925781 336.003906 L 513.371094 156.742188 L 2.820312 336.003906 L 63.589844 357.34375 L 63.589844 618.828125 C 26.722656 631.394531 0.121094 666.355469 0.121094 707.4375 C 0.121094 748.519531 26.722656 783.480469 63.589844 796.046875 L 63.589844 922.132812 L 123.765625 922.132812 L 123.765625 796.046875 C 160.632812 783.480469 187.238281 748.519531 187.238281 707.4375 C 187.238281 666.355469 160.632812 631.394531 123.765625 618.828125 L 123.765625 378.46875 L 176.34375 396.929688 L 176.34375 589.554688 L 211.71875 608.140625 C 305.332031 657.328125 409.640625 683.324219 513.375 683.324219 C 617.105469 683.324219 721.417969 657.324219 815.03125 608.140625 L 850.40625 589.550781 L 850.40625 396.929688 Z M 93.679688 740.835938 C 75.269531 740.835938 60.292969 725.855469 60.292969 707.4375 C 60.292969 689.019531 75.269531 674.035156 93.679688 674.035156 C 112.085938 674.035156 127.0625 689.019531 127.0625 707.4375 C 127.0625 725.855469 112.085938 740.835938 93.679688 740.835938 Z M 513.371094 220.546875 L 842.210938 336.003906 L 513.371094 451.464844 L 184.535156 336.003906 Z M 790.230469 553.171875 L 787.050781 554.839844 C 613.125 646.226562 413.621094 646.226562 239.695312 554.839844 L 236.515625 553.171875 L 236.515625 418.058594 L 513.371094 515.265625 L 790.230469 418.058594 Z M 790.230469 553.171875 "/></g></g></svg>