<svg xmlns="http://www.w3.org/2000/svg" xmlns:xlink="http://www.w3.org/1999/xlink" width="1366" zoomAndPan="magnify" viewBox="0 0 1024.5 1024.500009" height="1366" preserveAspectRatio="xMidYMid meet" version="1.2"><g id="391d2a0951"><path style=" stroke:none;fill-rule:nonzero;fill:#000000;fill-opacity:1;" d="M 112.019531 637.285156 L 131.070312 805.671875 C 131.328125 808.121094 131.839844 810.535156 132.609375 812.878906 C 147.675781 859.199219 190.792969 888.691406 237.019531 888.691406 C 248.285156 888.691406 259.65625 886.933594 270.921875 883.277344 C 328.410156 864.542969 360.007812 802.488281 341.285156 744.933594 L 310.929688 651.59375 L 320.476562 651.59375 L 605.332031 794.109375 C 610.523438 796.667969 616.082031 797.949219 621.679688 797.949219 C 628.371094 797.949219 635.027344 796.121094 640.878906 792.5 C 651.703125 785.839844 658.285156 774.058594 658.285156 761.359375 L 658.285156 609.808594 C 721.226562 593.453125 768 536.628906 768 468.644531 C 768 400.664062 721.226562 343.839844 658.285156 327.484375 L 658.285156 175.933594 C 658.285156 163.234375 651.703125 151.492188 640.914062 144.792969 C 630.125 138.097656 616.667969 137.511719 605.332031 143.183594 L 320.511719 285.699219 L 182.855469 285.699219 C 82.03125 285.699219 0 367.769531 0 468.644531 C 0 544.421875 46.261719 609.550781 112.019531 637.285156 Z M 271.726562 767.582031 C 277.980469 786.753906 267.484375 807.425781 248.285156 813.683594 C 230.035156 819.648438 210.542969 810.425781 203.265625 793.121094 L 187.210938 651.59375 L 233.984375 651.59375 Z M 694.855469 468.644531 C 694.855469 495.613281 680.046875 518.957031 658.285156 531.652344 L 658.285156 405.675781 C 680.046875 418.335938 694.855469 441.679688 694.855469 468.644531 Z M 585.144531 702.160156 L 365.714844 592.390625 L 365.714844 344.902344 L 585.144531 235.132812 Z M 182.855469 358.878906 L 292.570312 358.878906 L 292.570312 578.414062 L 182.855469 578.414062 C 122.367188 578.414062 73.144531 529.164062 73.144531 468.644531 C 73.144531 408.128906 122.367188 358.878906 182.855469 358.878906 Z M 182.855469 358.878906 "/><path style=" stroke:none;fill-rule:nonzero;fill:#000000;fill-opacity:1;" d="M 914.285156 505.234375 L 987.429688 505.234375 C 1007.652344 505.234375 1024 488.84375 1024 468.644531 C 1024 448.449219 1007.652344 432.058594 987.429688 432.058594 L 914.285156 432.058594 C 894.0625 432.058594 877.714844 448.449219 877.714844 468.644531 C 877.714844 488.84375 894.0625 505.234375 914.285156 505.234375 Z M 914.285156 505.234375 "/><path style=" stroke:none;fill-rule:nonzero;fill:#000000;fill-opacity:1;" d="M 914.285156 311.570312 C 923.648438 311.570312 933.011719 307.984375 940.140625 300.847656 L 991.855469 249.109375 C 1006.152344 234.804688 1006.152344 211.679688 991.855469 197.375 C 977.554688 183.066406 954.441406 183.066406 940.140625 197.375 L 888.429688 249.109375 C 874.128906 263.417969 874.128906 286.542969 888.429688 300.847656 C 895.5625 308.019531 904.921875 311.570312 914.285156 311.570312 Z M 914.285156 311.570312 "/><path style=" stroke:none;fill-rule:nonzero;fill:#000000;fill-opacity:1;" d="M 940.140625 739.917969 C 947.273438 747.054688 956.636719 750.640625 965.996094 750.640625 C 975.359375 750.640625 984.722656 747.054688 991.855469 739.917969 C 1006.152344 725.613281 1006.152344 702.488281 991.855469 688.183594 L 940.140625 636.445312 C 925.84375 622.136719 902.730469 622.136719 888.429688 636.445312 C 874.128906 650.75 874.128906 673.875 888.429688 688.183594 Z M 940.140625 739.917969 "/></g></svg>