<svg xmlns="http://www.w3.org/2000/svg" xmlns:xlink="http://www.w3.org/1999/xlink" width="1366" zoomAndPan="magnify" viewBox="0 0 1024.5 576" height="1366" preserveAspectRatio="xMidYMid meet" version="1.2"><defs><clipPath id="dab1fcc852"><path d="M 0 139 L 768 139 L 768 575.859375 L 0 575.859375 Z M 0 139 "/></clipPath></defs><g id="619b525163"><g clip-rule="nonzero" clip-path="url(#dab1fcc852)"><path style=" stroke:none;fill-rule:nonzero;fill:#000000;fill-opacity:1;" d="M 112.019531 637.425781 L 131.070312 805.8125 C 131.328125 808.261719 131.839844 810.675781 132.609375 813.019531 C 147.675781 859.339844 190.792969 888.832031 237.019531 888.832031 C 248.285156 888.832031 259.65625 887.074219 270.921875 883.417969 C 328.410156 864.683594 360.007812 802.628906 341.285156 745.074219 L 310.929688 651.734375 L 320.476562 651.734375 L 605.332031 794.25 C 610.523438 796.808594 616.082031 798.089844 621.679688 798.089844 C 628.371094 798.089844 635.027344 796.261719 640.878906 792.636719 C 651.703125 785.980469 658.285156 774.199219 658.285156 761.5 L 658.285156 609.949219 C 721.226562 593.59375 768 536.769531 768 468.785156 C 768 400.804688 721.226562 343.980469 658.285156 327.625 L 658.285156 176.074219 C 658.285156 163.375 651.703125 151.632812 640.914062 144.933594 C 630.125 138.238281 616.667969 137.652344 605.332031 143.324219 L 320.511719 285.839844 L 182.855469 285.839844 C 82.03125 285.839844 0 367.910156 0 468.785156 C 0 544.5625 46.261719 609.691406 112.019531 637.425781 Z M 271.726562 767.722656 C 277.980469 786.894531 267.484375 807.566406 248.285156 813.824219 C 230.035156 819.789062 210.542969 810.566406 203.265625 793.261719 L 187.210938 651.734375 L 233.984375 651.734375 Z M 694.855469 468.785156 C 694.855469 495.753906 680.046875 519.097656 658.285156 531.792969 L 658.285156 405.816406 C 680.046875 418.476562 694.855469 441.820312 694.855469 468.785156 Z M 585.144531 702.300781 L 365.714844 592.53125 L 365.714844 345.042969 L 585.144531 235.273438 Z M 182.855469 359.019531 L 292.570312 359.019531 L 292.570312 578.554688 L 182.855469 578.554688 C 122.367188 578.554688 73.144531 529.304688 73.144531 468.785156 C 73.144531 408.269531 122.367188 359.019531 182.855469 359.019531 Z M 182.855469 359.019531 "/></g><path style=" stroke:none;fill-rule:nonzero;fill:#000000;fill-opacity:1;" d="M 914.285156 505.375 L 987.429688 505.375 C 1007.652344 505.375 1024 488.984375 1024 468.785156 C 1024 448.589844 1007.652344 432.199219 987.429688 432.199219 L 914.285156 432.199219 C 894.0625 432.199219 877.714844 448.589844 877.714844 468.785156 C 877.714844 488.984375 894.0625 505.375 914.285156 505.375 Z M 914.285156 505.375 "/><path style=" stroke:none;fill-rule:nonzero;fill:#000000;fill-opacity:1;" d="M 914.285156 311.710938 C 923.648438 311.710938 933.011719 308.125 940.140625 300.988281 L 991.855469 249.25 C 1006.152344 234.945312 1006.152344 211.820312 991.855469 197.515625 C 977.554688 183.207031 954.441406 183.207031 940.140625 197.515625 L 888.429688 249.25 C 874.128906 263.558594 874.128906 286.683594 888.429688 300.988281 C 895.5625 308.160156 904.921875 311.710938 914.285156 311.710938 Z M 914.285156 311.710938 "/></g></svg>