<svg xmlns="http://www.w3.org/2000/svg" xmlns:xlink="http://www.w3.org/1999/xlink" width="1366" zoomAndPan="magnify" viewBox="0 0 1024.5 576" height="1366" preserveAspectRatio="xMidYMid meet" version="1.2"><defs><clipPath id="5c884f3646"><path d="M 17.167969 73.101562 L 1006.683594 73.101562 L 1006.683594 575.859375 L 17.167969 575.859375 Z M 17.167969 73.101562 "/></clipPath><clipPath id="b28a34401a"><path d="M 193 426 L 477 426 L 477 575.859375 L 193 575.859375 Z M 193 426 "/></clipPath><clipPath id="e44dbbb783"><path d="M 547 426 L 831 426 L 831 575.859375 L 547 575.859375 Z M 547 426 "/></clipPath></defs><g id="94eb5a0b49"><g clip-rule="nonzero" clip-path="url(#5c884f3646)"><path style=" stroke:none;fill-rule:nonzero;fill:#000000;fill-opacity:1;" d="M 900.664062 73.277344 L 123.1875 73.277344 C 121.449219 73.277344 119.714844 73.320312 117.984375 73.40625 C 116.25 73.492188 114.519531 73.617188 112.792969 73.789062 C 111.066406 73.957031 109.347656 74.171875 107.628906 74.425781 C 105.914062 74.679688 104.203125 74.976562 102.503906 75.316406 C 100.800781 75.652344 99.109375 76.035156 97.425781 76.457031 C 95.742188 76.878906 94.070312 77.339844 92.410156 77.84375 C 90.75 78.347656 89.101562 78.890625 87.46875 79.476562 C 85.835938 80.058594 84.21875 80.683594 82.613281 81.347656 C 81.011719 82.011719 79.425781 82.714844 77.855469 83.457031 C 76.289062 84.199219 74.738281 84.980469 73.207031 85.796875 C 71.679688 86.617188 70.167969 87.46875 68.679688 88.363281 C 67.191406 89.253906 65.726562 90.183594 64.285156 91.148438 C 62.84375 92.109375 61.421875 93.109375 60.03125 94.144531 C 58.636719 95.175781 57.269531 96.246094 55.925781 97.34375 C 54.585938 98.445312 53.273438 99.578125 51.988281 100.746094 C 50.703125 101.910156 49.445312 103.105469 48.21875 104.332031 C 46.992188 105.558594 45.796875 106.816406 44.628906 108.101562 C 43.464844 109.386719 42.332031 110.703125 41.230469 112.042969 C 40.128906 113.382812 39.0625 114.75 38.03125 116.144531 C 36.996094 117.539062 35.996094 118.957031 35.035156 120.398438 C 34.070312 121.84375 33.140625 123.308594 32.25 124.796875 C 31.359375 126.285156 30.503906 127.792969 29.683594 129.324219 C 28.867188 130.855469 28.085938 132.40625 27.34375 133.972656 C 26.601562 135.542969 25.902344 137.128906 25.238281 138.730469 C 24.574219 140.335938 23.949219 141.953125 23.363281 143.585938 C 22.777344 145.21875 22.234375 146.867188 21.730469 148.527344 C 21.226562 150.1875 20.765625 151.859375 20.34375 153.542969 C 19.921875 155.226562 19.542969 156.917969 19.203125 158.621094 C 18.863281 160.324219 18.566406 162.03125 18.3125 163.75 C 18.058594 165.464844 17.847656 167.1875 17.675781 168.914062 C 17.507812 170.640625 17.378906 172.371094 17.292969 174.105469 C 17.207031 175.835938 17.167969 177.570312 17.167969 179.308594 L 17.167969 815.480469 C 17.167969 817.214844 17.207031 818.949219 17.292969 820.683594 C 17.378906 822.414062 17.507812 824.144531 17.675781 825.871094 C 17.847656 827.601562 18.058594 829.320312 18.3125 831.039062 C 18.566406 832.753906 18.863281 834.464844 19.203125 836.164062 C 19.542969 837.867188 19.921875 839.558594 20.34375 841.242188 C 20.765625 842.925781 21.226562 844.597656 21.730469 846.257812 C 22.234375 847.917969 22.777344 849.566406 23.363281 851.199219 C 23.949219 852.832031 24.574219 854.453125 25.238281 856.054688 C 25.902344 857.660156 26.601562 859.246094 27.34375 860.8125 C 28.085938 862.382812 28.867188 863.929688 29.683594 865.460938 C 30.503906 866.992188 31.359375 868.5 32.25 869.988281 C 33.140625 871.476562 34.070312 872.945312 35.035156 874.386719 C 35.996094 875.828125 36.996094 877.246094 38.03125 878.640625 C 39.0625 880.035156 40.128906 881.402344 41.230469 882.742188 C 42.332031 884.085938 43.464844 885.398438 44.628906 886.683594 C 45.796875 887.96875 46.992188 889.226562 48.21875 890.453125 C 49.445312 891.679688 50.703125 892.875 51.988281 894.042969 C 53.273438 895.207031 54.585938 896.339844 55.925781 897.441406 C 57.269531 898.542969 58.636719 899.609375 60.03125 900.644531 C 61.421875 901.675781 62.84375 902.675781 64.285156 903.640625 C 65.726562 904.605469 67.191406 905.53125 68.679688 906.425781 C 70.167969 907.316406 71.679688 908.171875 73.207031 908.988281 C 74.738281 909.808594 76.289062 910.585938 77.855469 911.328125 C 79.425781 912.070312 81.011719 912.773438 82.613281 913.4375 C 84.21875 914.101562 85.835938 914.726562 87.46875 915.3125 C 89.101562 915.894531 90.75 916.441406 92.410156 916.941406 C 94.070312 917.445312 95.742188 917.910156 97.425781 918.332031 C 99.109375 918.753906 100.800781 919.132812 102.503906 919.472656 C 104.203125 919.808594 105.914062 920.105469 107.628906 920.359375 C 109.347656 920.617188 111.066406 920.828125 112.792969 921 C 114.519531 921.167969 116.25 921.296875 117.984375 921.382812 C 119.714844 921.464844 121.449219 921.507812 123.1875 921.507812 L 900.664062 921.507812 C 902.398438 921.507812 904.132812 921.464844 905.867188 921.382812 C 907.597656 921.296875 909.328125 921.167969 911.054688 921 C 912.78125 920.828125 914.503906 920.617188 916.21875 920.359375 C 917.9375 920.105469 919.644531 919.808594 921.347656 919.472656 C 923.046875 919.132812 924.742188 918.753906 926.425781 918.332031 C 928.105469 917.910156 929.777344 917.445312 931.4375 916.941406 C 933.101562 916.441406 934.746094 915.894531 936.378906 915.3125 C 938.015625 914.726562 939.632812 914.101562 941.234375 913.4375 C 942.839844 912.773438 944.425781 912.070312 945.992188 911.328125 C 947.5625 910.585938 949.109375 909.808594 950.640625 908.988281 C 952.171875 908.171875 953.679688 907.316406 955.167969 906.425781 C 956.65625 905.53125 958.121094 904.605469 959.566406 903.640625 C 961.007812 902.675781 962.425781 901.675781 963.820312 900.644531 C 965.214844 899.609375 966.582031 898.542969 967.921875 897.441406 C 969.261719 896.339844 970.578125 895.207031 971.863281 894.042969 C 973.148438 892.875 974.402344 891.679688 975.628906 890.453125 C 976.859375 889.226562 978.054688 887.96875 979.21875 886.683594 C 980.382812 885.398438 981.515625 884.085938 982.617188 882.742188 C 983.71875 881.402344 984.785156 880.035156 985.820312 878.640625 C 986.851562 877.246094 987.851562 875.828125 988.816406 874.386719 C 989.78125 872.945312 990.707031 871.476562 991.597656 869.988281 C 992.492188 868.5 993.347656 866.992188 994.164062 865.460938 C 994.984375 863.929688 995.761719 862.382812 996.503906 860.8125 C 997.246094 859.246094 997.949219 857.660156 998.613281 856.054688 C 999.277344 854.453125 999.902344 852.832031 1000.484375 851.199219 C 1001.070312 849.566406 1001.613281 847.917969 1002.117188 846.257812 C 1002.621094 844.597656 1003.085938 842.925781 1003.503906 841.242188 C 1003.925781 839.558594 1004.308594 837.867188 1004.644531 836.164062 C 1004.984375 834.464844 1005.28125 832.753906 1005.535156 831.039062 C 1005.789062 829.320312 1006.003906 827.601562 1006.171875 825.871094 C 1006.34375 824.144531 1006.46875 822.414062 1006.554688 820.683594 C 1006.640625 818.949219 1006.683594 817.214844 1006.683594 815.480469 L 1006.683594 179.308594 C 1006.683594 177.570312 1006.640625 175.835938 1006.554688 174.105469 C 1006.46875 172.371094 1006.34375 170.640625 1006.171875 168.914062 C 1006.003906 167.1875 1005.789062 165.464844 1005.535156 163.75 C 1005.28125 162.03125 1004.984375 160.324219 1004.644531 158.621094 C 1004.308594 156.917969 1003.925781 155.226562 1003.503906 153.542969 C 1003.085938 151.859375 1002.621094 150.1875 1002.117188 148.527344 C 1001.613281 146.867188 1001.070312 145.21875 1000.484375 143.585938 C 999.902344 141.953125 999.277344 140.335938 998.613281 138.730469 C 997.949219 137.128906 997.246094 135.542969 996.503906 133.972656 C 995.761719 132.40625 994.980469 130.855469 994.164062 129.324219 C 993.347656 127.792969 992.492188 126.285156 991.597656 124.796875 C 990.707031 123.308594 989.78125 121.84375 988.816406 120.398438 C 987.851562 118.957031 986.851562 117.539062 985.820312 116.144531 C 984.785156 114.75 983.71875 113.382812 982.617188 112.042969 C 981.515625 110.703125 980.382812 109.386719 979.21875 108.101562 C 978.054688 106.816406 976.859375 105.558594 975.628906 104.332031 C 974.402344 103.105469 973.148438 101.910156 971.863281 100.746094 C 970.578125 99.578125 969.261719 98.445312 967.921875 97.34375 C 966.582031 96.246094 965.214844 95.175781 963.820312 94.144531 C 962.425781 93.109375 961.007812 92.109375 959.566406 91.148438 C 958.121094 90.183594 956.65625 89.253906 955.167969 88.363281 C 953.679688 87.46875 952.171875 86.617188 950.640625 85.796875 C 949.109375 84.980469 947.5625 84.199219 945.992188 83.457031 C 944.425781 82.714844 942.839844 82.011719 941.234375 81.347656 C 939.632812 80.683594 938.015625 80.058594 936.378906 79.476562 C 934.746094 78.890625 933.101562 78.347656 931.4375 77.84375 C 929.777344 77.339844 928.105469 76.878906 926.425781 76.457031 C 924.742188 76.035156 923.046875 75.652344 921.347656 75.316406 C 919.644531 74.976562 917.9375 74.679688 916.21875 74.425781 C 914.503906 74.171875 912.78125 73.957031 911.054688 73.789062 C 909.328125 73.617188 907.597656 73.492188 905.867188 73.40625 C 904.132812 73.320312 902.398438 73.277344 900.664062 73.277344 Z M 87.847656 179.308594 C 87.847656 178.148438 87.902344 176.996094 88.015625 175.84375 C 88.128906 174.691406 88.300781 173.546875 88.523438 172.410156 C 88.75 171.277344 89.03125 170.15625 89.367188 169.046875 C 89.703125 167.941406 90.09375 166.851562 90.535156 165.78125 C 90.980469 164.710938 91.472656 163.667969 92.019531 162.644531 C 92.566406 161.625 93.160156 160.632812 93.800781 159.671875 C 94.445312 158.707031 95.132812 157.78125 95.867188 156.886719 C 96.601562 155.992188 97.378906 155.132812 98.195312 154.316406 C 99.015625 153.496094 99.871094 152.71875 100.765625 151.984375 C 101.660156 151.253906 102.589844 150.5625 103.550781 149.921875 C 104.515625 149.277344 105.507812 148.683594 106.527344 148.136719 C 107.546875 147.589844 108.59375 147.097656 109.660156 146.652344 C 110.730469 146.210938 111.820312 145.820312 112.925781 145.484375 C 114.035156 145.148438 115.15625 144.867188 116.292969 144.644531 C 117.425781 144.417969 118.570312 144.246094 119.722656 144.132812 C 120.875 144.019531 122.027344 143.964844 123.1875 143.964844 L 612.996094 143.964844 L 495.316406 285.335938 L 87.847656 285.335938 Z M 936.003906 815.480469 C 936.003906 816.636719 935.945312 817.792969 935.832031 818.945312 C 935.71875 820.097656 935.550781 821.238281 935.324219 822.375 C 935.097656 823.511719 934.816406 824.632812 934.480469 825.738281 C 934.144531 826.847656 933.757812 827.9375 933.3125 829.003906 C 932.871094 830.074219 932.375 831.121094 931.832031 832.140625 C 931.285156 833.160156 930.691406 834.152344 930.046875 835.117188 C 929.40625 836.078125 928.714844 837.007812 927.980469 837.902344 C 927.246094 838.796875 926.472656 839.652344 925.652344 840.472656 C 924.835938 841.289062 923.976562 842.066406 923.082031 842.800781 C 922.1875 843.535156 921.257812 844.222656 920.296875 844.867188 C 919.335938 845.507812 918.34375 846.105469 917.324219 846.648438 C 916.300781 847.195312 915.257812 847.691406 914.1875 848.132812 C 913.117188 848.574219 912.03125 848.964844 910.921875 849.300781 C 909.816406 849.636719 908.691406 849.917969 907.558594 850.144531 C 906.421875 850.371094 905.277344 850.539062 904.128906 850.652344 C 902.976562 850.765625 901.820312 850.824219 900.664062 850.824219 L 123.1875 850.824219 C 122.027344 850.824219 120.875 850.765625 119.722656 850.652344 C 118.570312 850.539062 117.425781 850.371094 116.292969 850.144531 C 115.15625 849.917969 114.035156 849.636719 112.925781 849.300781 C 111.820312 848.964844 110.730469 848.574219 109.660156 848.132812 C 108.59375 847.691406 107.546875 847.195312 106.527344 846.648438 C 105.507812 846.105469 104.515625 845.507812 103.550781 844.867188 C 102.589844 844.222656 101.660156 843.535156 100.765625 842.800781 C 99.871094 842.066406 99.015625 841.289062 98.195312 840.472656 C 97.378906 839.652344 96.601562 838.796875 95.867188 837.902344 C 95.132812 837.007812 94.445312 836.078125 93.800781 835.117188 C 93.160156 834.152344 92.5625 833.160156 92.019531 832.140625 C 91.472656 831.121094 90.980469 830.074219 90.535156 829.003906 C 90.09375 827.9375 89.703125 826.847656 89.367188 825.738281 C 89.03125 824.632812 88.75 823.511719 88.523438 822.375 C 88.300781 821.238281 88.128906 820.097656 88.015625 818.945312 C 87.902344 817.792969 87.847656 816.636719 87.847656 815.480469 L 87.847656 356.023438 L 511.925781 356.023438 C 514.519531 356.027344 517.085938 355.746094 519.621094 355.1875 C 522.15625 354.625 524.597656 353.792969 526.949219 352.695312 C 529.300781 351.597656 531.503906 350.253906 533.5625 348.667969 C 535.617188 347.082031 537.476562 345.292969 539.136719 343.296875 L 705.234375 143.964844 L 900.664062 143.964844 C 901.820312 143.964844 902.976562 144.019531 904.128906 144.132812 C 905.277344 144.246094 906.421875 144.417969 907.558594 144.644531 C 908.691406 144.867188 909.816406 145.148438 910.921875 145.484375 C 912.03125 145.820312 913.117188 146.210938 914.1875 146.652344 C 915.257812 147.097656 916.300781 147.589844 917.324219 148.136719 C 918.34375 148.683594 919.335938 149.277344 920.296875 149.921875 C 921.257812 150.5625 922.1875 151.253906 923.082031 151.984375 C 923.976562 152.71875 924.835938 153.496094 925.652344 154.316406 C 926.472656 155.132812 927.246094 155.992188 927.980469 156.886719 C 928.714844 157.78125 929.40625 158.707031 930.046875 159.671875 C 930.691406 160.632812 931.285156 161.625 931.832031 162.644531 C 932.375 163.667969 932.871094 164.710938 933.3125 165.78125 C 933.757812 166.851562 934.144531 167.941406 934.480469 169.046875 C 934.816406 170.15625 935.097656 171.277344 935.324219 172.410156 C 935.550781 173.546875 935.71875 174.691406 935.832031 175.84375 C 935.945312 176.996094 936.003906 178.148438 936.003906 179.308594 Z M 936.003906 815.480469 "/></g><path style=" stroke:none;fill-rule:nonzero;fill:#000000;fill-opacity:1;" d="M 193.867188 249.992188 C 193.144531 249.988281 192.425781 249.964844 191.707031 249.914062 C 190.988281 249.867188 190.273438 249.800781 189.558594 249.707031 C 188.84375 249.617188 188.132812 249.503906 187.425781 249.367188 C 186.71875 249.234375 186.015625 249.078125 185.316406 248.898438 C 184.621094 248.722656 183.929688 248.523438 183.242188 248.300781 C 182.558594 248.082031 181.878906 247.839844 181.207031 247.578125 C 180.535156 247.320312 179.875 247.035156 179.21875 246.734375 C 178.566406 246.433594 177.921875 246.109375 177.289062 245.769531 C 176.65625 245.429688 176.03125 245.066406 175.417969 244.6875 C 174.808594 244.308594 174.207031 243.910156 173.621094 243.496094 C 173.03125 243.078125 172.457031 242.644531 171.894531 242.195312 C 171.335938 241.742188 170.789062 241.273438 170.253906 240.789062 C 169.722656 240.304688 169.207031 239.804688 168.703125 239.289062 C 168.203125 238.769531 167.714844 238.238281 167.246094 237.695312 C 166.777344 237.148438 166.324219 236.589844 165.890625 236.015625 C 165.453125 235.441406 165.035156 234.855469 164.636719 234.253906 C 164.238281 233.65625 163.855469 233.042969 163.496094 232.421875 C 163.132812 231.800781 162.789062 231.167969 162.464844 230.523438 C 162.144531 229.878906 161.839844 229.226562 161.554688 228.566406 C 161.273438 227.902344 161.007812 227.234375 160.765625 226.554688 C 160.523438 225.875 160.300781 225.191406 160.101562 224.5 C 159.902344 223.808594 159.722656 223.109375 159.5625 222.410156 C 159.40625 221.707031 159.269531 221 159.15625 220.289062 C 159.039062 219.578125 158.945312 218.863281 158.875 218.148438 C 158.804688 217.429688 158.753906 216.710938 158.726562 215.992188 C 158.699219 215.273438 158.695312 214.554688 158.710938 213.832031 C 158.726562 213.113281 158.765625 212.394531 158.828125 211.675781 C 158.886719 210.957031 158.96875 210.242188 159.074219 209.53125 C 159.179688 208.816406 159.304688 208.109375 159.453125 207.40625 C 159.601562 206.699219 159.769531 206 159.960938 205.304688 C 160.148438 204.609375 160.359375 203.921875 160.59375 203.242188 C 160.828125 202.558594 161.078125 201.886719 161.351562 201.21875 C 163.050781 196.839844 165.523438 192.949219 168.773438 189.554688 C 169.59375 188.730469 170.453125 187.945312 171.347656 187.203125 C 172.246094 186.464844 173.175781 185.769531 174.140625 185.117188 C 175.105469 184.46875 176.101562 183.867188 177.125 183.316406 C 178.152344 182.765625 179.199219 182.265625 180.273438 181.820312 C 181.347656 181.371094 182.441406 180.980469 183.554688 180.640625 C 184.667969 180.300781 185.792969 180.015625 186.9375 179.789062 C 188.078125 179.558594 189.226562 179.386719 190.382812 179.273438 C 191.542969 179.160156 192.703125 179.101562 193.867188 179.101562 C 195.027344 179.101562 196.191406 179.160156 197.347656 179.273438 C 198.503906 179.386719 199.65625 179.558594 200.796875 179.789062 C 201.9375 180.015625 203.0625 180.300781 204.175781 180.640625 C 205.289062 180.980469 206.382812 181.371094 207.457031 181.820312 C 208.53125 182.265625 209.578125 182.765625 210.605469 183.316406 C 211.628906 183.867188 212.625 184.46875 213.589844 185.117188 C 214.554688 185.769531 215.484375 186.464844 216.382812 187.203125 C 217.28125 187.945312 218.136719 188.730469 218.957031 189.554688 C 222.207031 192.949219 224.679688 196.839844 226.378906 201.21875 C 228.382812 205.472656 229.328125 209.949219 229.207031 214.648438 C 229.207031 215.808594 229.148438 216.960938 229.035156 218.113281 C 228.921875 219.265625 228.753906 220.410156 228.527344 221.542969 C 228.300781 222.679688 228.019531 223.800781 227.683594 224.910156 C 227.347656 226.015625 226.957031 227.105469 226.515625 228.175781 C 226.074219 229.246094 225.578125 230.289062 225.03125 231.308594 C 224.488281 232.332031 223.894531 233.324219 223.25 234.285156 C 222.605469 235.246094 221.917969 236.175781 221.183594 237.070312 C 220.449219 237.964844 219.671875 238.824219 218.855469 239.640625 C 218.035156 240.460938 217.179688 241.234375 216.285156 241.96875 C 215.390625 242.703125 214.460938 243.394531 213.5 244.035156 C 212.535156 244.679688 211.546875 245.273438 210.523438 245.820312 C 209.503906 246.363281 208.457031 246.859375 207.390625 247.300781 C 206.320312 247.746094 205.230469 248.136719 204.125 248.472656 C 203.015625 248.808594 201.894531 249.085938 200.761719 249.3125 C 199.625 249.539062 198.480469 249.710938 197.328125 249.824219 C 196.175781 249.9375 195.023438 249.992188 193.867188 249.992188 Z M 193.867188 249.992188 "/><path style=" stroke:none;fill-rule:nonzero;fill:#000000;fill-opacity:1;" d="M 335.226562 249.992188 C 330.5625 249.9375 326.085938 248.992188 321.796875 247.164062 C 317.480469 245.363281 313.59375 242.886719 310.132812 239.742188 C 308.914062 238.507812 307.792969 237.1875 306.765625 235.789062 C 305.742188 234.386719 304.824219 232.917969 304.015625 231.382812 C 303.207031 229.84375 302.515625 228.257812 301.941406 226.621094 C 301.367188 224.980469 300.914062 223.308594 300.585938 221.605469 C 300.257812 219.902344 300.058594 218.179688 299.984375 216.445312 C 299.90625 214.710938 299.960938 212.980469 300.140625 211.253906 C 300.320312 209.527344 300.625 207.824219 301.054688 206.140625 C 301.488281 204.460938 302.039062 202.820312 302.710938 201.21875 C 304.410156 196.839844 306.886719 192.949219 310.132812 189.554688 C 310.953125 188.730469 311.8125 187.945312 312.707031 187.203125 C 313.605469 186.464844 314.535156 185.769531 315.5 185.117188 C 316.464844 184.46875 317.460938 183.867188 318.484375 183.316406 C 319.511719 182.765625 320.558594 182.265625 321.632812 181.820312 C 322.707031 181.371094 323.800781 180.980469 324.914062 180.640625 C 326.027344 180.300781 327.15625 180.015625 328.296875 179.789062 C 329.4375 179.558594 330.585938 179.386719 331.742188 179.273438 C 332.902344 179.160156 334.0625 179.101562 335.226562 179.101562 C 336.390625 179.101562 337.550781 179.160156 338.707031 179.273438 C 339.863281 179.386719 341.015625 179.558594 342.15625 179.789062 C 343.296875 180.015625 344.421875 180.300781 345.535156 180.640625 C 346.648438 180.980469 347.742188 181.371094 348.816406 181.820312 C 349.890625 182.265625 350.941406 182.765625 351.964844 183.316406 C 352.988281 183.867188 353.984375 184.46875 354.949219 185.117188 C 355.914062 185.769531 356.847656 186.464844 357.742188 187.203125 C 358.640625 187.945312 359.496094 188.730469 360.316406 189.554688 C 363.566406 192.949219 366.039062 196.839844 367.738281 201.21875 C 368.011719 201.886719 368.265625 202.558594 368.496094 203.242188 C 368.730469 203.921875 368.941406 204.609375 369.132812 205.304688 C 369.320312 206 369.492188 206.699219 369.636719 207.40625 C 369.785156 208.109375 369.910156 208.816406 370.015625 209.53125 C 370.121094 210.242188 370.203125 210.957031 370.265625 211.675781 C 370.324219 212.394531 370.363281 213.113281 370.378906 213.832031 C 370.394531 214.550781 370.390625 215.273438 370.363281 215.992188 C 370.335938 216.710938 370.285156 217.429688 370.214844 218.148438 C 370.144531 218.863281 370.050781 219.578125 369.9375 220.289062 C 369.820312 221 369.683594 221.707031 369.527344 222.410156 C 369.367188 223.109375 369.191406 223.808594 368.988281 224.5 C 368.789062 225.191406 368.566406 225.875 368.324219 226.554688 C 368.082031 227.234375 367.816406 227.902344 367.535156 228.566406 C 367.25 229.226562 366.949219 229.878906 366.625 230.523438 C 366.300781 231.167969 365.957031 231.800781 365.597656 232.421875 C 365.234375 233.042969 364.851562 233.65625 364.453125 234.253906 C 364.054688 234.855469 363.636719 235.441406 363.203125 236.015625 C 362.765625 236.589844 362.3125 237.148438 361.84375 237.695312 C 361.375 238.238281 360.890625 238.769531 360.386719 239.289062 C 359.886719 239.804688 359.367188 240.304688 358.835938 240.789062 C 358.300781 241.273438 357.753906 241.742188 357.195312 242.195312 C 356.632812 242.644531 356.058594 243.078125 355.472656 243.496094 C 354.882812 243.910156 354.285156 244.308594 353.671875 244.6875 C 353.058594 245.066406 352.4375 245.429688 351.800781 245.769531 C 351.167969 246.109375 350.523438 246.433594 349.871094 246.734375 C 349.214844 247.035156 348.554688 247.320312 347.882812 247.578125 C 347.210938 247.839844 346.535156 248.082031 345.847656 248.300781 C 345.164062 248.523438 344.472656 248.722656 343.773438 248.898438 C 343.074219 249.078125 342.371094 249.234375 341.664062 249.367188 C 340.957031 249.503906 340.246094 249.617188 339.53125 249.707031 C 338.816406 249.800781 338.101562 249.867188 337.382812 249.914062 C 336.664062 249.964844 335.945312 249.988281 335.226562 249.992188 Z M 335.226562 249.992188 "/><g clip-rule="nonzero" clip-path="url(#b28a34401a)"><path style=" stroke:none;fill-rule:nonzero;fill:#000000;fill-opacity:1;" d="M 335.226562 780.136719 C 332.910156 780.136719 330.601562 780.082031 328.289062 779.964844 C 325.976562 779.851562 323.671875 779.683594 321.371094 779.457031 C 319.066406 779.230469 316.773438 778.945312 314.484375 778.605469 C 312.195312 778.265625 309.917969 777.871094 307.648438 777.421875 C 305.378906 776.96875 303.121094 776.460938 300.878906 775.898438 C 298.632812 775.339844 296.40625 774.722656 294.191406 774.050781 C 291.976562 773.378906 289.78125 772.652344 287.601562 771.871094 C 285.425781 771.09375 283.265625 770.261719 281.128906 769.375 C 278.992188 768.492188 276.878906 767.554688 274.785156 766.5625 C 272.695312 765.574219 270.628906 764.535156 268.589844 763.445312 C 266.546875 762.351562 264.535156 761.214844 262.550781 760.023438 C 260.566406 758.835938 258.613281 757.597656 256.691406 756.3125 C 254.765625 755.027344 252.875 753.695312 251.015625 752.316406 C 249.160156 750.9375 247.335938 749.515625 245.546875 748.046875 C 243.757812 746.578125 242.007812 745.070312 240.292969 743.515625 C 238.578125 741.960938 236.90625 740.367188 235.269531 738.730469 C 233.632812 737.09375 232.039062 735.417969 230.484375 733.703125 C 228.929688 731.992188 227.421875 730.238281 225.953125 728.449219 C 224.484375 726.660156 223.0625 724.839844 221.683594 722.980469 C 220.304688 721.121094 218.972656 719.230469 217.6875 717.308594 C 216.402344 715.382812 215.167969 713.429688 213.976562 711.445312 C 212.789062 709.460938 211.648438 707.449219 210.558594 705.40625 C 209.464844 703.367188 208.425781 701.300781 207.4375 699.210938 C 206.449219 697.117188 205.511719 695.003906 204.625 692.867188 C 203.742188 690.726562 202.910156 688.570312 202.128906 686.390625 C 201.347656 684.214844 200.625 682.015625 199.953125 679.804688 C 199.28125 677.589844 198.664062 675.359375 198.101562 673.117188 C 197.539062 670.871094 197.03125 668.613281 196.582031 666.34375 C 196.128906 664.078125 195.734375 661.796875 195.394531 659.507812 C 195.054688 657.21875 194.773438 654.925781 194.546875 652.621094 C 194.320312 650.320312 194.148438 648.011719 194.035156 645.703125 C 193.921875 643.390625 193.867188 641.078125 193.867188 638.765625 L 193.867188 462.050781 C 193.867188 460.894531 193.921875 459.738281 194.035156 458.585938 C 194.148438 457.433594 194.320312 456.289062 194.542969 455.15625 C 194.769531 454.019531 195.050781 452.898438 195.386719 451.789062 C 195.722656 450.683594 196.113281 449.59375 196.554688 448.523438 C 197 447.457031 197.492188 446.410156 198.039062 445.390625 C 198.585938 444.367188 199.179688 443.378906 199.820312 442.414062 C 200.464844 441.453125 201.152344 440.523438 201.886719 439.628906 C 202.621094 438.734375 203.398438 437.878906 204.214844 437.058594 C 205.035156 436.242188 205.890625 435.464844 206.785156 434.730469 C 207.679688 433.996094 208.609375 433.308594 209.570312 432.664062 C 210.535156 432.019531 211.527344 431.425781 212.546875 430.878906 C 213.566406 430.335938 214.613281 429.839844 215.679688 429.398438 C 216.75 428.953125 217.839844 428.566406 218.945312 428.230469 C 220.054688 427.894531 221.175781 427.613281 222.3125 427.386719 C 223.445312 427.160156 224.589844 426.992188 225.742188 426.878906 C 226.894531 426.765625 228.046875 426.707031 229.207031 426.707031 C 230.363281 426.707031 231.519531 426.765625 232.667969 426.878906 C 233.820312 426.992188 234.964844 427.160156 236.101562 427.386719 C 237.234375 427.613281 238.355469 427.894531 239.464844 428.230469 C 240.570312 428.566406 241.660156 428.953125 242.730469 429.398438 C 243.800781 429.839844 244.84375 430.335938 245.863281 430.878906 C 246.886719 431.425781 247.875 432.019531 248.839844 432.664062 C 249.800781 433.308594 250.730469 433.996094 251.625 434.730469 C 252.519531 435.464844 253.375 436.242188 254.195312 437.058594 C 255.011719 437.878906 255.789062 438.734375 256.523438 439.628906 C 257.257812 440.523438 257.945312 441.453125 258.589844 442.414062 C 259.234375 443.378906 259.828125 444.367188 260.371094 445.390625 C 260.917969 446.410156 261.414062 447.457031 261.855469 448.523438 C 262.296875 449.59375 262.6875 450.683594 263.023438 451.789062 C 263.359375 452.898438 263.640625 454.019531 263.867188 455.15625 C 264.09375 456.289062 264.261719 457.433594 264.375 458.585938 C 264.488281 459.738281 264.546875 460.894531 264.546875 462.050781 L 264.546875 638.765625 C 264.546875 639.921875 264.574219 641.078125 264.628906 642.234375 C 264.6875 643.390625 264.773438 644.542969 264.886719 645.695312 C 265 646.84375 265.140625 647.992188 265.308594 649.136719 C 265.480469 650.28125 265.679688 651.421875 265.902344 652.554688 C 266.128906 653.691406 266.382812 654.816406 266.664062 655.941406 C 266.945312 657.0625 267.253906 658.175781 267.589844 659.285156 C 267.925781 660.390625 268.289062 661.488281 268.675781 662.578125 C 269.066406 663.667969 269.484375 664.746094 269.925781 665.816406 C 270.367188 666.882812 270.835938 667.941406 271.332031 668.988281 C 271.824219 670.03125 272.347656 671.066406 272.890625 672.085938 C 273.4375 673.105469 274.007812 674.113281 274.601562 675.105469 C 275.195312 676.097656 275.816406 677.074219 276.457031 678.035156 C 277.101562 679 277.765625 679.945312 278.453125 680.871094 C 279.144531 681.800781 279.855469 682.714844 280.589844 683.609375 C 281.324219 684.503906 282.078125 685.378906 282.855469 686.234375 C 283.632812 687.09375 284.429688 687.929688 285.246094 688.746094 C 286.066406 689.566406 286.902344 690.363281 287.757812 691.140625 C 288.617188 691.917969 289.492188 692.671875 290.386719 693.40625 C 291.28125 694.140625 292.191406 694.851562 293.121094 695.539062 C 294.050781 696.230469 294.996094 696.894531 295.957031 697.539062 C 296.917969 698.179688 297.894531 698.800781 298.886719 699.394531 C 299.878906 699.988281 300.886719 700.558594 301.90625 701.105469 C 302.925781 701.648438 303.960938 702.171875 305.003906 702.664062 C 306.050781 703.160156 307.109375 703.628906 308.175781 704.070312 C 309.246094 704.511719 310.324219 704.929688 311.414062 705.320312 C 312.503906 705.707031 313.601562 706.070312 314.707031 706.40625 C 315.816406 706.742188 316.929688 707.050781 318.050781 707.332031 C 319.171875 707.613281 320.300781 707.867188 321.4375 708.09375 C 322.570312 708.320312 323.710938 708.515625 324.855469 708.6875 C 326 708.855469 327.144531 708.996094 328.296875 709.109375 C 329.449219 709.222656 330.601562 709.308594 331.757812 709.367188 C 332.914062 709.421875 334.070312 709.449219 335.226562 709.453125 C 336.382812 709.449219 337.539062 709.421875 338.691406 709.367188 C 339.847656 709.308594 341 709.222656 342.152344 709.109375 C 343.304688 708.996094 344.453125 708.855469 345.597656 708.6875 C 346.742188 708.515625 347.878906 708.320312 349.015625 708.09375 C 350.148438 707.867188 351.277344 707.613281 352.398438 707.332031 C 353.519531 707.050781 354.636719 706.742188 355.742188 706.40625 C 356.847656 706.070312 357.949219 705.707031 359.035156 705.320312 C 360.125 704.929688 361.203125 704.511719 362.273438 704.070312 C 363.339844 703.628906 364.398438 703.160156 365.445312 702.664062 C 366.492188 702.171875 367.523438 701.648438 368.542969 701.105469 C 369.5625 700.558594 370.570312 699.988281 371.5625 699.394531 C 372.554688 698.800781 373.53125 698.179688 374.492188 697.539062 C 375.453125 696.894531 376.398438 696.230469 377.328125 695.539062 C 378.257812 694.851562 379.167969 694.140625 380.0625 693.40625 C 380.957031 692.671875 381.832031 691.917969 382.691406 691.140625 C 383.546875 690.363281 384.386719 689.566406 385.203125 688.746094 C 386.019531 687.929688 386.820312 687.09375 387.59375 686.234375 C 388.371094 685.378906 389.128906 684.503906 389.863281 683.609375 C 390.59375 682.714844 391.304688 681.800781 391.996094 680.871094 C 392.683594 679.945312 393.351562 679 393.992188 678.035156 C 394.636719 677.074219 395.253906 676.097656 395.847656 675.105469 C 396.445312 674.113281 397.015625 673.105469 397.558594 672.085938 C 398.105469 671.066406 398.625 670.03125 399.117188 668.988281 C 399.613281 667.941406 400.082031 666.882812 400.523438 665.816406 C 400.96875 664.746094 401.382812 663.667969 401.773438 662.578125 C 402.164062 661.488281 402.527344 660.390625 402.863281 659.285156 C 403.199219 658.175781 403.503906 657.0625 403.785156 655.941406 C 404.066406 654.816406 404.320312 653.691406 404.546875 652.554688 C 404.773438 651.421875 404.96875 650.28125 405.140625 649.136719 C 405.308594 647.992188 405.453125 646.84375 405.566406 645.695312 C 405.679688 644.542969 405.761719 643.390625 405.820312 642.234375 C 405.875 641.078125 405.90625 639.921875 405.90625 638.765625 L 405.90625 462.050781 C 405.90625 460.894531 405.960938 459.738281 406.074219 458.585938 C 406.1875 457.433594 406.359375 456.289062 406.585938 455.15625 C 406.808594 454.019531 407.089844 452.898438 407.425781 451.789062 C 407.761719 450.683594 408.152344 449.59375 408.59375 448.523438 C 409.039062 447.457031 409.53125 446.410156 410.078125 445.390625 C 410.625 444.367188 411.21875 443.378906 411.859375 442.414062 C 412.503906 441.453125 413.191406 440.523438 413.925781 439.628906 C 414.660156 438.734375 415.4375 437.878906 416.253906 437.058594 C 417.074219 436.242188 417.929688 435.464844 418.824219 434.730469 C 419.71875 433.996094 420.648438 433.308594 421.609375 432.664062 C 422.574219 432.019531 423.566406 431.425781 424.585938 430.878906 C 425.605469 430.335938 426.652344 429.839844 427.722656 429.398438 C 428.789062 428.953125 429.878906 428.566406 430.984375 428.230469 C 432.09375 427.894531 433.214844 427.613281 434.351562 427.386719 C 435.484375 427.160156 436.628906 426.992188 437.78125 426.878906 C 438.933594 426.765625 440.085938 426.707031 441.246094 426.707031 C 442.402344 426.707031 443.558594 426.765625 444.707031 426.878906 C 445.859375 426.992188 447.003906 427.160156 448.140625 427.386719 C 449.273438 427.613281 450.394531 427.894531 451.503906 428.230469 C 452.609375 428.566406 453.699219 428.953125 454.769531 429.398438 C 455.839844 429.839844 456.882812 430.335938 457.902344 430.878906 C 458.925781 431.425781 459.917969 432.019531 460.878906 432.664062 C 461.839844 433.308594 462.769531 433.996094 463.664062 434.730469 C 464.558594 435.464844 465.414062 436.242188 466.234375 437.058594 C 467.050781 437.878906 467.828125 438.734375 468.5625 439.628906 C 469.296875 440.523438 469.984375 441.453125 470.628906 442.414062 C 471.273438 443.378906 471.867188 444.367188 472.410156 445.390625 C 472.957031 446.410156 473.453125 447.457031 473.894531 448.523438 C 474.335938 449.59375 474.726562 450.683594 475.0625 451.789062 C 475.398438 452.898438 475.679688 454.019531 475.90625 455.15625 C 476.132812 456.289062 476.300781 457.433594 476.414062 458.585938 C 476.527344 459.738281 476.585938 460.894531 476.585938 462.050781 L 476.585938 638.765625 C 476.585938 641.078125 476.527344 643.390625 476.414062 645.703125 C 476.300781 648.011719 476.128906 650.320312 475.902344 652.621094 C 475.675781 654.925781 475.394531 657.21875 475.054688 659.507812 C 474.714844 661.796875 474.320312 664.078125 473.867188 666.34375 C 473.417969 668.613281 472.910156 670.871094 472.347656 673.117188 C 471.785156 675.359375 471.167969 677.589844 470.496094 679.804688 C 469.828125 682.015625 469.101562 684.214844 468.320312 686.390625 C 467.542969 688.570312 466.710938 690.726562 465.824219 692.867188 C 464.9375 695.003906 464 697.117188 463.011719 699.210938 C 462.023438 701.300781 460.984375 703.367188 459.894531 705.40625 C 458.800781 707.449219 457.664062 709.460938 456.472656 711.445312 C 455.285156 713.429688 454.046875 715.382812 452.761719 717.308594 C 451.476562 719.230469 450.144531 721.121094 448.765625 722.980469 C 447.386719 724.839844 445.964844 726.660156 444.496094 728.449219 C 443.03125 730.238281 441.519531 731.992188 439.964844 733.703125 C 438.410156 735.417969 436.816406 737.09375 435.179688 738.730469 C 433.546875 740.367188 431.871094 741.960938 430.15625 743.515625 C 428.441406 745.070312 426.691406 746.578125 424.902344 748.046875 C 423.113281 749.515625 421.292969 750.9375 419.433594 752.316406 C 417.574219 753.695312 415.683594 755.027344 413.761719 756.3125 C 411.835938 757.597656 409.882812 758.835938 407.898438 760.023438 C 405.914062 761.214844 403.902344 762.351562 401.863281 763.445312 C 399.820312 764.535156 397.753906 765.574219 395.664062 766.5625 C 393.574219 767.554688 391.457031 768.492188 389.320312 769.375 C 387.183594 770.261719 385.027344 771.09375 382.847656 771.871094 C 380.667969 772.652344 378.472656 773.378906 376.257812 774.050781 C 374.046875 774.722656 371.816406 775.339844 369.574219 775.898438 C 367.328125 776.460938 365.070312 776.96875 362.804688 777.421875 C 360.535156 777.871094 358.253906 778.265625 355.96875 778.605469 C 353.679688 778.945312 351.382812 779.230469 349.082031 779.457031 C 346.777344 779.683594 344.472656 779.851562 342.160156 779.964844 C 339.851562 780.082031 337.539062 780.136719 335.226562 780.136719 Z M 335.226562 780.136719 "/></g><g clip-rule="nonzero" clip-path="url(#e44dbbb783)"><path style=" stroke:none;fill-rule:nonzero;fill:#000000;fill-opacity:1;" d="M 732.800781 603.421875 L 822.914062 483.257812 C 823.613281 482.332031 824.261719 481.371094 824.863281 480.382812 C 825.464844 479.394531 826.015625 478.375 826.519531 477.332031 C 827.019531 476.289062 827.46875 475.222656 827.867188 474.132812 C 828.261719 473.046875 828.605469 471.941406 828.894531 470.820312 C 829.183594 469.695312 829.414062 468.5625 829.59375 467.417969 C 829.769531 466.273438 829.890625 465.125 829.953125 463.96875 C 830.019531 462.808594 830.023438 461.652344 829.976562 460.496094 C 829.925781 459.339844 829.820312 458.1875 829.65625 457.039062 C 829.492188 455.894531 829.273438 454.757812 829 453.632812 C 828.722656 452.507812 828.394531 451.398438 828.011719 450.304688 C 827.625 449.210938 827.191406 448.140625 826.699219 447.089844 C 826.210938 446.039062 825.671875 445.015625 825.082031 444.019531 C 824.492188 443.023438 823.855469 442.058594 823.171875 441.121094 C 822.484375 440.1875 821.757812 439.289062 820.984375 438.429688 C 820.210938 437.566406 819.398438 436.742188 818.542969 435.960938 C 817.6875 435.175781 816.796875 434.4375 815.871094 433.742188 C 814.945312 433.046875 813.988281 432.402344 812.996094 431.800781 C 812.007812 431.199219 810.988281 430.648438 809.945312 430.148438 C 808.898438 429.648438 807.832031 429.199219 806.746094 428.804688 C 805.65625 428.40625 804.550781 428.066406 803.429688 427.777344 C 802.308594 427.492188 801.171875 427.257812 800.027344 427.085938 C 798.882812 426.910156 797.734375 426.789062 796.578125 426.726562 C 795.417969 426.664062 794.261719 426.660156 793.105469 426.710938 C 791.949219 426.761719 790.796875 426.867188 789.648438 427.035156 C 788.503906 427.199219 787.367188 427.417969 786.242188 427.695312 C 785.117188 427.96875 784.007812 428.300781 782.917969 428.6875 C 781.824219 429.070312 780.753906 429.507812 779.703125 430 C 778.65625 430.488281 777.632812 431.03125 776.636719 431.621094 C 775.640625 432.210938 774.675781 432.851562 773.742188 433.539062 C 772.808594 434.222656 771.910156 434.953125 771.050781 435.726562 C 770.1875 436.5 769.367188 437.316406 768.585938 438.171875 C 767.804688 439.027344 767.066406 439.917969 766.371094 440.84375 L 688.625 544.398438 L 610.875 440.84375 C 610.183594 439.917969 609.445312 439.027344 608.660156 438.175781 C 607.878906 437.320312 607.058594 436.507812 606.195312 435.734375 C 605.335938 434.964844 604.4375 434.234375 603.503906 433.550781 C 602.570312 432.867188 601.605469 432.226562 600.609375 431.640625 C 599.613281 431.050781 598.589844 430.507812 597.542969 430.019531 C 596.492188 429.53125 595.421875 429.09375 594.332031 428.710938 C 593.238281 428.324219 592.132812 427.996094 591.007812 427.722656 C 589.882812 427.445312 588.75 427.226562 587.601562 427.0625 C 586.457031 426.898438 585.304688 426.792969 584.148438 426.742188 C 582.992188 426.691406 581.835938 426.695312 580.679688 426.761719 C 579.523438 426.824219 578.375 426.941406 577.230469 427.117188 C 576.085938 427.292969 574.953125 427.527344 573.832031 427.8125 C 572.710938 428.101562 571.609375 428.441406 570.519531 428.835938 C 569.433594 429.234375 568.367188 429.683594 567.324219 430.183594 C 566.28125 430.683594 565.261719 431.234375 564.273438 431.832031 C 563.285156 432.433594 562.328125 433.082031 561.402344 433.777344 C 560.472656 434.46875 559.585938 435.207031 558.730469 435.992188 C 557.878906 436.773438 557.066406 437.59375 556.292969 438.457031 C 555.519531 439.316406 554.792969 440.214844 554.105469 441.148438 C 553.421875 442.082031 552.785156 443.046875 552.195312 444.042969 C 551.605469 445.039062 551.066406 446.0625 550.578125 447.109375 C 550.085938 448.160156 549.652344 449.230469 549.265625 450.324219 C 548.882812 451.414062 548.554688 452.523438 548.277344 453.648438 C 548.003906 454.769531 547.785156 455.90625 547.621094 457.050781 C 547.457031 458.199219 547.347656 459.347656 547.296875 460.503906 C 547.246094 461.660156 547.253906 462.816406 547.316406 463.972656 C 547.378906 465.128906 547.5 466.28125 547.675781 467.425781 C 547.851562 468.566406 548.082031 469.699219 548.371094 470.820312 C 548.65625 471.941406 549 473.046875 549.394531 474.136719 C 549.789062 475.222656 550.238281 476.289062 550.738281 477.332031 C 551.238281 478.375 551.789062 479.394531 552.390625 480.382812 C 552.992188 481.371094 553.636719 482.332031 554.332031 483.257812 L 644.449219 603.421875 L 554.332031 723.589844 C 553.636719 724.515625 552.992188 725.472656 552.390625 726.460938 C 551.789062 727.453125 551.238281 728.46875 550.738281 729.511719 C 550.238281 730.554688 549.789062 731.621094 549.394531 732.710938 C 549 733.796875 548.65625 734.902344 548.371094 736.023438 C 548.082031 737.144531 547.851562 738.277344 547.675781 739.421875 C 547.5 740.566406 547.378906 741.714844 547.316406 742.871094 C 547.253906 744.027344 547.246094 745.183594 547.296875 746.339844 C 547.347656 747.496094 547.457031 748.648438 547.621094 749.792969 C 547.785156 750.9375 548.003906 752.074219 548.277344 753.199219 C 548.554688 754.320312 548.882812 755.429688 549.265625 756.523438 C 549.652344 757.613281 550.085938 758.683594 550.578125 759.734375 C 551.066406 760.78125 551.605469 761.804688 552.195312 762.800781 C 552.785156 763.796875 553.421875 764.761719 554.105469 765.695312 C 554.792969 766.628906 555.519531 767.527344 556.292969 768.386719 C 557.066406 769.25 557.878906 770.070312 558.730469 770.855469 C 559.585938 771.636719 560.476562 772.375 561.402344 773.070312 C 564.460938 775.363281 567.800781 777.113281 571.429688 778.324219 C 575.054688 779.53125 578.78125 780.136719 582.605469 780.136719 C 585.347656 780.136719 588.054688 779.820312 590.722656 779.191406 C 593.394531 778.5625 595.957031 777.632812 598.410156 776.40625 C 600.863281 775.179688 603.140625 773.6875 605.25 771.929688 C 607.355469 770.171875 609.230469 768.195312 610.875 766 L 688.625 662.445312 L 766.371094 766 C 768.019531 768.195312 769.894531 770.171875 772 771.929688 C 774.105469 773.6875 776.386719 775.179688 778.839844 776.40625 C 781.292969 777.632812 783.855469 778.5625 786.523438 779.191406 C 789.195312 779.820312 791.902344 780.136719 794.644531 780.136719 C 798.46875 780.136719 802.191406 779.53125 805.820312 778.324219 C 809.445312 777.113281 812.789062 775.363281 815.847656 773.070312 C 816.773438 772.375 817.664062 771.636719 818.515625 770.855469 C 819.371094 770.070312 820.183594 769.25 820.957031 768.386719 C 821.730469 767.527344 822.457031 766.628906 823.140625 765.695312 C 823.828125 764.761719 824.464844 763.796875 825.054688 762.800781 C 825.644531 761.804688 826.183594 760.78125 826.671875 759.734375 C 827.160156 758.683594 827.597656 757.613281 827.980469 756.523438 C 828.367188 755.429688 828.695312 754.320312 828.96875 753.199219 C 829.246094 752.074219 829.464844 750.9375 829.628906 749.792969 C 829.792969 748.648438 829.898438 747.496094 829.949219 746.339844 C 830 745.183594 829.996094 744.027344 829.929688 742.871094 C 829.867188 741.714844 829.75 740.566406 829.574219 739.421875 C 829.398438 738.277344 829.164062 737.144531 828.878906 736.023438 C 828.589844 734.902344 828.25 733.796875 827.855469 732.710938 C 827.457031 731.621094 827.011719 730.554688 826.507812 729.511719 C 826.007812 728.46875 825.457031 727.453125 824.859375 726.460938 C 824.257812 725.472656 823.609375 724.515625 822.914062 723.589844 Z M 732.800781 603.421875 "/></g></g></svg>