<svg xmlns="http://www.w3.org/2000/svg" xmlns:xlink="http://www.w3.org/1999/xlink" width="1366" zoomAndPan="magnify" viewBox="0 0 1024.5 1024.500009" height="1366" preserveAspectRatio="xMidYMid meet" version="1.2"><defs><clipPath id="2f3b6d6efd"><path d="M 17.167969 73 L 1006.683594 73 L 1006.683594 921.546875 L 17.167969 921.546875 Z M 17.167969 73 "/></clipPath></defs><g id="055665afa4"><g clip-rule="nonzero" clip-path="url(#2f3b6d6efd)"><path style=" stroke:none;fill-rule:nonzero;fill:#000000;fill-opacity:1;" d="M 900.664062 73.136719 L 123.1875 73.136719 C 121.449219 73.136719 119.714844 73.179688 117.984375 73.265625 C 116.25 73.351562 114.519531 73.476562 112.792969 73.648438 C 111.066406 73.816406 109.347656 74.03125 107.628906 74.285156 C 105.914062 74.539062 104.203125 74.835938 102.503906 75.175781 C 100.800781 75.511719 99.109375 75.894531 97.425781 76.316406 C 95.742188 76.738281 94.070312 77.199219 92.410156 77.703125 C 90.75 78.207031 89.101562 78.75 87.46875 79.335938 C 85.835938 79.921875 84.21875 80.542969 82.613281 81.207031 C 81.011719 81.871094 79.425781 82.574219 77.855469 83.316406 C 76.289062 84.058594 74.738281 84.839844 73.207031 85.65625 C 71.679688 86.476562 70.167969 87.332031 68.679688 88.222656 C 67.191406 89.113281 65.726562 90.042969 64.285156 91.007812 C 62.84375 91.96875 61.421875 92.96875 60.03125 94.003906 C 58.636719 95.035156 57.269531 96.105469 55.925781 97.203125 C 54.585938 98.304688 53.273438 99.4375 51.988281 100.605469 C 50.703125 101.769531 49.445312 102.964844 48.21875 104.191406 C 46.992188 105.417969 45.796875 106.675781 44.628906 107.960938 C 43.464844 109.246094 42.332031 110.5625 41.230469 111.902344 C 40.128906 113.242188 39.0625 114.609375 38.03125 116.003906 C 36.996094 117.398438 35.996094 118.816406 35.035156 120.261719 C 34.070312 121.703125 33.140625 123.167969 32.25 124.65625 C 31.359375 126.144531 30.503906 127.652344 29.683594 129.183594 C 28.867188 130.714844 28.085938 132.265625 27.34375 133.832031 C 26.601562 135.402344 25.902344 136.988281 25.238281 138.589844 C 24.574219 140.195312 23.949219 141.8125 23.363281 143.445312 C 22.777344 145.078125 22.234375 146.726562 21.730469 148.386719 C 21.226562 150.046875 20.765625 151.71875 20.34375 153.402344 C 19.921875 155.085938 19.542969 156.777344 19.203125 158.480469 C 18.863281 160.183594 18.566406 161.890625 18.3125 163.609375 C 18.058594 165.324219 17.847656 167.046875 17.675781 168.773438 C 17.507812 170.5 17.378906 172.230469 17.292969 173.964844 C 17.207031 175.695312 17.167969 177.429688 17.167969 179.167969 L 17.167969 815.339844 C 17.167969 817.074219 17.207031 818.808594 17.292969 820.542969 C 17.378906 822.273438 17.507812 824.003906 17.675781 825.730469 C 17.847656 827.460938 18.058594 829.179688 18.3125 830.898438 C 18.566406 832.613281 18.863281 834.324219 19.203125 836.023438 C 19.542969 837.726562 19.921875 839.417969 20.34375 841.101562 C 20.765625 842.785156 21.226562 844.457031 21.730469 846.117188 C 22.234375 847.777344 22.777344 849.425781 23.363281 851.058594 C 23.949219 852.691406 24.574219 854.3125 25.238281 855.914062 C 25.902344 857.519531 26.601562 859.105469 27.34375 860.671875 C 28.085938 862.242188 28.867188 863.789062 29.683594 865.320312 C 30.503906 866.851562 31.359375 868.359375 32.25 869.847656 C 33.140625 871.335938 34.070312 872.804688 35.035156 874.246094 C 35.996094 875.6875 36.996094 877.105469 38.03125 878.5 C 39.0625 879.894531 40.128906 881.261719 41.230469 882.601562 C 42.332031 883.945312 43.464844 885.257812 44.628906 886.542969 C 45.796875 887.828125 46.992188 889.085938 48.21875 890.3125 C 49.445312 891.539062 50.703125 892.738281 51.988281 893.902344 C 53.273438 895.066406 54.585938 896.199219 55.925781 897.300781 C 57.269531 898.402344 58.636719 899.46875 60.03125 900.503906 C 61.421875 901.535156 62.84375 902.535156 64.285156 903.5 C 65.726562 904.464844 67.191406 905.390625 68.679688 906.285156 C 70.167969 907.175781 71.679688 908.03125 73.207031 908.847656 C 74.738281 909.667969 76.289062 910.445312 77.855469 911.1875 C 79.425781 911.929688 81.011719 912.632812 82.613281 913.296875 C 84.21875 913.960938 85.835938 914.585938 87.46875 915.171875 C 89.101562 915.753906 90.75 916.300781 92.410156 916.804688 C 94.070312 917.304688 95.742188 917.769531 97.425781 918.191406 C 99.109375 918.613281 100.800781 918.992188 102.503906 919.332031 C 104.203125 919.667969 105.914062 919.964844 107.628906 920.222656 C 109.347656 920.476562 111.066406 920.6875 112.792969 920.859375 C 114.519531 921.027344 116.25 921.15625 117.984375 921.242188 C 119.714844 921.324219 121.449219 921.367188 123.1875 921.367188 L 900.664062 921.367188 C 902.398438 921.367188 904.132812 921.324219 905.867188 921.242188 C 907.597656 921.15625 909.328125 921.027344 911.054688 920.859375 C 912.78125 920.6875 914.503906 920.476562 916.21875 920.222656 C 917.9375 919.964844 919.644531 919.667969 921.347656 919.332031 C 923.046875 918.992188 924.742188 918.613281 926.425781 918.191406 C 928.105469 917.769531 929.777344 917.304688 931.4375 916.804688 C 933.101562 916.300781 934.746094 915.753906 936.378906 915.171875 C 938.015625 914.585938 939.632812 913.960938 941.234375 913.296875 C 942.839844 912.632812 944.425781 911.929688 945.992188 911.1875 C 947.5625 910.445312 949.109375 909.667969 950.640625 908.847656 C 952.171875 908.03125 953.679688 907.175781 955.167969 906.285156 C 956.65625 905.390625 958.121094 904.464844 959.566406 903.5 C 961.007812 902.535156 962.425781 901.535156 963.820312 900.503906 C 965.214844 899.46875 966.582031 898.402344 967.921875 897.300781 C 969.261719 896.199219 970.578125 895.066406 971.863281 893.902344 C 973.148438 892.738281 974.402344 891.539062 975.628906 890.3125 C 976.859375 889.085938 978.054688 887.828125 979.21875 886.542969 C 980.382812 885.257812 981.515625 883.945312 982.617188 882.605469 C 983.71875 881.261719 984.785156 879.894531 985.820312 878.5 C 986.851562 877.105469 987.851562 875.6875 988.816406 874.246094 C 989.78125 872.804688 990.707031 871.335938 991.597656 869.847656 C 992.492188 868.359375 993.347656 866.851562 994.164062 865.320312 C 994.984375 863.789062 995.761719 862.242188 996.503906 860.671875 C 997.246094 859.105469 997.949219 857.519531 998.613281 855.914062 C 999.277344 854.3125 999.902344 852.691406 1000.484375 851.058594 C 1001.070312 849.425781 1001.613281 847.777344 1002.117188 846.117188 C 1002.621094 844.457031 1003.085938 842.785156 1003.503906 841.101562 C 1003.925781 839.417969 1004.308594 837.726562 1004.644531 836.023438 C 1004.984375 834.324219 1005.28125 832.613281 1005.535156 830.898438 C 1005.789062 829.179688 1006.003906 827.460938 1006.171875 825.730469 C 1006.34375 824.003906 1006.46875 822.273438 1006.554688 820.542969 C 1006.640625 818.808594 1006.683594 817.074219 1006.683594 815.339844 L 1006.683594 179.167969 C 1006.683594 177.429688 1006.640625 175.695312 1006.554688 173.964844 C 1006.46875 172.230469 1006.34375 170.5 1006.171875 168.773438 C 1006.003906 167.046875 1005.789062 165.324219 1005.535156 163.609375 C 1005.28125 161.890625 1004.984375 160.183594 1004.644531 158.480469 C 1004.308594 156.777344 1003.925781 155.085938 1003.503906 153.402344 C 1003.085938 151.71875 1002.621094 150.046875 1002.117188 148.386719 C 1001.613281 146.726562 1001.070312 145.078125 1000.484375 143.445312 C 999.902344 141.8125 999.277344 140.195312 998.613281 138.589844 C 997.949219 136.988281 997.246094 135.402344 996.503906 133.832031 C 995.761719 132.265625 994.980469 130.714844 994.164062 129.183594 C 993.347656 127.652344 992.492188 126.144531 991.597656 124.65625 C 990.707031 123.167969 989.78125 121.703125 988.816406 120.261719 C 987.851562 118.816406 986.851562 117.398438 985.820312 116.003906 C 984.785156 114.609375 983.71875 113.242188 982.617188 111.902344 C 981.515625 110.5625 980.382812 109.246094 979.21875 107.960938 C 978.054688 106.675781 976.859375 105.417969 975.628906 104.191406 C 974.402344 102.964844 973.148438 101.769531 971.863281 100.605469 C 970.578125 99.4375 969.261719 98.304688 967.921875 97.203125 C 966.582031 96.105469 965.214844 95.035156 963.820312 94.003906 C 962.425781 92.96875 961.007812 91.96875 959.566406 91.007812 C 958.121094 90.042969 956.65625 89.113281 955.167969 88.222656 C 953.679688 87.332031 952.171875 86.476562 950.640625 85.65625 C 949.109375 84.839844 947.5625 84.058594 945.992188 83.316406 C 944.425781 82.574219 942.839844 81.871094 941.234375 81.207031 C 939.632812 80.542969 938.015625 79.921875 936.378906 79.335938 C 934.746094 78.75 933.101562 78.207031 931.4375 77.703125 C 929.777344 77.199219 928.105469 76.738281 926.425781 76.316406 C 924.742188 75.894531 923.046875 75.511719 921.347656 75.175781 C 919.644531 74.835938 917.9375 74.539062 916.21875 74.285156 C 914.503906 74.03125 912.78125 73.816406 911.054688 73.648438 C 909.328125 73.476562 907.597656 73.351562 905.867188 73.265625 C 904.132812 73.179688 902.398438 73.136719 900.664062 73.136719 Z M 87.847656 179.167969 C 87.847656 178.007812 87.902344 176.855469 88.015625 175.703125 C 88.128906 174.550781 88.300781 173.40625 88.523438 172.269531 C 88.75 171.136719 89.03125 170.015625 89.367188 168.90625 C 89.703125 167.800781 90.09375 166.710938 90.535156 165.640625 C 90.980469 164.570312 91.472656 163.527344 92.019531 162.503906 C 92.566406 161.484375 93.160156 160.492188 93.800781 159.53125 C 94.445312 158.570312 95.132812 157.640625 95.867188 156.746094 C 96.601562 155.851562 97.378906 154.992188 98.195312 154.175781 C 99.015625 153.355469 99.871094 152.582031 100.765625 151.847656 C 101.660156 151.113281 102.589844 150.421875 103.550781 149.78125 C 104.515625 149.136719 105.507812 148.542969 106.527344 147.996094 C 107.546875 147.449219 108.59375 146.957031 109.660156 146.511719 C 110.730469 146.070312 111.820312 145.679688 112.925781 145.34375 C 114.035156 145.007812 115.15625 144.726562 116.292969 144.503906 C 117.425781 144.277344 118.570312 144.105469 119.722656 143.992188 C 120.875 143.878906 122.027344 143.824219 123.1875 143.824219 L 612.996094 143.824219 L 495.316406 285.195312 L 87.847656 285.195312 Z M 936.003906 815.339844 C 936.003906 816.496094 935.945312 817.652344 935.832031 818.804688 C 935.71875 819.957031 935.550781 821.097656 935.324219 822.234375 C 935.097656 823.371094 934.816406 824.492188 934.480469 825.597656 C 934.144531 826.707031 933.757812 827.796875 933.3125 828.863281 C 932.871094 829.933594 932.375 830.980469 931.832031 832 C 931.285156 833.019531 930.691406 834.011719 930.046875 834.976562 C 929.40625 835.9375 928.714844 836.867188 927.980469 837.761719 C 927.246094 838.65625 926.472656 839.511719 925.652344 840.332031 C 924.835938 841.148438 923.976562 841.925781 923.082031 842.660156 C 922.1875 843.394531 921.257812 844.082031 920.296875 844.726562 C 919.335938 845.367188 918.34375 845.964844 917.324219 846.507812 C 916.300781 847.054688 915.257812 847.550781 914.1875 847.992188 C 913.117188 848.433594 912.03125 848.824219 910.921875 849.160156 C 909.816406 849.496094 908.691406 849.777344 907.558594 850.003906 C 906.421875 850.230469 905.277344 850.398438 904.128906 850.511719 C 902.976562 850.625 901.820312 850.683594 900.664062 850.683594 L 123.1875 850.683594 C 122.027344 850.683594 120.875 850.625 119.722656 850.511719 C 118.570312 850.398438 117.425781 850.230469 116.292969 850.003906 C 115.15625 849.777344 114.035156 849.496094 112.925781 849.160156 C 111.820312 848.824219 110.730469 848.433594 109.660156 847.992188 C 108.59375 847.550781 107.546875 847.054688 106.527344 846.507812 C 105.507812 845.964844 104.515625 845.367188 103.550781 844.726562 C 102.589844 844.082031 101.660156 843.394531 100.765625 842.660156 C 99.871094 841.925781 99.015625 841.148438 98.195312 840.332031 C 97.378906 839.511719 96.601562 838.65625 95.867188 837.761719 C 95.132812 836.867188 94.445312 835.9375 93.800781 834.976562 C 93.160156 834.011719 92.5625 833.019531 92.019531 832 C 91.472656 830.980469 90.980469 829.933594 90.535156 828.863281 C 90.09375 827.796875 89.703125 826.707031 89.367188 825.597656 C 89.03125 824.492188 88.75 823.371094 88.523438 822.234375 C 88.300781 821.097656 88.128906 819.957031 88.015625 818.804688 C 87.902344 817.652344 87.847656 816.496094 87.847656 815.339844 L 87.847656 355.882812 L 511.925781 355.882812 C 514.519531 355.886719 517.085938 355.605469 519.621094 355.046875 C 522.15625 354.484375 524.597656 353.652344 526.949219 352.554688 C 529.300781 351.457031 531.503906 350.113281 533.5625 348.527344 C 535.617188 346.941406 537.476562 345.152344 539.136719 343.15625 L 705.234375 143.824219 L 900.664062 143.824219 C 901.820312 143.824219 902.976562 143.878906 904.128906 143.992188 C 905.277344 144.105469 906.421875 144.277344 907.558594 144.503906 C 908.691406 144.726562 909.816406 145.007812 910.921875 145.34375 C 912.03125 145.679688 913.117188 146.070312 914.1875 146.511719 C 915.257812 146.957031 916.300781 147.449219 917.324219 147.996094 C 918.34375 148.542969 919.335938 149.136719 920.296875 149.78125 C 921.257812 150.421875 922.1875 151.113281 923.082031 151.847656 C 923.976562 152.582031 924.835938 153.355469 925.652344 154.175781 C 926.472656 154.992188 927.246094 155.851562 927.980469 156.746094 C 928.714844 157.640625 929.40625 158.566406 930.046875 159.53125 C 930.691406 160.492188 931.285156 161.484375 931.832031 162.503906 C 932.375 163.527344 932.871094 164.570312 933.3125 165.640625 C 933.757812 166.710938 934.144531 167.800781 934.480469 168.90625 C 934.816406 170.015625 935.097656 171.136719 935.324219 172.269531 C 935.550781 173.40625 935.71875 174.550781 935.832031 175.703125 C 935.945312 176.855469 936.003906 178.007812 936.003906 179.167969 Z M 936.003906 815.339844 "/></g><path style=" stroke:none;fill-rule:nonzero;fill:#000000;fill-opacity:1;" d="M 193.867188 249.851562 C 193.144531 249.847656 192.425781 249.824219 191.707031 249.777344 C 190.988281 249.726562 190.273438 249.660156 189.558594 249.566406 C 188.84375 249.476562 188.132812 249.363281 187.425781 249.226562 C 186.71875 249.09375 186.015625 248.9375 185.316406 248.757812 C 184.621094 248.582031 183.929688 248.382812 183.242188 248.160156 C 182.558594 247.941406 181.878906 247.699219 181.207031 247.441406 C 180.535156 247.179688 179.875 246.894531 179.21875 246.59375 C 178.566406 246.292969 177.921875 245.96875 177.289062 245.628906 C 176.65625 245.289062 176.03125 244.925781 175.417969 244.546875 C 174.808594 244.167969 174.207031 243.769531 173.621094 243.355469 C 173.03125 242.9375 172.457031 242.503906 171.894531 242.054688 C 171.335938 241.601562 170.789062 241.132812 170.253906 240.648438 C 169.722656 240.164062 169.207031 239.664062 168.703125 239.148438 C 168.203125 238.632812 167.714844 238.101562 167.246094 237.554688 C 166.777344 237.007812 166.324219 236.449219 165.890625 235.875 C 165.453125 235.300781 165.035156 234.714844 164.636719 234.113281 C 164.238281 233.515625 163.855469 232.90625 163.496094 232.28125 C 163.132812 231.660156 162.789062 231.027344 162.464844 230.382812 C 162.144531 229.738281 161.839844 229.085938 161.554688 228.425781 C 161.273438 227.761719 161.007812 227.09375 160.765625 226.414062 C 160.523438 225.734375 160.300781 225.050781 160.101562 224.359375 C 159.902344 223.667969 159.722656 222.972656 159.5625 222.269531 C 159.40625 221.566406 159.269531 220.859375 159.15625 220.148438 C 159.039062 219.4375 158.945312 218.722656 158.875 218.007812 C 158.804688 217.289062 158.753906 216.570312 158.726562 215.851562 C 158.699219 215.132812 158.695312 214.414062 158.710938 213.691406 C 158.726562 212.972656 158.765625 212.253906 158.828125 211.535156 C 158.886719 210.816406 158.96875 210.101562 159.074219 209.390625 C 159.179688 208.679688 159.304688 207.96875 159.453125 207.265625 C 159.601562 206.558594 159.769531 205.859375 159.960938 205.164062 C 160.148438 204.46875 160.359375 203.78125 160.59375 203.101562 C 160.828125 202.417969 161.078125 201.746094 161.351562 201.078125 C 163.050781 196.699219 165.523438 192.808594 168.773438 189.414062 C 169.59375 188.589844 170.453125 187.804688 171.347656 187.066406 C 172.246094 186.324219 173.175781 185.628906 174.140625 184.976562 C 175.105469 184.328125 176.101562 183.730469 177.125 183.175781 C 178.152344 182.625 179.199219 182.128906 180.273438 181.679688 C 181.347656 181.230469 182.441406 180.839844 183.554688 180.5 C 184.667969 180.160156 185.792969 179.875 186.9375 179.648438 C 188.078125 179.417969 189.226562 179.246094 190.382812 179.132812 C 191.542969 179.019531 192.703125 178.960938 193.867188 178.960938 C 195.027344 178.960938 196.191406 179.019531 197.347656 179.132812 C 198.503906 179.246094 199.65625 179.417969 200.796875 179.648438 C 201.9375 179.875 203.0625 180.160156 204.175781 180.5 C 205.289062 180.839844 206.382812 181.230469 207.457031 181.679688 C 208.53125 182.128906 209.578125 182.625 210.605469 183.175781 C 211.628906 183.730469 212.625 184.328125 213.589844 184.976562 C 214.554688 185.628906 215.484375 186.324219 216.382812 187.066406 C 217.28125 187.804688 218.136719 188.589844 218.957031 189.414062 C 222.207031 192.808594 224.679688 196.699219 226.378906 201.078125 C 228.382812 205.332031 229.328125 209.808594 229.207031 214.507812 C 229.207031 215.667969 229.148438 216.820312 229.035156 217.972656 C 228.921875 219.125 228.753906 220.269531 228.527344 221.40625 C 228.300781 222.539062 228.019531 223.660156 227.683594 224.769531 C 227.347656 225.875 226.957031 226.964844 226.515625 228.035156 C 226.074219 229.105469 225.578125 230.148438 225.03125 231.167969 C 224.488281 232.191406 223.894531 233.183594 223.25 234.144531 C 222.605469 235.105469 221.917969 236.035156 221.183594 236.929688 C 220.449219 237.824219 219.671875 238.683594 218.855469 239.5 C 218.035156 240.320312 217.179688 241.09375 216.285156 241.828125 C 215.390625 242.5625 214.460938 243.253906 213.5 243.894531 C 212.535156 244.539062 211.546875 245.132812 210.523438 245.679688 C 209.503906 246.222656 208.457031 246.71875 207.390625 247.160156 C 206.320312 247.605469 205.230469 247.996094 204.125 248.332031 C 203.015625 248.667969 201.894531 248.945312 200.761719 249.171875 C 199.625 249.398438 198.480469 249.570312 197.328125 249.683594 C 196.175781 249.796875 195.023438 249.851562 193.867188 249.851562 Z M 193.867188 249.851562 "/><path style=" stroke:none;fill-rule:nonzero;fill:#000000;fill-opacity:1;" d="M 335.226562 249.851562 C 330.5625 249.796875 326.085938 248.851562 321.796875 247.023438 C 317.480469 245.222656 313.59375 242.746094 310.132812 239.601562 C 308.914062 238.367188 307.792969 237.046875 306.765625 235.648438 C 305.742188 234.246094 304.824219 232.777344 304.015625 231.242188 C 303.207031 229.703125 302.515625 228.117188 301.941406 226.480469 C 301.367188 224.839844 300.914062 223.171875 300.585938 221.464844 C 300.257812 219.761719 300.058594 218.039062 299.984375 216.304688 C 299.90625 214.570312 299.960938 212.839844 300.140625 211.113281 C 300.320312 209.386719 300.625 207.683594 301.054688 206.003906 C 301.488281 204.320312 302.039062 202.679688 302.710938 201.078125 C 304.410156 196.699219 306.886719 192.808594 310.132812 189.414062 C 310.953125 188.589844 311.8125 187.804688 312.707031 187.066406 C 313.605469 186.324219 314.535156 185.628906 315.5 184.976562 C 316.464844 184.328125 317.460938 183.730469 318.484375 183.175781 C 319.511719 182.625 320.558594 182.128906 321.632812 181.679688 C 322.707031 181.230469 323.800781 180.839844 324.914062 180.5 C 326.027344 180.160156 327.15625 179.875 328.296875 179.648438 C 329.4375 179.417969 330.585938 179.246094 331.742188 179.132812 C 332.902344 179.019531 334.0625 178.960938 335.226562 178.960938 C 336.390625 178.960938 337.550781 179.019531 338.707031 179.132812 C 339.863281 179.246094 341.015625 179.417969 342.15625 179.648438 C 343.296875 179.875 344.421875 180.160156 345.535156 180.5 C 346.648438 180.839844 347.742188 181.230469 348.816406 181.679688 C 349.890625 182.128906 350.941406 182.625 351.964844 183.175781 C 352.988281 183.730469 353.984375 184.328125 354.949219 184.976562 C 355.914062 185.628906 356.847656 186.324219 357.742188 187.066406 C 358.640625 187.804688 359.496094 188.589844 360.316406 189.414062 C 363.566406 192.808594 366.039062 196.699219 367.738281 201.078125 C 368.011719 201.746094 368.265625 202.417969 368.496094 203.101562 C 368.730469 203.78125 368.941406 204.46875 369.132812 205.164062 C 369.320312 205.859375 369.492188 206.558594 369.636719 207.265625 C 369.785156 207.96875 369.910156 208.679688 370.015625 209.390625 C 370.121094 210.101562 370.203125 210.816406 370.265625 211.535156 C 370.324219 212.253906 370.363281 212.972656 370.378906 213.691406 C 370.394531 214.414062 370.390625 215.132812 370.363281 215.851562 C 370.335938 216.570312 370.285156 217.289062 370.214844 218.007812 C 370.144531 218.722656 370.050781 219.4375 369.9375 220.148438 C 369.820312 220.859375 369.683594 221.566406 369.527344 222.269531 C 369.367188 222.972656 369.191406 223.667969 368.988281 224.359375 C 368.789062 225.050781 368.566406 225.734375 368.324219 226.414062 C 368.082031 227.09375 367.816406 227.761719 367.535156 228.425781 C 367.25 229.085938 366.949219 229.738281 366.625 230.382812 C 366.300781 231.027344 365.957031 231.660156 365.597656 232.28125 C 365.234375 232.902344 364.851562 233.515625 364.453125 234.113281 C 364.054688 234.714844 363.636719 235.300781 363.203125 235.875 C 362.765625 236.449219 362.3125 237.007812 361.84375 237.554688 C 361.375 238.101562 360.890625 238.628906 360.386719 239.148438 C 359.886719 239.664062 359.367188 240.164062 358.835938 240.648438 C 358.300781 241.132812 357.753906 241.601562 357.195312 242.054688 C 356.632812 242.503906 356.058594 242.9375 355.472656 243.355469 C 354.882812 243.769531 354.285156 244.167969 353.671875 244.546875 C 353.058594 244.925781 352.4375 245.289062 351.800781 245.628906 C 351.167969 245.96875 350.523438 246.292969 349.871094 246.59375 C 349.214844 246.894531 348.554688 247.179688 347.882812 247.441406 C 347.210938 247.699219 346.535156 247.941406 345.847656 248.160156 C 345.164062 248.382812 344.472656 248.582031 343.773438 248.757812 C 343.074219 248.9375 342.371094 249.09375 341.664062 249.226562 C 340.957031 249.363281 340.246094 249.476562 339.53125 249.566406 C 338.816406 249.660156 338.101562 249.726562 337.382812 249.777344 C 336.664062 249.824219 335.945312 249.847656 335.226562 249.851562 Z M 335.226562 249.851562 "/><path style=" stroke:none;fill-rule:nonzero;fill:#000000;fill-opacity:1;" d="M 335.226562 779.996094 C 332.910156 779.996094 330.601562 779.941406 328.289062 779.828125 C 325.976562 779.710938 323.671875 779.542969 321.371094 779.316406 C 319.066406 779.089844 316.773438 778.804688 314.484375 778.464844 C 312.195312 778.125 309.917969 777.730469 307.648438 777.28125 C 305.378906 776.828125 303.121094 776.320312 300.878906 775.757812 C 298.632812 775.199219 296.40625 774.582031 294.191406 773.910156 C 291.976562 773.238281 289.78125 772.511719 287.601562 771.730469 C 285.425781 770.953125 283.265625 770.121094 281.128906 769.234375 C 278.992188 768.351562 276.878906 767.414062 274.785156 766.421875 C 272.695312 765.433594 270.628906 764.394531 268.589844 763.304688 C 266.546875 762.210938 264.535156 761.074219 262.550781 759.882812 C 260.566406 758.695312 258.613281 757.457031 256.691406 756.171875 C 254.765625 754.886719 252.875 753.554688 251.015625 752.175781 C 249.160156 750.796875 247.335938 749.375 245.546875 747.90625 C 243.757812 746.4375 242.007812 744.929688 240.292969 743.375 C 238.578125 741.820312 236.90625 740.226562 235.269531 738.589844 C 233.632812 736.953125 232.039062 735.277344 230.484375 733.5625 C 228.929688 731.851562 227.421875 730.097656 225.953125 728.308594 C 224.484375 726.523438 223.0625 724.699219 221.683594 722.839844 C 220.304688 720.980469 218.972656 719.089844 217.6875 717.167969 C 216.402344 715.242188 215.167969 713.289062 213.976562 711.304688 C 212.789062 709.320312 211.648438 707.308594 210.558594 705.265625 C 209.464844 703.226562 208.425781 701.160156 207.4375 699.070312 C 206.449219 696.976562 205.511719 694.863281 204.625 692.726562 C 203.742188 690.585938 202.910156 688.429688 202.128906 686.25 C 201.347656 684.074219 200.625 681.875 199.953125 679.664062 C 199.28125 677.449219 198.664062 675.21875 198.101562 672.976562 C 197.539062 670.730469 197.03125 668.472656 196.582031 666.203125 C 196.128906 663.9375 195.734375 661.65625 195.394531 659.367188 C 195.054688 657.078125 194.773438 654.785156 194.546875 652.480469 C 194.320312 650.179688 194.148438 647.871094 194.035156 645.5625 C 193.921875 643.25 193.867188 640.9375 193.867188 638.625 L 193.867188 461.910156 C 193.867188 460.753906 193.921875 459.597656 194.035156 458.445312 C 194.148438 457.292969 194.320312 456.148438 194.542969 455.015625 C 194.769531 453.878906 195.050781 452.757812 195.386719 451.652344 C 195.722656 450.542969 196.113281 449.453125 196.554688 448.386719 C 197 447.316406 197.492188 446.269531 198.039062 445.25 C 198.585938 444.230469 199.179688 443.238281 199.820312 442.273438 C 200.464844 441.3125 201.152344 440.382812 201.886719 439.488281 C 202.621094 438.59375 203.398438 437.738281 204.214844 436.917969 C 205.035156 436.101562 205.890625 435.324219 206.785156 434.589844 C 207.679688 433.855469 208.609375 433.167969 209.570312 432.523438 C 210.535156 431.878906 211.527344 431.285156 212.546875 430.738281 C 213.566406 430.195312 214.613281 429.699219 215.679688 429.257812 C 216.75 428.8125 217.839844 428.425781 218.945312 428.089844 C 220.054688 427.753906 221.175781 427.472656 222.3125 427.246094 C 223.445312 427.019531 224.589844 426.851562 225.742188 426.738281 C 226.894531 426.625 228.046875 426.566406 229.207031 426.566406 C 230.363281 426.566406 231.519531 426.625 232.667969 426.738281 C 233.820312 426.851562 234.964844 427.019531 236.101562 427.246094 C 237.234375 427.472656 238.355469 427.753906 239.464844 428.089844 C 240.570312 428.425781 241.660156 428.8125 242.730469 429.257812 C 243.800781 429.699219 244.84375 430.195312 245.863281 430.742188 C 246.886719 431.285156 247.875 431.878906 248.839844 432.523438 C 249.800781 433.167969 250.730469 433.855469 251.625 434.589844 C 252.519531 435.324219 253.375 436.101562 254.195312 436.917969 C 255.011719 437.738281 255.789062 438.59375 256.523438 439.488281 C 257.257812 440.382812 257.945312 441.3125 258.589844 442.273438 C 259.234375 443.238281 259.828125 444.230469 260.371094 445.25 C 260.917969 446.269531 261.414062 447.316406 261.855469 448.382812 C 262.296875 449.453125 262.6875 450.542969 263.023438 451.652344 C 263.359375 452.757812 263.640625 453.878906 263.867188 455.015625 C 264.09375 456.148438 264.261719 457.292969 264.375 458.445312 C 264.488281 459.597656 264.546875 460.753906 264.546875 461.910156 L 264.546875 638.625 C 264.546875 639.78125 264.574219 640.9375 264.628906 642.09375 C 264.6875 643.25 264.773438 644.402344 264.886719 645.554688 C 265 646.703125 265.140625 647.851562 265.308594 648.996094 C 265.480469 650.140625 265.679688 651.28125 265.902344 652.414062 C 266.128906 653.550781 266.382812 654.679688 266.664062 655.800781 C 266.945312 656.921875 267.253906 658.035156 267.589844 659.144531 C 267.925781 660.25 268.289062 661.347656 268.675781 662.4375 C 269.066406 663.527344 269.484375 664.605469 269.925781 665.675781 C 270.367188 666.742188 270.835938 667.800781 271.332031 668.847656 C 271.824219 669.894531 272.347656 670.925781 272.890625 671.945312 C 273.4375 672.964844 274.007812 673.972656 274.601562 674.964844 C 275.195312 675.957031 275.816406 676.933594 276.457031 677.894531 C 277.101562 678.859375 277.765625 679.804688 278.453125 680.730469 C 279.144531 681.660156 279.855469 682.574219 280.589844 683.46875 C 281.324219 684.363281 282.078125 685.238281 282.855469 686.09375 C 283.632812 686.953125 284.429688 687.789062 285.246094 688.605469 C 286.066406 689.425781 286.902344 690.222656 287.757812 691 C 288.617188 691.777344 289.492188 692.53125 290.386719 693.265625 C 291.28125 694 292.191406 694.710938 293.121094 695.398438 C 294.050781 696.089844 294.996094 696.753906 295.957031 697.398438 C 296.917969 698.039062 297.894531 698.660156 298.886719 699.253906 C 299.878906 699.847656 300.886719 700.417969 301.90625 700.964844 C 302.925781 701.507812 303.960938 702.03125 305.003906 702.523438 C 306.050781 703.019531 307.109375 703.488281 308.175781 703.929688 C 309.246094 704.371094 310.324219 704.789062 311.414062 705.179688 C 312.503906 705.570312 313.601562 705.929688 314.707031 706.265625 C 315.816406 706.601562 316.929688 706.910156 318.050781 707.191406 C 319.171875 707.472656 320.300781 707.726562 321.4375 707.953125 C 322.570312 708.179688 323.710938 708.375 324.855469 708.546875 C 326 708.714844 327.144531 708.855469 328.296875 708.96875 C 329.449219 709.082031 330.601562 709.167969 331.757812 709.226562 C 332.914062 709.28125 334.070312 709.3125 335.226562 709.3125 C 336.382812 709.3125 337.539062 709.28125 338.691406 709.226562 C 339.847656 709.167969 341 709.082031 342.152344 708.96875 C 343.304688 708.855469 344.453125 708.714844 345.597656 708.546875 C 346.742188 708.375 347.878906 708.179688 349.015625 707.953125 C 350.148438 707.726562 351.277344 707.472656 352.398438 707.191406 C 353.519531 706.910156 354.636719 706.601562 355.742188 706.265625 C 356.847656 705.929688 357.949219 705.570312 359.035156 705.179688 C 360.125 704.789062 361.203125 704.371094 362.273438 703.929688 C 363.339844 703.488281 364.398438 703.019531 365.445312 702.523438 C 366.492188 702.03125 367.523438 701.507812 368.542969 700.964844 C 369.5625 700.417969 370.570312 699.847656 371.5625 699.253906 C 372.554688 698.660156 373.53125 698.039062 374.492188 697.398438 C 375.453125 696.753906 376.398438 696.089844 377.328125 695.398438 C 378.257812 694.710938 379.167969 694 380.0625 693.265625 C 380.957031 692.53125 381.832031 691.777344 382.691406 691 C 383.546875 690.222656 384.386719 689.425781 385.203125 688.605469 C 386.019531 687.789062 386.820312 686.953125 387.59375 686.09375 C 388.371094 685.238281 389.128906 684.363281 389.863281 683.46875 C 390.59375 682.574219 391.304688 681.660156 391.996094 680.730469 C 392.683594 679.804688 393.351562 678.859375 393.992188 677.894531 C 394.636719 676.933594 395.253906 675.957031 395.847656 674.964844 C 396.445312 673.972656 397.015625 672.964844 397.558594 671.945312 C 398.105469 670.925781 398.625 669.894531 399.117188 668.847656 C 399.613281 667.800781 400.082031 666.742188 400.523438 665.675781 C 400.96875 664.605469 401.382812 663.527344 401.773438 662.4375 C 402.164062 661.347656 402.527344 660.25 402.863281 659.144531 C 403.199219 658.035156 403.503906 656.921875 403.785156 655.800781 C 404.066406 654.679688 404.320312 653.550781 404.546875 652.414062 C 404.773438 651.28125 404.96875 650.140625 405.140625 648.996094 C 405.308594 647.851562 405.453125 646.703125 405.566406 645.554688 C 405.679688 644.402344 405.761719 643.25 405.820312 642.09375 C 405.875 640.9375 405.90625 639.78125 405.90625 638.625 L 405.90625 461.910156 C 405.90625 460.753906 405.960938 459.597656 406.074219 458.445312 C 406.1875 457.292969 406.359375 456.148438 406.585938 455.015625 C 406.808594 453.878906 407.089844 452.757812 407.425781 451.652344 C 407.761719 450.542969 408.152344 449.453125 408.59375 448.386719 C 409.039062 447.316406 409.53125 446.269531 410.078125 445.25 C 410.625 444.230469 411.21875 443.238281 411.859375 442.273438 C 412.503906 441.3125 413.191406 440.382812 413.925781 439.488281 C 414.660156 438.59375 415.4375 437.738281 416.253906 436.917969 C 417.074219 436.101562 417.929688 435.324219 418.824219 434.589844 C 419.71875 433.855469 420.648438 433.167969 421.609375 432.523438 C 422.574219 431.878906 423.566406 431.285156 424.585938 430.738281 C 425.605469 430.195312 426.652344 429.699219 427.722656 429.257812 C 428.789062 428.8125 429.878906 428.425781 430.984375 428.089844 C 432.09375 427.753906 433.214844 427.472656 434.351562 427.246094 C 435.484375 427.019531 436.628906 426.851562 437.78125 426.738281 C 438.933594 426.625 440.085938 426.566406 441.246094 426.566406 C 442.402344 426.566406 443.558594 426.625 444.707031 426.738281 C 445.859375 426.851562 447.003906 427.019531 448.140625 427.246094 C 449.273438 427.472656 450.394531 427.753906 451.503906 428.089844 C 452.609375 428.425781 453.699219 428.8125 454.769531 429.257812 C 455.839844 429.699219 456.882812 430.195312 457.902344 430.742188 C 458.925781 431.285156 459.917969 431.878906 460.878906 432.523438 C 461.839844 433.167969 462.769531 433.855469 463.664062 434.589844 C 464.558594 435.324219 465.414062 436.101562 466.234375 436.917969 C 467.050781 437.738281 467.828125 438.59375 468.5625 439.488281 C 469.296875 440.382812 469.984375 441.3125 470.628906 442.273438 C 471.273438 443.238281 471.867188 444.230469 472.410156 445.25 C 472.957031 446.269531 473.453125 447.316406 473.894531 448.382812 C 474.335938 449.453125 474.726562 450.542969 475.0625 451.652344 C 475.398438 452.757812 475.679688 453.878906 475.90625 455.015625 C 476.132812 456.148438 476.300781 457.292969 476.414062 458.445312 C 476.527344 459.597656 476.585938 460.753906 476.585938 461.910156 L 476.585938 638.625 C 476.585938 640.9375 476.527344 643.25 476.414062 645.5625 C 476.300781 647.871094 476.128906 650.179688 475.902344 652.480469 C 475.675781 654.785156 475.394531 657.078125 475.054688 659.367188 C 474.714844 661.65625 474.320312 663.9375 473.867188 666.203125 C 473.417969 668.472656 472.910156 670.730469 472.347656 672.976562 C 471.785156 675.21875 471.167969 677.449219 470.496094 679.664062 C 469.828125 681.875 469.101562 684.074219 468.320312 686.25 C 467.542969 688.429688 466.710938 690.585938 465.824219 692.726562 C 464.9375 694.863281 464 696.976562 463.011719 699.070312 C 462.023438 701.160156 460.984375 703.226562 459.894531 705.265625 C 458.800781 707.308594 457.664062 709.320312 456.472656 711.304688 C 455.285156 713.289062 454.046875 715.242188 452.761719 717.167969 C 451.476562 719.089844 450.144531 720.980469 448.765625 722.839844 C 447.386719 724.699219 445.964844 726.523438 444.496094 728.308594 C 443.03125 730.097656 441.519531 731.851562 439.964844 733.5625 C 438.410156 735.277344 436.816406 736.953125 435.179688 738.589844 C 433.546875 740.226562 431.871094 741.820312 430.15625 743.375 C 428.441406 744.929688 426.691406 746.4375 424.902344 747.90625 C 423.113281 749.375 421.292969 750.796875 419.433594 752.175781 C 417.574219 753.554688 415.683594 754.886719 413.761719 756.171875 C 411.835938 757.457031 409.882812 758.695312 407.898438 759.882812 C 405.914062 761.074219 403.902344 762.214844 401.863281 763.304688 C 399.820312 764.394531 397.753906 765.433594 395.664062 766.421875 C 393.574219 767.414062 391.457031 768.351562 389.320312 769.234375 C 387.183594 770.121094 385.027344 770.953125 382.847656 771.734375 C 380.667969 772.511719 378.472656 773.238281 376.257812 773.910156 C 374.046875 774.582031 371.816406 775.199219 369.574219 775.761719 C 367.328125 776.320312 365.070312 776.828125 362.804688 777.28125 C 360.535156 777.730469 358.253906 778.125 355.96875 778.464844 C 353.679688 778.804688 351.382812 779.089844 349.082031 779.316406 C 346.777344 779.542969 344.472656 779.710938 342.160156 779.828125 C 339.851562 779.941406 337.539062 779.996094 335.226562 779.996094 Z M 335.226562 779.996094 "/><path style=" stroke:none;fill-rule:nonzero;fill:#000000;fill-opacity:1;" d="M 732.800781 603.28125 L 822.914062 483.117188 C 823.613281 482.191406 824.261719 481.230469 824.863281 480.242188 C 825.464844 479.253906 826.015625 478.234375 826.519531 477.191406 C 827.019531 476.148438 827.46875 475.082031 827.867188 473.992188 C 828.261719 472.90625 828.605469 471.800781 828.894531 470.679688 C 829.183594 469.554688 829.414062 468.421875 829.59375 467.277344 C 829.769531 466.132812 829.890625 464.984375 829.953125 463.828125 C 830.019531 462.667969 830.023438 461.511719 829.976562 460.355469 C 829.925781 459.199219 829.820312 458.046875 829.65625 456.898438 C 829.492188 455.753906 829.273438 454.617188 829 453.492188 C 828.722656 452.367188 828.394531 451.257812 828.011719 450.164062 C 827.625 449.070312 827.191406 448 826.699219 446.949219 C 826.210938 445.898438 825.671875 444.875 825.082031 443.878906 C 824.492188 442.882812 823.855469 441.917969 823.171875 440.984375 C 822.484375 440.046875 821.757812 439.148438 820.984375 438.289062 C 820.210938 437.425781 819.398438 436.601562 818.542969 435.820312 C 817.6875 435.035156 816.796875 434.296875 815.871094 433.601562 C 814.945312 432.90625 813.988281 432.261719 812.996094 431.660156 C 812.007812 431.058594 810.988281 430.507812 809.945312 430.007812 C 808.898438 429.507812 807.832031 429.058594 806.746094 428.664062 C 805.65625 428.265625 804.550781 427.925781 803.429688 427.636719 C 802.308594 427.351562 801.171875 427.121094 800.027344 426.945312 C 798.882812 426.769531 797.734375 426.648438 796.578125 426.585938 C 795.417969 426.523438 794.261719 426.519531 793.105469 426.570312 C 791.949219 426.621094 790.796875 426.726562 789.648438 426.894531 C 788.503906 427.058594 787.367188 427.277344 786.242188 427.554688 C 785.117188 427.828125 784.007812 428.160156 782.917969 428.546875 C 781.824219 428.929688 780.753906 429.367188 779.703125 429.859375 C 778.65625 430.347656 777.632812 430.890625 776.636719 431.480469 C 775.640625 432.074219 774.675781 432.710938 773.742188 433.398438 C 772.808594 434.082031 771.910156 434.8125 771.050781 435.585938 C 770.1875 436.359375 769.367188 437.175781 768.585938 438.03125 C 767.804688 438.886719 767.066406 439.777344 766.371094 440.703125 L 688.625 544.257812 L 610.875 440.703125 C 610.183594 439.777344 609.445312 438.886719 608.660156 438.035156 C 607.878906 437.179688 607.058594 436.367188 606.195312 435.59375 C 605.335938 434.824219 604.4375 434.09375 603.503906 433.410156 C 602.570312 432.726562 601.605469 432.089844 600.609375 431.5 C 599.613281 430.910156 598.589844 430.367188 597.542969 429.878906 C 596.492188 429.390625 595.421875 428.953125 594.332031 428.570312 C 593.238281 428.183594 592.132812 427.855469 591.007812 427.582031 C 589.882812 427.304688 588.75 427.085938 587.601562 426.921875 C 586.457031 426.757812 585.304688 426.652344 584.148438 426.601562 C 582.992188 426.550781 581.835938 426.554688 580.679688 426.621094 C 579.523438 426.683594 578.375 426.800781 577.230469 426.976562 C 576.085938 427.152344 574.953125 427.386719 573.832031 427.671875 C 572.710938 427.960938 571.609375 428.300781 570.519531 428.699219 C 569.433594 429.09375 568.367188 429.542969 567.324219 430.042969 C 566.28125 430.542969 565.261719 431.09375 564.273438 431.691406 C 563.285156 432.292969 562.328125 432.941406 561.402344 433.636719 C 560.472656 434.332031 559.585938 435.070312 558.730469 435.851562 C 557.878906 436.632812 557.066406 437.453125 556.292969 438.316406 C 555.519531 439.179688 554.792969 440.074219 554.105469 441.007812 C 553.421875 441.941406 552.785156 442.90625 552.195312 443.902344 C 551.605469 444.898438 551.066406 445.921875 550.578125 446.96875 C 550.085938 448.019531 549.652344 449.089844 549.265625 450.183594 C 548.882812 451.273438 548.554688 452.382812 548.277344 453.507812 C 548.003906 454.628906 547.785156 455.765625 547.621094 456.910156 C 547.457031 458.058594 547.347656 459.207031 547.296875 460.363281 C 547.246094 461.523438 547.253906 462.675781 547.316406 463.832031 C 547.378906 464.988281 547.5 466.140625 547.675781 467.285156 C 547.851562 468.425781 548.082031 469.558594 548.371094 470.679688 C 548.65625 471.804688 549 472.90625 549.394531 473.996094 C 549.789062 475.082031 550.238281 476.148438 550.738281 477.191406 C 551.238281 478.234375 551.789062 479.253906 552.390625 480.242188 C 552.992188 481.230469 553.636719 482.191406 554.332031 483.117188 L 644.449219 603.28125 L 554.332031 723.449219 C 553.636719 724.375 552.992188 725.332031 552.390625 726.320312 C 551.789062 727.3125 551.238281 728.328125 550.738281 729.371094 C 550.238281 730.414062 549.789062 731.480469 549.394531 732.570312 C 549 733.65625 548.65625 734.761719 548.371094 735.882812 C 548.082031 737.003906 547.851562 738.136719 547.675781 739.28125 C 547.5 740.425781 547.378906 741.574219 547.316406 742.730469 C 547.253906 743.886719 547.246094 745.042969 547.296875 746.199219 C 547.347656 747.355469 547.457031 748.507812 547.621094 749.652344 C 547.785156 750.796875 548.003906 751.933594 548.277344 753.058594 C 548.554688 754.183594 548.882812 755.289062 549.265625 756.382812 C 549.652344 757.472656 550.085938 758.542969 550.578125 759.59375 C 551.066406 760.640625 551.605469 761.664062 552.195312 762.660156 C 552.785156 763.65625 553.421875 764.621094 554.105469 765.554688 C 554.792969 766.488281 555.519531 767.386719 556.292969 768.246094 C 557.066406 769.109375 557.878906 769.929688 558.730469 770.714844 C 559.585938 771.496094 560.476562 772.234375 561.402344 772.929688 C 564.460938 775.222656 567.800781 776.972656 571.429688 778.183594 C 575.054688 779.390625 578.78125 779.996094 582.605469 779.996094 C 585.347656 779.996094 588.054688 779.679688 590.722656 779.050781 C 593.394531 778.421875 595.957031 777.492188 598.410156 776.265625 C 600.863281 775.039062 603.140625 773.546875 605.25 771.789062 C 607.355469 770.03125 609.230469 768.054688 610.875 765.859375 L 688.625 662.304688 L 766.371094 765.859375 C 768.019531 768.054688 769.894531 770.03125 772 771.789062 C 774.105469 773.546875 776.386719 775.039062 778.839844 776.265625 C 781.292969 777.492188 783.855469 778.421875 786.523438 779.050781 C 789.195312 779.679688 791.902344 779.996094 794.644531 779.996094 C 798.46875 779.996094 802.191406 779.390625 805.820312 778.183594 C 809.445312 776.972656 812.789062 775.222656 815.847656 772.929688 C 816.773438 772.234375 817.664062 771.496094 818.515625 770.714844 C 819.371094 769.929688 820.183594 769.109375 820.957031 768.246094 C 821.730469 767.386719 822.457031 766.488281 823.140625 765.554688 C 823.828125 764.621094 824.464844 763.65625 825.054688 762.660156 C 825.644531 761.664062 826.183594 760.640625 826.671875 759.59375 C 827.160156 758.542969 827.597656 757.472656 827.980469 756.382812 C 828.367188 755.289062 828.695312 754.183594 828.96875 753.058594 C 829.246094 751.933594 829.464844 750.796875 829.628906 749.652344 C 829.792969 748.507812 829.898438 747.355469 829.949219 746.199219 C 830 745.042969 829.996094 743.886719 829.929688 742.730469 C 829.867188 741.574219 829.75 740.425781 829.574219 739.28125 C 829.398438 738.136719 829.164062 737.003906 828.878906 735.882812 C 828.589844 734.761719 828.25 733.65625 827.855469 732.570312 C 827.457031 731.480469 827.011719 730.414062 826.507812 729.371094 C 826.007812 728.328125 825.457031 727.3125 824.859375 726.320312 C 824.257812 725.332031 823.609375 724.375 822.914062 723.449219 Z M 732.800781 603.28125 "/></g></svg>