<svg xmlns="http://www.w3.org/2000/svg" xmlns:xlink="http://www.w3.org/1999/xlink" width="1366" zoomAndPan="magnify" viewBox="0 0 1024.5 1024.500009" height="1366" preserveAspectRatio="xMidYMid meet" version="1.2"><g id="13a8869c1c"><path style=" stroke:none;fill-rule:nonzero;fill:#000000;fill-opacity:1;" d="M 1021.484375 48.246094 C 1019.371094 43.410156 1015.113281 40.820312 1009.9375 40.445312 C 935.871094 35.539062 861.765625 32.269531 787.632812 29.101562 C 713.527344 25.96875 639.390625 21.914062 565.257812 20.484375 C 544.3125 20.039062 523.4375 19.050781 502.492188 18.234375 C 491.867188 17.824219 481.242188 17.484375 470.585938 17.347656 C 466.941406 17.316406 463.296875 17.347656 459.621094 17.519531 C 457.882812 13.636719 453.386719 11.011719 448.449219 13.839844 C 446.203125 15.132812 443.988281 16.464844 441.773438 17.824219 C 440.753906 17.824219 439.699219 17.792969 438.675781 17.722656 C 433.160156 17.519531 430.09375 21.230469 429.515625 25.457031 C 405.644531 40.957031 383.203125 58.503906 360.179688 75.230469 C 329.121094 97.851562 299.085938 121.933594 268.914062 145.714844 C 238.980469 169.324219 210.339844 194.464844 180.78125 218.414062 C 152.3125 241.410156 123.910156 264.371094 96.054688 288.082031 C 64.554688 314.996094 32.746094 341.839844 3.527344 371.273438 C -2.328125 377.167969 2.097656 387.046875 10.167969 387.320312 C 19.671875 387.59375 29.207031 386.09375 38.707031 386.535156 C 48.207031 386.945312 57.742188 387.386719 67.3125 387.761719 C 86.65625 388.648438 106 389.5 125.375 390.113281 C 136.308594 390.453125 147.203125 390.863281 158.136719 391.304688 C 157.25 394.40625 159.054688 397.8125 162.152344 398.5625 C 162.152344 398.5625 162.152344 398.5625 162.1875 398.5625 C 159.769531 428.675781 159.496094 458.828125 161.371094 489.046875 C 162.324219 504.785156 163.824219 520.523438 165.832031 536.160156 C 167.464844 548.96875 169 562.050781 172.234375 574.65625 C 171.859375 574.691406 171.484375 574.722656 171.078125 574.792969 C 157.148438 577.519531 145.332031 587.160156 138.042969 599.183594 C 130.039062 612.367188 128.953125 629.367188 130.144531 644.425781 C 131.367188 659.925781 135.386719 675.019531 143.96875 688.132812 C 147.171875 693.007812 151.734375 699.070312 157.183594 703.636719 C 124.832031 722.816406 113.082031 761.515625 104.636719 796.027344 C 93.839844 840.210938 86.929688 885.621094 85.601562 931.136719 C 84.851562 956.722656 85.601562 982.917969 90.367188 1008.09375 C 91.355469 1013.203125 98.269531 1012.625 100.039062 1008.605469 C 101.980469 1008.777344 103.921875 1008.367188 105.488281 1007.175781 C 111.652344 1002.507812 118.121094 997.226562 126.261719 997.875 C 134.195312 998.488281 141.074219 999.953125 149.078125 998.285156 C 155.820312 996.886719 162.324219 993.683594 167.773438 989.5625 C 170.496094 987.519531 172.984375 985.269531 175.09375 982.542969 C 175.84375 981.589844 177.207031 978.523438 178.195312 978.082031 C 180.101562 977.160156 181.054688 978.796875 182.585938 979.921875 C 193.210938 987.894531 210.785156 994.195312 223.28125 986.871094 C 232.886719 981.25 236.734375 966.601562 235.066406 955.5625 C 247.902344 921.53125 254.441406 885.453125 255.667969 849 C 257.097656 807.164062 248.242188 765.195312 226.992188 728.878906 C 218.753906 714.773438 206.015625 700.160156 190.214844 698.355469 C 195.460938 691.574219 199.578125 683.773438 203.53125 676.3125 C 209.625 664.832031 214.632812 652.671875 216.199219 639.691406 C 218.992188 616.492188 205.675781 591.484375 185.550781 580.003906 C 184.597656 579.460938 183.644531 579.1875 182.757812 579.085938 C 182.109375 578.164062 181.359375 577.382812 180.507812 576.769531 C 179.554688 563.210938 177.171875 549.71875 175.742188 536.195312 C 174.039062 520.183594 172.847656 504.101562 172.234375 488.023438 C 171.007812 456.648438 171.859375 425.066406 174.3125 393.757812 C 175.195312 393.28125 176.046875 392.738281 176.933594 392.191406 C 197.773438 393.179688 218.582031 394.40625 239.390625 396.210938 C 243.40625 396.550781 247.496094 396.960938 251.511719 397.371094 C 251.34375 456.75 250.59375 516.230469 251.851562 575.574219 C 252.023438 583.648438 252.261719 591.691406 252.636719 599.761719 C 252.738281 601.125 252.773438 602.589844 252.808594 604.089844 L 252.808594 604.191406 C 252.535156 606.101562 252.636719 608.074219 253.214844 609.949219 C 253.214844 609.949219 253.214844 610.050781 253.25 610.085938 C 254.339844 613.664062 257.097656 616.832031 261.832031 618.261719 C 264.828125 619.183594 267.894531 620.066406 270.957031 620.953125 C 318.496094 634.34375 369.375 639.722656 418.582031 639.996094 C 471.402344 640.234375 524.527344 633.695312 575.507812 619.929688 C 622.84375 607.121094 668.542969 589.746094 711.417969 565.832031 C 751.703125 543.347656 790.289062 515.820312 824.546875 484.921875 C 858.089844 454.671875 888.160156 420.535156 914.039062 383.574219 C 917.242188 379.109375 920.339844 374.542969 923.335938 369.945312 C 923.203125 368.308594 922.65625 366.675781 921.738281 365.074219 C 918.058594 358.703125 913.90625 352.535156 909.613281 346.472656 C 904.640625 339.488281 899.566406 332.539062 894.835938 325.488281 C 885.878906 312.234375 877.226562 298.8125 868.714844 285.289062 C 854.992188 263.382812 841.878906 241.035156 829.449219 218.378906 C 856.320312 195.519531 883.324219 172.898438 910.5 150.484375 C 939.308594 126.703125 968.664062 103.574219 997.203125 79.488281 C 1004.285156 73.527344 1011.574219 67.835938 1018.859375 62.078125 C 1022.707031 59.011719 1023.289062 52.371094 1021.480469 48.246094 Z M 215.347656 744.550781 C 223.929688 760.492188 229.855469 777.5625 234.382812 795.070312 C 239.050781 812.992188 241.5 831.457031 242.113281 849.953125 C 242.796875 869.816406 240.070312 889.371094 236.871094 908.925781 C 234.691406 922.3125 231.523438 935.394531 228.082031 948.441406 C 226.449219 948.851562 224.984375 950.011719 224.335938 951.882812 C 220.695312 962.582031 222.53125 978.96875 206.867188 979.273438 C 199.785156 979.410156 192.941406 976.34375 187.285156 972.359375 C 182.621094 969.054688 176.867188 965.785156 171.757812 970.246094 C 167.023438 974.367188 163.515625 979 157.589844 981.691406 C 152.109375 984.179688 145.636719 985.097656 139.710938 984.078125 C 131.609375 982.679688 124.660156 979.34375 116.214844 980.636719 C 110.5625 981.488281 105.488281 983.804688 100.617188 986.597656 C 100.617188 971.609375 100.480469 956.652344 100.957031 941.664062 C 101.640625 920.304688 103.035156 898.976562 105.691406 877.753906 C 108.382812 856.257812 112.164062 834.792969 117.339844 813.742188 C 121.699219 796.058594 126.191406 777.800781 133.785156 761.140625 C 141.3125 744.617188 152.347656 728.742188 168.421875 719.648438 C 170.257812 718.589844 171.484375 717.261719 172.234375 715.761719 C 175.300781 719.304688 180.375 719.886719 184.628906 717.808594 C 190.25 715.046875 196.992188 719.886719 200.910156 723.597656 C 207.105469 729.492188 211.328125 737.125 215.347656 744.585938 Z M 202.882812 642.042969 C 203.292969 653.386719 201.078125 664.867188 196.074219 675.085938 C 191.816406 683.773438 185.480469 691.0625 180.03125 699 C 178.296875 699.410156 176.523438 699.957031 174.71875 700.707031 C 171.859375 698.082031 168.351562 695.832031 165.558594 693.277344 C 161.710938 689.769531 158.171875 685.921875 155.546875 681.390625 C 149.382812 670.65625 147.917969 657.574219 148.292969 645.449219 C 148.738281 631.992188 152.140625 614.992188 161.710938 604.5 C 160.859375 606.78125 160.144531 609.097656 159.703125 611.449219 C 158.578125 617.070312 158.136719 622.691406 158.542969 628.378906 C 158.953125 634.308594 159.53125 640.609375 161.507812 646.230469 C 162.597656 649.332031 167.433594 649.84375 168.316406 646.230469 C 169.542969 641.121094 169.644531 635.703125 170.191406 630.492188 C 170.703125 625.621094 171.382812 620.648438 172.539062 615.878906 C 173.765625 610.902344 175.402344 606.066406 177.957031 601.773438 C 178.808594 605.214844 179.488281 608.65625 179.964844 611.925781 C 180.988281 619.011719 181.089844 626.746094 182.109375 634.105469 C 182.347656 635.910156 184.527344 637.238281 186.195312 637.238281 C 188.207031 637.238281 189.601562 635.875 190.285156 634.105469 C 193.144531 626.746094 193.042969 617.648438 191.882812 609.914062 C 191.476562 607.089844 190.828125 604.328125 190.078125 601.570312 C 198.933594 612.675781 202.339844 627.628906 202.847656 642.042969 Z M 847.601562 298.847656 C 855.773438 312.542969 864.320312 326.03125 873.109375 339.351562 C 879.441406 348.960938 885.640625 358.976562 892.550781 368.308594 C 845.589844 435.761719 783.714844 493.8125 712.710938 534.933594 C 672.730469 558.132812 630.300781 577.175781 585.996094 590.429688 C 538.011719 604.773438 487.542969 612.402344 437.519531 613.59375 C 409.015625 614.3125 380.410156 612.980469 352.144531 609.609375 C 326.636719 606.507812 301.675781 601.09375 276.816406 595.027344 C 276.847656 592.167969 276.917969 589.304688 276.984375 586.511719 C 278.144531 554.285156 277.699219 521.988281 277.699219 489.761719 C 277.667969 459.917969 277.667969 430.074219 277.597656 400.230469 C 301.949219 403.160156 326.160156 406.875 350.238281 411.335938 C 387.253906 418.253906 424 426.734375 461.117188 433.175781 C 480.289062 436.445312 499.496094 439.238281 518.839844 441.488281 C 528.101562 442.542969 537.398438 443.566406 546.695312 444.417969 C 555.855469 445.300781 564.8125 445.574219 573.394531 441.589844 C 581.261719 437.945312 587.425781 431.367188 593.65625 425.476562 C 600.332031 419.140625 607.109375 412.769531 613.851562 406.433594 C 627.574219 393.554688 641.640625 380.984375 655.671875 368.34375 C 669.429688 355.910156 683.832031 344.292969 697.761719 332.027344 C 711.894531 319.527344 726.09375 307.125 740.328125 294.757812 C 763.828125 274.386719 787.394531 254.152344 811.058594 234.015625 C 822.671875 255.992188 834.832031 277.589844 847.636719 298.847656 Z M 914.3125 113.65625 C 885.980469 136.890625 857.816406 160.363281 829.859375 184.074219 C 824.820312 188.367188 819.710938 192.660156 814.671875 197.019531 L 814.636719 197.019531 C 809.5625 201.3125 804.488281 205.640625 799.449219 210 C 781.433594 225.363281 763.519531 240.898438 745.742188 256.535156 C 718.296875 280.722656 690.097656 304.398438 663.945312 329.984375 C 637.519531 355.808594 609.527344 380.199219 582.113281 404.964844 C 576.460938 410.042969 570.398438 417.675781 563.109375 420.570312 C 556.4375 423.261719 547.035156 420.535156 540.191406 419.648438 C 522.039062 417.332031 504.027344 414.199219 485.910156 411.679688 C 449.128906 406.636719 412.351562 401.355469 375.605469 395.972656 C 342.949219 391.203125 310.324219 386.128906 277.566406 382.242188 C 273.101562 381.699219 268.609375 381.1875 264.148438 380.710938 C 259.957031 380.269531 255.734375 379.824219 251.546875 379.417969 C 235.507812 377.882812 219.398438 376.65625 203.324219 375.738281 C 209.695312 371.785156 216.128906 367.867188 222.5 363.949219 C 241.230469 352.539062 259.890625 341.191406 278.789062 330.15625 C 316.320312 308.285156 353.640625 286.105469 391.238281 264.304688 C 412.660156 251.867188 434.316406 239.910156 455.941406 227.851562 C 456.996094 227.273438 457.609375 226.421875 457.882812 225.535156 C 462.070312 229.929688 467.894531 231.9375 473.71875 232.960938 C 480.9375 234.253906 489.246094 232.175781 495.820312 228.976562 C 498.746094 227.613281 501.675781 226.148438 504.332031 224.375 C 505.761719 223.457031 507.125 222.503906 508.625 221.71875 C 510.292969 220.730469 511.722656 219.503906 512.742188 218.960938 C 515.980469 217.425781 517.476562 212.996094 516.558594 209.660156 C 515.773438 206.867188 514.652344 205.09375 512.710938 203.59375 C 511.722656 196.78125 509.441406 189.96875 506.070312 183.972656 C 502.253906 177.226562 495.34375 172.457031 487.78125 170.992188 C 479.914062 169.492188 471.230469 170.550781 464.183594 174.570312 C 457.203125 178.554688 451.683594 185.199219 448.382812 192.488281 C 444.398438 201.3125 442.898438 211.054688 443.546875 220.695312 C 443.648438 221.921875 443.953125 223.082031 444.464844 224.101562 C 408.332031 243.726562 372.234375 263.382812 336.410156 283.484375 C 298.507812 304.742188 261.320312 327.226562 223.964844 349.367188 C 213.472656 355.570312 202.984375 361.804688 192.53125 368.105469 C 188.988281 370.21875 185.414062 372.296875 181.769531 374.441406 C 134.09375 372.261719 86.347656 371.921875 38.671875 371.035156 C 36.425781 371 34.210938 370.867188 31.929688 370.695312 C 53.621094 350.867188 75.453125 331.246094 98.167969 312.609375 C 126.5 289.375 155.273438 266.6875 184.085938 244.066406 C 243.273438 197.566406 304.738281 153.480469 361.578125 104.050781 C 388.003906 81.054688 414.257812 57.546875 442.863281 37.242188 C 450.59375 37.824219 458.394531 39.152344 466.15625 39.765625 C 475.660156 40.515625 485.195312 41.128906 494.761719 41.535156 C 513.117188 42.386719 531.472656 43.207031 549.828125 44.058594 C 568.558594 44.941406 587.222656 46.714844 605.949219 47.5 C 624.679688 48.28125 643.410156 49.097656 662.074219 49.917969 C 736.140625 53.121094 810.175781 56.21875 884.242188 59.488281 C 914.996094 60.820312 945.78125 61.976562 976.496094 63.679688 C 955.6875 80.203125 934.847656 96.757812 914.3125 113.621094 Z M 458.460938 210.648438 C 458.902344 206.355469 459.960938 202.199219 461.867188 198.382812 C 463.671875 194.804688 465.578125 192.148438 468.609375 189.558594 C 470.210938 188.195312 474.363281 185.878906 476.542969 185.164062 C 482.332031 183.1875 488.90625 183.050781 494.082031 187.414062 C 496.910156 189.796875 499.121094 192.558594 500.246094 196.03125 C 501.097656 198.722656 501.675781 201.515625 502.222656 204.277344 C 500.996094 204.617188 499.734375 205.027344 498.542969 205.46875 C 495.480469 206.558594 492.617188 207.851562 489.824219 209.554688 C 485.5 212.179688 481.414062 215.347656 476.851562 217.527344 C 473.410156 219.128906 469.902344 220.832031 465.886719 219.164062 C 462.515625 217.734375 459.484375 214.292969 458.53125 210.75 C 458.53125 210.714844 458.496094 210.648438 458.496094 210.613281 Z M 174.585938 726.699219 C 157.828125 763.253906 145.160156 801.78125 136.921875 841.164062 C 128.609375 880.957031 126.738281 920.917969 126.363281 961.421875 C 126.363281 963.671875 123.09375 963.601562 122.921875 961.421875 C 119.859375 920.984375 124.457031 879.523438 131.980469 839.800781 C 139.578125 799.601562 151.972656 760.59375 168.726562 723.292969 C 170.496094 719.339844 176.355469 722.78125 174.550781 726.699219 Z M 190.828125 748.433594 C 190.65625 820.316406 182.417969 891.652344 165.355469 961.492188 C 165.082031 962.613281 163.449219 962.136719 163.652344 961.015625 C 177.34375 891.109375 184.527344 819.667969 184.1875 748.433594 C 184.1875 744.140625 190.828125 744.175781 190.828125 748.433594 Z M 203.085938 962.886719 C 215.007812 890.9375 216.234375 817.113281 205.609375 744.890625 C 204.996094 740.800781 211.160156 738.964844 211.90625 743.152344 C 224.8125 816.261719 223.28125 891.414062 206.1875 963.738281 C 205.710938 965.785156 202.746094 964.898438 203.085938 962.886719 Z M 203.085938 962.886719 "/></g></svg>