<svg xmlns="http://www.w3.org/2000/svg" xmlns:xlink="http://www.w3.org/1999/xlink" width="1366" zoomAndPan="magnify" viewBox="0 0 1024.5 1024.500009" height="1366" preserveAspectRatio="xMidYMid meet" version="1.2"><defs><clipPath id="c5b503ba64"><path d="M 15.714844 74.914062 L 1009 74.914062 L 1009 783.605469 L 15.714844 783.605469 Z M 15.714844 74.914062 "/></clipPath><clipPath id="63fe3260e0"><path d="M 63.691406 74.914062 L 960.308594 74.914062 C 973.03125 74.914062 985.234375 79.96875 994.234375 88.96875 C 1003.230469 97.964844 1008.285156 110.167969 1008.285156 122.890625 L 1008.285156 735.628906 C 1008.285156 748.351562 1003.230469 760.554688 994.234375 769.554688 C 985.234375 778.550781 973.03125 783.605469 960.308594 783.605469 L 63.691406 783.605469 C 50.96875 783.605469 38.765625 778.550781 29.765625 769.554688 C 20.769531 760.554688 15.714844 748.351562 15.714844 735.628906 L 15.714844 122.890625 C 15.714844 110.167969 20.769531 97.964844 29.765625 88.96875 C 38.765625 79.96875 50.96875 74.914062 63.691406 74.914062 Z M 63.691406 74.914062 "/></clipPath><clipPath id="71b0fdfefb"><path d="M 0.714844 0.914062 L 993.46875 0.914062 L 993.46875 709.605469 L 0.714844 709.605469 Z M 0.714844 0.914062 "/></clipPath><clipPath id="9816c8b645"><path d="M 48.691406 0.914062 L 945.308594 0.914062 C 958.03125 0.914062 970.234375 5.96875 979.234375 14.96875 C 988.230469 23.964844 993.285156 36.167969 993.285156 48.890625 L 993.285156 661.628906 C 993.285156 674.351562 988.230469 686.554688 979.234375 695.554688 C 970.234375 704.550781 958.03125 709.605469 945.308594 709.605469 L 48.691406 709.605469 C 35.96875 709.605469 23.765625 704.550781 14.765625 695.554688 C 5.769531 686.554688 0.714844 674.351562 0.714844 661.628906 L 0.714844 48.890625 C 0.714844 36.167969 5.769531 23.964844 14.765625 14.96875 C 23.765625 5.96875 35.96875 0.914062 48.691406 0.914062 Z M 48.691406 0.914062 "/></clipPath><clipPath id="0588dc8e06"><rect x="0" width="994" y="0" height="710"/></clipPath><clipPath id="90dcdce237"><path d="M 0 66 L 1024 66 L 1024 957.984375 L 0 957.984375 Z M 0 66 "/></clipPath></defs><g id="57dbc99b67"><g clip-rule="nonzero" clip-path="url(#c5b503ba64)"><g clip-rule="nonzero" clip-path="url(#63fe3260e0)"><g transform="matrix(1,0,0,1,15,74)"><g clip-path="url(#0588dc8e06)"><g clip-rule="nonzero" clip-path="url(#71b0fdfefb)"><g clip-rule="nonzero" clip-path="url(#9816c8b645)"><path style=" stroke:none;fill-rule:nonzero;fill:#ffffff;fill-opacity:1;" d="M 0.714844 0.914062 L 994.539062 0.914062 L 994.539062 709.605469 L 0.714844 709.605469 Z M 0.714844 0.914062 "/></g></g></g></g></g></g><g clip-rule="nonzero" clip-path="url(#90dcdce237)"><path style=" stroke:none;fill-rule:nonzero;fill:#000000;fill-opacity:1;" d="M 966.195312 66.0625 L 57.804688 66.0625 C 55.914062 66.066406 54.027344 66.160156 52.140625 66.347656 C 50.257812 66.535156 48.390625 66.8125 46.535156 67.183594 C 44.675781 67.554688 42.84375 68.015625 41.035156 68.566406 C 39.222656 69.117188 37.441406 69.753906 35.695312 70.480469 C 33.945312 71.207031 32.238281 72.015625 30.570312 72.90625 C 28.902344 73.800781 27.28125 74.773438 25.707031 75.824219 C 24.132812 76.875 22.613281 78.003906 21.152344 79.203125 C 19.6875 80.402344 18.289062 81.671875 16.949219 83.011719 C 15.613281 84.351562 14.34375 85.75 13.140625 87.214844 C 11.941406 88.675781 10.8125 90.195312 9.761719 91.765625 C 8.710938 93.339844 7.738281 94.960938 6.84375 96.628906 C 5.953125 98.296875 5.144531 100.007812 4.417969 101.753906 C 3.691406 103.503906 3.054688 105.28125 2.503906 107.09375 C 1.953125 108.902344 1.492188 110.738281 1.121094 112.59375 C 0.75 114.449219 0.472656 116.316406 0.285156 118.199219 C 0.0976562 120.082031 0.00390625 121.972656 0 123.863281 L 0 734.898438 C 0.00390625 736.789062 0.0976562 738.675781 0.285156 740.558594 C 0.472656 742.441406 0.75 744.3125 1.121094 746.167969 C 1.492188 748.023438 1.953125 749.859375 2.503906 751.667969 C 3.054688 753.480469 3.691406 755.257812 4.417969 757.007812 C 5.144531 758.753906 5.953125 760.460938 6.84375 762.132812 C 7.738281 763.800781 8.710938 765.421875 9.761719 766.992188 C 10.8125 768.566406 11.941406 770.085938 13.140625 771.546875 C 14.34375 773.011719 15.613281 774.410156 16.949219 775.75 C 18.289062 777.085938 19.6875 778.355469 21.152344 779.558594 C 22.613281 780.757812 24.132812 781.882812 25.707031 782.9375 C 27.28125 783.988281 28.902344 784.960938 30.570312 785.851562 C 32.238281 786.746094 33.945312 787.554688 35.695312 788.28125 C 37.441406 789.003906 39.222656 789.644531 41.035156 790.195312 C 42.84375 790.746094 44.675781 791.207031 46.535156 791.574219 C 48.390625 791.945312 50.257812 792.226562 52.140625 792.414062 C 54.027344 792.601562 55.914062 792.695312 57.804688 792.695312 L 360.835938 792.695312 L 349.027344 875.269531 L 247.742188 875.269531 C 247.199219 875.269531 246.660156 875.296875 246.125 875.347656 C 245.585938 875.402344 245.050781 875.480469 244.519531 875.585938 C 243.988281 875.691406 243.464844 875.824219 242.949219 875.980469 C 242.429688 876.136719 241.921875 876.320312 241.421875 876.527344 C 240.921875 876.734375 240.433594 876.964844 239.957031 877.21875 C 239.480469 877.472656 239.015625 877.75 238.566406 878.050781 C 238.117188 878.351562 237.683594 878.675781 237.265625 879.019531 C 236.847656 879.359375 236.445312 879.722656 236.0625 880.105469 C 235.679688 880.488281 235.316406 880.890625 234.976562 881.308594 C 234.632812 881.726562 234.308594 882.160156 234.007812 882.609375 C 233.707031 883.058594 233.429688 883.523438 233.175781 884 C 232.921875 884.476562 232.691406 884.964844 232.484375 885.464844 C 232.277344 885.964844 232.09375 886.472656 231.9375 886.988281 C 231.78125 887.507812 231.648438 888.03125 231.542969 888.5625 C 231.4375 889.09375 231.359375 889.625 231.304688 890.164062 C 231.253906 890.703125 231.226562 891.242188 231.226562 891.785156 L 231.226562 941.328125 C 231.226562 941.867188 231.253906 942.40625 231.304688 942.945312 C 231.359375 943.484375 231.4375 944.019531 231.542969 944.546875 C 231.648438 945.078125 231.78125 945.601562 231.9375 946.121094 C 232.09375 946.636719 232.277344 947.148438 232.484375 947.644531 C 232.691406 948.144531 232.921875 948.632812 233.175781 949.113281 C 233.429688 949.589844 233.707031 950.050781 234.007812 950.5 C 234.308594 950.953125 234.632812 951.386719 234.976562 951.804688 C 235.316406 952.222656 235.679688 952.621094 236.0625 953.003906 C 236.445312 953.386719 236.847656 953.75 237.265625 954.09375 C 237.683594 954.4375 238.117188 954.757812 238.566406 955.058594 C 239.015625 955.359375 239.480469 955.636719 239.957031 955.890625 C 240.433594 956.144531 240.921875 956.378906 241.421875 956.582031 C 241.921875 956.789062 242.429688 956.972656 242.949219 957.128906 C 243.464844 957.285156 243.988281 957.417969 244.519531 957.523438 C 245.050781 957.628906 245.585938 957.707031 246.125 957.761719 C 246.660156 957.816406 247.199219 957.839844 247.742188 957.839844 L 776.257812 957.839844 C 776.800781 957.839844 777.339844 957.816406 777.878906 957.761719 C 778.414062 957.707031 778.949219 957.628906 779.480469 957.523438 C 780.011719 957.417969 780.535156 957.285156 781.050781 957.128906 C 781.570312 956.972656 782.078125 956.792969 782.578125 956.582031 C 783.078125 956.378906 783.566406 956.144531 784.042969 955.890625 C 784.519531 955.636719 784.984375 955.359375 785.433594 955.058594 C 785.882812 954.757812 786.316406 954.4375 786.734375 954.09375 C 787.152344 953.75 787.554688 953.386719 787.9375 953.003906 C 788.320312 952.621094 788.683594 952.222656 789.023438 951.804688 C 789.367188 951.386719 789.691406 950.953125 789.992188 950.5 C 790.292969 950.050781 790.570312 949.589844 790.824219 949.113281 C 791.078125 948.632812 791.308594 948.144531 791.515625 947.644531 C 791.722656 947.148438 791.90625 946.636719 792.0625 946.121094 C 792.21875 945.601562 792.351562 945.078125 792.457031 944.546875 C 792.5625 944.019531 792.640625 943.484375 792.695312 942.945312 C 792.746094 942.40625 792.773438 941.867188 792.773438 941.328125 L 792.773438 891.785156 C 792.773438 891.242188 792.746094 890.703125 792.695312 890.164062 C 792.640625 889.625 792.5625 889.09375 792.457031 888.5625 C 792.351562 888.03125 792.21875 887.507812 792.0625 886.988281 C 791.90625 886.472656 791.722656 885.964844 791.515625 885.464844 C 791.308594 884.964844 791.078125 884.476562 790.824219 884 C 790.570312 883.523438 790.292969 883.058594 789.992188 882.609375 C 789.691406 882.160156 789.367188 881.726562 789.023438 881.308594 C 788.683594 880.890625 788.320312 880.488281 787.9375 880.105469 C 787.554688 879.722656 787.152344 879.359375 786.734375 879.019531 C 786.316406 878.675781 785.882812 878.351562 785.433594 878.050781 C 784.984375 877.75 784.519531 877.472656 784.042969 877.21875 C 783.566406 876.964844 783.078125 876.734375 782.578125 876.527344 C 782.078125 876.320312 781.570312 876.136719 781.050781 875.980469 C 780.535156 875.824219 780.011719 875.691406 779.480469 875.585938 C 778.949219 875.480469 778.414062 875.402344 777.878906 875.347656 C 777.339844 875.296875 776.800781 875.269531 776.257812 875.269531 L 674.972656 875.269531 L 663.164062 792.695312 L 966.195312 792.695312 C 968.085938 792.695312 969.972656 792.601562 971.859375 792.414062 C 973.742188 792.226562 975.609375 791.945312 977.464844 791.574219 C 979.324219 791.203125 981.15625 790.746094 982.96875 790.195312 C 984.777344 789.644531 986.558594 789.003906 988.304688 788.28125 C 990.054688 787.554688 991.761719 786.746094 993.429688 785.851562 C 995.097656 784.960938 996.722656 783.988281 998.292969 782.9375 C 999.867188 781.882812 1001.386719 780.757812 1002.847656 779.558594 C 1004.3125 778.355469 1005.710938 777.085938 1007.050781 775.75 C 1008.390625 774.410156 1009.660156 773.011719 1010.859375 771.546875 C 1012.058594 770.085938 1013.1875 768.566406 1014.238281 766.992188 C 1015.289062 765.421875 1016.261719 763.800781 1017.15625 762.132812 C 1018.046875 760.460938 1018.859375 758.753906 1019.582031 757.007812 C 1020.308594 755.257812 1020.945312 753.480469 1021.496094 751.667969 C 1022.046875 749.859375 1022.507812 748.023438 1022.878906 746.167969 C 1023.25 744.3125 1023.527344 742.441406 1023.714844 740.558594 C 1023.902344 738.675781 1024 736.789062 1024 734.898438 L 1024 123.863281 C 1024 121.972656 1023.902344 120.082031 1023.714844 118.199219 C 1023.527344 116.316406 1023.25 114.449219 1022.878906 112.59375 C 1022.507812 110.738281 1022.046875 108.902344 1021.496094 107.09375 C 1020.945312 105.28125 1020.308594 103.503906 1019.582031 101.753906 C 1018.859375 100.007812 1018.046875 98.296875 1017.15625 96.628906 C 1016.261719 94.960938 1015.289062 93.339844 1014.238281 91.765625 C 1013.1875 90.195312 1012.058594 88.675781 1010.859375 87.214844 C 1009.660156 85.75 1008.390625 84.351562 1007.050781 83.011719 C 1005.710938 81.671875 1004.3125 80.402344 1002.847656 79.203125 C 1001.386719 78.003906 999.867188 76.875 998.292969 75.824219 C 996.722656 74.773438 995.101562 73.800781 993.429688 72.90625 C 991.761719 72.015625 990.054688 71.207031 988.304688 70.480469 C 986.558594 69.753906 984.777344 69.117188 982.96875 68.566406 C 981.15625 68.015625 979.324219 67.554688 977.46875 67.183594 C 975.609375 66.8125 973.742188 66.535156 971.859375 66.347656 C 969.972656 66.160156 968.085938 66.066406 966.195312 66.0625 Z M 759.742188 908.296875 L 759.742188 924.8125 L 264.257812 924.8125 L 264.257812 908.296875 Z M 382.390625 875.269531 L 394.199219 792.695312 L 629.800781 792.695312 L 641.609375 875.269531 Z M 990.96875 734.898438 C 990.96875 735.707031 990.925781 736.515625 990.847656 737.324219 C 990.765625 738.132812 990.648438 738.933594 990.488281 739.726562 C 990.328125 740.523438 990.132812 741.308594 989.898438 742.085938 C 989.660156 742.859375 989.386719 743.625 989.078125 744.375 C 988.765625 745.121094 988.417969 745.855469 988.035156 746.570312 C 987.652344 747.285156 987.238281 747.980469 986.785156 748.652344 C 986.335938 749.328125 985.851562 749.980469 985.339844 750.605469 C 984.824219 751.234375 984.28125 751.832031 983.707031 752.40625 C 983.132812 752.980469 982.53125 753.523438 981.90625 754.039062 C 981.277344 754.554688 980.628906 755.035156 979.953125 755.488281 C 979.277344 755.9375 978.582031 756.355469 977.867188 756.738281 C 977.152344 757.121094 976.421875 757.464844 975.671875 757.777344 C 974.921875 758.089844 974.160156 758.359375 973.382812 758.597656 C 972.605469 758.832031 971.820312 759.03125 971.027344 759.1875 C 970.230469 759.347656 969.429688 759.46875 968.621094 759.546875 C 967.8125 759.628906 967.003906 759.667969 966.195312 759.667969 L 57.804688 759.667969 C 56.996094 759.667969 56.1875 759.628906 55.378906 759.546875 C 54.570312 759.46875 53.769531 759.347656 52.976562 759.1875 C 52.179688 759.03125 51.394531 758.832031 50.617188 758.597656 C 49.839844 758.359375 49.078125 758.089844 48.328125 757.777344 C 47.578125 757.464844 46.847656 757.121094 46.132812 756.738281 C 45.417969 756.355469 44.722656 755.9375 44.046875 755.488281 C 43.375 755.035156 42.722656 754.554688 42.09375 754.039062 C 41.46875 753.523438 40.867188 752.980469 40.292969 752.40625 C 39.722656 751.832031 39.175781 751.234375 38.660156 750.605469 C 38.148438 749.980469 37.664062 749.328125 37.214844 748.652344 C 36.761719 747.980469 36.347656 747.285156 35.964844 746.570312 C 35.582031 745.855469 35.234375 745.121094 34.921875 744.375 C 34.613281 743.625 34.339844 742.863281 34.105469 742.085938 C 33.867188 741.308594 33.671875 740.523438 33.511719 739.726562 C 33.351562 738.933594 33.234375 738.132812 33.152344 737.324219 C 33.074219 736.515625 33.03125 735.707031 33.03125 734.898438 L 33.03125 693.609375 L 990.96875 693.609375 Z M 990.96875 660.582031 L 33.03125 660.582031 L 33.03125 123.863281 C 33.03125 123.054688 33.074219 122.242188 33.152344 121.4375 C 33.234375 120.628906 33.351562 119.828125 33.511719 119.03125 C 33.671875 118.238281 33.867188 117.453125 34.105469 116.675781 C 34.339844 115.898438 34.613281 115.136719 34.921875 114.386719 C 35.234375 113.636719 35.582031 112.90625 35.964844 112.191406 C 36.347656 111.476562 36.761719 110.78125 37.214844 110.105469 C 37.664062 109.433594 38.148438 108.78125 38.660156 108.15625 C 39.175781 107.527344 39.722656 106.925781 40.292969 106.355469 C 40.867188 105.78125 41.46875 105.234375 42.09375 104.722656 C 42.722656 104.207031 43.375 103.722656 44.046875 103.273438 C 44.722656 102.824219 45.417969 102.40625 46.132812 102.023438 C 46.847656 101.640625 47.578125 101.292969 48.328125 100.984375 C 49.078125 100.671875 49.839844 100.398438 50.617188 100.164062 C 51.394531 99.929688 52.179688 99.730469 52.976562 99.570312 C 53.769531 99.414062 54.570312 99.292969 55.378906 99.214844 C 56.1875 99.132812 56.996094 99.09375 57.804688 99.09375 L 966.195312 99.09375 C 967.003906 99.09375 967.8125 99.132812 968.621094 99.214844 C 969.429688 99.292969 970.230469 99.414062 971.027344 99.570312 C 971.820312 99.730469 972.605469 99.929688 973.382812 100.164062 C 974.160156 100.398438 974.921875 100.671875 975.671875 100.984375 C 976.421875 101.292969 977.152344 101.640625 977.867188 102.023438 C 978.582031 102.40625 979.277344 102.824219 979.953125 103.273438 C 980.628906 103.722656 981.277344 104.207031 981.90625 104.722656 C 982.53125 105.234375 983.132812 105.78125 983.707031 106.355469 C 984.28125 106.925781 984.824219 107.527344 985.339844 108.15625 C 985.851562 108.78125 986.335938 109.433594 986.785156 110.105469 C 987.238281 110.78125 987.652344 111.476562 988.035156 112.191406 C 988.417969 112.90625 988.765625 113.636719 989.078125 114.386719 C 989.386719 115.136719 989.660156 115.898438 989.898438 116.675781 C 990.132812 117.453125 990.328125 118.238281 990.488281 119.03125 C 990.648438 119.828125 990.765625 120.628906 990.847656 121.4375 C 990.925781 122.242188 990.96875 123.054688 990.96875 123.863281 Z M 990.96875 660.582031 "/></g><path style=" stroke:none;fill-rule:nonzero;fill:#000000;fill-opacity:1;" d="M 561.546875 710.125 L 462.453125 710.125 C 461.910156 710.125 461.371094 710.152344 460.832031 710.203125 C 460.292969 710.257812 459.761719 710.335938 459.230469 710.441406 C 458.699219 710.546875 458.175781 710.679688 457.65625 710.835938 C 457.140625 710.992188 456.632812 711.175781 456.132812 711.382812 C 455.632812 711.589844 455.144531 711.820312 454.667969 712.074219 C 454.1875 712.332031 453.726562 712.609375 453.277344 712.910156 C 452.824219 713.207031 452.390625 713.53125 451.972656 713.875 C 451.554688 714.21875 451.15625 714.578125 450.773438 714.960938 C 450.390625 715.34375 450.027344 715.746094 449.683594 716.164062 C 449.339844 716.582031 449.019531 717.015625 448.71875 717.464844 C 448.417969 717.914062 448.140625 718.378906 447.886719 718.855469 C 447.628906 719.332031 447.398438 719.820312 447.191406 720.320312 C 446.984375 720.820312 446.804688 721.328125 446.648438 721.84375 C 446.488281 722.363281 446.359375 722.886719 446.253906 723.417969 C 446.148438 723.949219 446.066406 724.484375 446.015625 725.019531 C 445.960938 725.558594 445.933594 726.097656 445.9375 726.640625 C 445.933594 727.179688 445.960938 727.71875 446.015625 728.257812 C 446.066406 728.796875 446.148438 729.332031 446.253906 729.859375 C 446.359375 730.390625 446.488281 730.914062 446.648438 731.433594 C 446.804688 731.949219 446.984375 732.460938 447.191406 732.960938 C 447.398438 733.460938 447.628906 733.949219 447.886719 734.425781 C 448.140625 734.902344 448.417969 735.363281 448.71875 735.8125 C 449.019531 736.265625 449.339844 736.699219 449.683594 737.117188 C 450.027344 737.535156 450.390625 737.933594 450.773438 738.316406 C 451.15625 738.699219 451.554688 739.0625 451.972656 739.40625 C 452.390625 739.75 452.824219 740.070312 453.277344 740.371094 C 453.726562 740.671875 454.1875 740.949219 454.667969 741.203125 C 455.144531 741.457031 455.632812 741.691406 456.132812 741.898438 C 456.632812 742.105469 457.140625 742.285156 457.65625 742.441406 C 458.175781 742.601562 458.699219 742.730469 459.230469 742.835938 C 459.761719 742.941406 460.292969 743.019531 460.832031 743.074219 C 461.371094 743.128906 461.910156 743.152344 462.453125 743.152344 L 561.546875 743.152344 C 562.089844 743.152344 562.628906 743.128906 563.167969 743.074219 C 563.707031 743.019531 564.238281 742.941406 564.769531 742.835938 C 565.300781 742.730469 565.824219 742.601562 566.34375 742.441406 C 566.859375 742.285156 567.371094 742.105469 567.867188 741.898438 C 568.367188 741.691406 568.855469 741.457031 569.335938 741.203125 C 569.8125 740.949219 570.273438 740.671875 570.722656 740.371094 C 571.175781 740.070312 571.609375 739.75 572.027344 739.40625 C 572.445312 739.0625 572.84375 738.699219 573.226562 738.316406 C 573.609375 737.933594 573.972656 737.535156 574.316406 737.117188 C 574.660156 736.699219 574.980469 736.265625 575.28125 735.8125 C 575.582031 735.363281 575.859375 734.902344 576.113281 734.425781 C 576.371094 733.949219 576.601562 733.460938 576.808594 732.960938 C 577.015625 732.460938 577.195312 731.949219 577.351562 731.433594 C 577.511719 730.914062 577.640625 730.390625 577.746094 729.859375 C 577.851562 729.332031 577.933594 728.796875 577.984375 728.257812 C 578.039062 727.71875 578.066406 727.179688 578.066406 726.640625 C 578.066406 726.097656 578.039062 725.558594 577.984375 725.019531 C 577.933594 724.484375 577.851562 723.949219 577.746094 723.417969 C 577.640625 722.886719 577.511719 722.363281 577.351562 721.84375 C 577.195312 721.328125 577.015625 720.820312 576.808594 720.320312 C 576.601562 719.820312 576.371094 719.332031 576.113281 718.855469 C 575.859375 718.378906 575.582031 717.914062 575.28125 717.464844 C 574.980469 717.015625 574.660156 716.582031 574.316406 716.164062 C 573.972656 715.746094 573.609375 715.34375 573.226562 714.960938 C 572.84375 714.578125 572.445312 714.21875 572.027344 713.875 C 571.609375 713.53125 571.175781 713.207031 570.722656 712.910156 C 570.273438 712.609375 569.8125 712.332031 569.335938 712.074219 C 568.855469 711.820312 568.367188 711.589844 567.867188 711.382812 C 567.371094 711.175781 566.859375 710.992188 566.34375 710.835938 C 565.824219 710.679688 565.300781 710.546875 564.769531 710.441406 C 564.238281 710.335938 563.707031 710.257812 563.167969 710.203125 C 562.628906 710.152344 562.089844 710.125 561.546875 710.125 Z M 561.546875 710.125 "/></g></svg>